<?xml version="1.0" encoding="UTF-8" standalone="no"?>
<!-- Generator: Adobe Illustrator 16.0.0, SVG Export Plug-In . SVG Version: 6.00 Build 0)  -->

<svg
   xmlns:dc="http://purl.org/dc/elements/1.1/"
   xmlns:cc="http://creativecommons.org/ns#"
   xmlns:rdf="http://www.w3.org/1999/02/22-rdf-syntax-ns#"
   xmlns:svg="http://www.w3.org/2000/svg"
   xmlns="http://www.w3.org/2000/svg"
   xmlns:sodipodi="http://sodipodi.sourceforge.net/DTD/sodipodi-0.dtd"
   xmlns:inkscape="http://www.inkscape.org/namespaces/inkscape"
   version="1.1"
   id="Icons"
   x="0px"
   y="0px"
   width="32px"
   height="32px"
   viewBox="0 0 198.425 198.43"
   enable-background="new 0 0 198.425 198.43"
   xml:space="preserve"
   inkscape:version="0.91 r13725"
   sodipodi:docname="1.svg"><metadata
     id="metadata13"><rdf:RDF><cc:Work
         rdf:about=""><dc:format>image/svg+xml</dc:format><dc:type
           rdf:resource="http://purl.org/dc/dcmitype/StillImage" /></cc:Work></rdf:RDF></metadata><defs
     id="defs11" /><sodipodi:namedview
     pagecolor="#ffffff"
     bordercolor="#666666"
     borderopacity="1"
     objecttolerance="10"
     gridtolerance="10"
     guidetolerance="10"
     inkscape:pageopacity="0"
     inkscape:pageshadow="2"
     inkscape:window-width="1600"
     inkscape:window-height="848"
     id="namedview9"
     showgrid="false"
     inkscape:zoom="11.313708"
     inkscape:cx="-0.9299497"
     inkscape:cy="18.332002"
     inkscape:window-x="-8"
     inkscape:window-y="-8"
     inkscape:window-maximized="1"
     inkscape:current-layer="Icons" /><g
     id="g3"><g
       id="g5"><path
         d="m 77.525,111.514 c 8.049,13.939 19.672,25.47 33.615,33.344 11.162,6.305 23.572,10.154 36.301,11.31 -3.448,2.932 -7.169,5.555 -11.129,7.841 -11.379,6.57 -24.295,10.042 -37.35,10.042 -13,0 -25.849,-3.397 -37.153,-9.826 C 50.17,157.607 40.494,147.917 33.827,136.204 28.953,127.642 25.912,118.279 24.788,108.378 23.701,98.799 24.447,89.154 27.003,79.717 29.56,70.279 33.783,61.578 39.557,53.856 49.428351,41.43107 60.493154,34.070916 73.806,28.642 61.574,55.049 62.773,85.964 77.525,111.514 Z"
         id="path7"
         style="fill:none;stroke:#ff9838;stroke-width:9.30140614;stroke-linecap:round;stroke-miterlimit:4;stroke-dasharray:none;stroke-linejoin:round"
         inkscape:connector-curvature="0"
         sodipodi:nodetypes="ccccsccccccc" /></g></g></svg>