<?xml version="1.0" encoding="utf-8"?>
<!-- Generator: Adobe Illustrator 16.0.0, SVG Export Plug-In . SVG Version: 6.00 Build 0)  -->
<!DOCTYPE svg PUBLIC "-//W3C//DTD SVG 1.1//EN" "http://www.w3.org/Graphics/SVG/1.1/DTD/svg11.dtd">
<svg version="1.1" id="Icons" xmlns="http://www.w3.org/2000/svg" xmlns:xlink="http://www.w3.org/1999/xlink" x="0px" y="0px"
	 width="32px" height="32px" viewBox="0 0 198.425 198.43" enable-background="new 0 0 198.425 198.43"
	 xml:space="preserve">
<g>
	<g>
		<path fill="#45A4F3" d="M116.382,135.44c-0.664,0-1.337-0.175-1.949-0.542c-1.795-1.078-2.377-3.408-1.298-5.203l15.259-25.405
			c1.079-1.797,3.408-2.379,5.205-1.301c1.795,1.079,2.377,3.409,1.299,5.204l-15.26,25.406
			C118.926,134.783,117.67,135.44,116.382,135.44z"/>
	</g>
	<g>
		<path fill="#45A4F3" d="M81.619,152.021c-0.664,0-1.336-0.175-1.948-0.542c-1.796-1.078-2.377-3.409-1.298-5.203l25.219-41.987
			c1.078-1.797,3.406-2.379,5.203-1.3c1.797,1.078,2.377,3.409,1.299,5.204l-25.219,41.988
			C84.164,151.365,82.908,152.021,81.619,152.021z"/>
	</g>
	<g>
		<path fill="#45A4F3" d="M66.775,135.44c-0.665,0-1.338-0.175-1.949-0.542c-1.796-1.078-2.377-3.408-1.298-5.203l15.259-25.405
			c1.079-1.797,3.407-2.379,5.204-1.301c1.796,1.079,2.377,3.409,1.299,5.204l-15.26,25.406
			C69.319,134.783,68.063,135.44,66.775,135.44z"/>
	</g>
</g>
<g>
	<path fill="#878787" d="M194.238,93.349H4.187c-2.094,0-3.792-1.698-3.792-3.793c0-2.094,1.698-3.793,3.792-3.793h190.051
		c2.095,0,3.793,1.699,3.793,3.793S196.333,93.349,194.238,93.349z"/>
</g>
</svg>
