<?xml version="1.0" encoding="utf-8"?>
<!-- Generator: Adobe Illustrator 16.0.0, SVG Export Plug-In . SVG Version: 6.00 Build 0)  -->
<!DOCTYPE svg PUBLIC "-//W3C//DTD SVG 1.1//EN" "http://www.w3.org/Graphics/SVG/1.1/DTD/svg11.dtd">
<svg version="1.1" id="Icons" xmlns="http://www.w3.org/2000/svg" xmlns:xlink="http://www.w3.org/1999/xlink" x="0px" y="0px"
	 width="32px" height="32px" viewBox="0 0 198.425 198.43" enable-background="new 0 0 198.425 198.43"
	 xml:space="preserve">
<path fill="#878787" d="M63.275,176.932c-6.994,0-12.879-1.114-17.493-3.312c-4.04-1.924-5.921-4.368-5.921-7.694
	c0-1.188,0.34-2.1,1.07-2.871c0.686-0.724,1.466-1.062,2.453-1.062c2.032,0,3.083,0.847,3.749,3.02l0.353,1.149l1.07,0.546
	c3.735,1.906,8.688,2.873,14.72,2.873c7.03,0,12.016-0.979,15.241-2.994l0.897-0.562l0.31-1.013c0.666-2.173,1.717-3.02,3.75-3.02
	c0.988,0,1.802,0.37,2.56,1.169c0.796,0.84,1.168,1.719,1.168,2.764c0,3.315-1.924,5.757-6.054,7.685
	C76.425,175.814,70.412,176.932,63.275,176.932z M60.609,152.016c-9.118,0-16.74-1.379-22.655-4.098
	c-5.271-2.421-7.834-5.521-7.834-9.474c0-3.188,1.601-5.804,4.891-7.996c0.609-0.388,1.253-0.582,1.946-0.582
	c0.257,0,0.527,0.026,0.807,0.082c1.038,0.203,1.835,0.729,2.509,1.654c0.423,0.601,0.602,1.412,0.539,2.47
	c-0.062,1.017-0.369,1.769-0.969,2.366l-2.886,2.888l3.71,1.696c5.134,2.349,11.844,3.538,19.943,3.538
	c4.991,0,9.53-0.493,13.493-1.466c4.203-1.031,7.076-2.197,8.785-3.563l0.785-0.63l0.213-0.981c0.215-0.992,0.684-1.781,1.473-2.482
	c0.709-0.63,1.447-0.924,2.32-0.924c1.127,0,1.972,0.338,2.66,1.063c0.729,0.769,1.067,1.681,1.067,2.867
	c0,3.95-2.577,7.049-7.879,9.471C77.574,150.636,69.864,152.016,60.609,152.016z M72.503,126.281
	c-17.98,0-31.507-3.104-40.202-9.225c-4.303-2.907-6.386-6.203-6.386-10.089c0-4.492,2.826-8.319,8.64-11.7l3.641-2.117
	l-3.333-2.575c-4.434-3.428-6.589-7.222-6.589-11.6c0-5.723,3.59-10.552,10.976-14.763l2.792-1.592l-1.928-2.571
	c-1.896-2.527-2.816-5.224-2.816-8.245c0-5.156,2.914-9.732,8.906-13.992c6.373-4.528,14.893-7.89,25.32-9.989
	c9.907-2.142,21.097-3.227,33.276-3.227c25.69,0,45.379,4.429,58.516,13.164c6.182,4.243,9.193,8.84,9.193,14.044
	c0,8.265-7.438,15.093-22.105,20.295l-2.479,0.88l0.691,2.538c0.342,1.254,0.516,2.417,0.516,3.458c0,4.349-2.338,8.18-7.148,11.71
	c-5.209,3.828-12.564,6.932-21.865,9.223l-3.107,0.768l1.138,2.992c0.421,1.107,0.635,2.218,0.635,3.3
	c0,3.79-1.967,7.065-6.013,10.013c-4.439,3.235-10.323,5.661-17.488,7.211C88.356,125.576,80.685,126.281,72.503,126.281z
	 M47.176,98.262c-2.506,0.711-4.829,1.571-6.904,2.556c-2.344,1.113-3.783,1.99-4.668,2.847c-1.468,1.239-2.232,1.888-2.232,3.304
	v0.742l0.363,0.646c0.928,1.648,2.787,3.074,5.682,4.358c3.078,1.604,7.622,2.991,13.827,4.211c6.06,1.191,12.538,1.796,19.26,1.796
	c6.721,0,13.185-0.604,19.211-1.797c6.211-1.228,10.729-2.628,13.812-4.281c2.83-1.499,4.644-3.003,5.539-4.595l1.12-1.99
	l-4.531-4.027l-1.296,0.181c-5.237,0.729-11.177,1.101-17.655,1.101c-14.736,0-27.786-1.849-38.789-5.495l-1.111-0.368
	L47.176,98.262z M48.373,68.247c-5.398,2.176-9.016,4.452-11.058,6.958c-1.125,1.249-1.688,2.496-1.688,3.771
	c0,1.981,0.999,3.784,2.969,5.358c3.052,2.797,8.749,5.342,17.358,7.729c8.653,2.583,19.68,3.896,32.748,3.896
	c13,0,24.001-1.316,32.699-3.912c8.259-2.391,13.842-4.933,17.059-7.767c1.924-1.619,2.909-3.409,2.909-5.307v-4.1l-3.411,0.71
	c-10.285,2.138-21.441,3.222-33.156,3.222c-22.867,0-41.047-3.51-54.036-10.433L49.6,67.752L48.373,68.247z M104.802,31.95
	c-14.217,0-26.596,1.521-36.791,4.523c-9.882,2.885-16.393,5.881-19.898,9.158c-2.258,2.071-3.359,4.092-3.359,6.173
	c0,2.039,1.121,4.011,3.429,6.03c3.354,3.286,9.858,6.31,19.842,9.202c10.182,2.999,22.557,4.521,36.778,4.521
	c14.283,0,26.763-1.521,37.088-4.521c9.976-2.964,16.492-6,19.931-9.286c2.17-1.981,3.233-3.933,3.233-5.946
	c0-1.96-1.041-3.957-3.187-6.104c-3.481-3.327-10.012-6.341-19.979-9.229C131.558,33.471,119.081,31.95,104.802,31.95z"/>
</svg>
