<?xml version="1.0" encoding="utf-8"?>
<!-- Generator: Adobe Illustrator 16.0.0, SVG Export Plug-In . SVG Version: 6.00 Build 0)  -->
<!DOCTYPE svg PUBLIC "-//W3C//DTD SVG 1.1//EN" "http://www.w3.org/Graphics/SVG/1.1/DTD/svg11.dtd">
<svg version="1.1" id="Icons" xmlns="http://www.w3.org/2000/svg" xmlns:xlink="http://www.w3.org/1999/xlink" x="0px" y="0px"
	 width="32px" height="32px" viewBox="0 0 198.425 198.43" enable-background="new 0 0 198.425 198.43"
	 xml:space="preserve">
<g>
	<path fill="#878787" d="M25.687,56.186c0-2.156,0.748-3.921,2.246-5.3c1.496-1.377,3.533-2.065,6.108-2.065h28.387
		c2.573,0,4.626,0.688,6.153,2.065c1.526,1.379,2.29,3.144,2.29,5.3c0,2.576-0.764,4.627-2.29,6.153
		c-1.527,1.527-3.58,2.291-6.153,2.291H34.042c-2.575,0-4.612-0.748-6.108-2.245C26.435,60.888,25.687,58.823,25.687,56.186z"/>
	<path fill="#878787" d="M25.687,112.867c0-2.155,0.748-3.937,2.246-5.344c1.496-1.407,3.533-2.109,6.108-2.109h54.706
		c2.574,0,4.61,0.702,6.109,2.109c1.495,1.407,2.245,3.188,2.245,5.344c0,2.638-0.734,4.688-2.201,6.154
		c-1.468,1.47-3.519,2.201-6.153,2.201H34.042c-2.575,0-4.612-0.731-6.108-2.201C26.435,117.556,25.687,115.505,25.687,112.867z"/>
	<path fill="#878787" d="M35.119,141.165c0-2.095,0.883-4.026,2.65-5.794c1.766-1.766,3.696-2.65,5.795-2.65
		c2.455,0,4.446,0.854,5.973,2.561c1.527,1.706,2.291,3.669,2.291,5.884c0,2.635-0.733,4.702-2.2,6.198
		c-1.469,1.497-3.49,2.246-6.063,2.246c-2.217,0-4.178-0.777-5.885-2.336C35.973,145.718,35.119,143.681,35.119,141.165z"/>
	<path fill="#878787" d="M48.774,84.393c0-2.215,0.703-4.177,2.11-5.884s3.129-2.561,5.166-2.561c2.515,0,4.55,0.854,6.107,2.561
		s2.336,3.669,2.336,5.884c0,2.636-0.749,4.703-2.245,6.198c-1.498,1.498-3.564,2.245-6.198,2.245c-2.155,0-3.908-0.763-5.255-2.29
		C49.448,89.019,48.774,86.969,48.774,84.393z"/>
	<path fill="#878787" d="M58.207,141.165c0-2.215,0.776-4.178,2.335-5.884c1.556-1.707,3.593-2.561,6.108-2.561h36.739l8.445,8.444
		c0,2.516-0.854,4.553-2.561,6.108c-1.707,1.559-3.669,2.336-5.885,2.336H66.65c-2.637,0-4.702-0.764-6.198-2.291
		C58.954,145.791,58.207,143.74,58.207,141.165z"/>
	<path fill="#878787" d="M70.872,84.393c0-2.096,0.883-4.026,2.65-5.794c1.766-1.766,3.696-2.65,5.794-2.65h36.74
		c2.516,0,4.536,0.854,6.063,2.561s2.29,3.669,2.29,5.884c0,2.636-0.749,4.703-2.246,6.198c-1.497,1.498-3.534,2.245-6.107,2.245
		h-36.74c-2.217,0-4.178-0.777-5.884-2.335C71.725,88.946,70.872,86.908,70.872,84.393z"/>
	<path fill="#878787" d="M78.148,56.186c0-2.156,0.764-3.921,2.291-5.3c1.527-1.377,3.577-2.065,6.152-2.065h54.708
		c2.157,0,4.099,0.718,5.838,2.156c1.736,1.438,2.607,3.175,2.607,5.209c0,2.516-0.855,4.552-2.563,6.109
		c-1.706,1.558-3.67,2.335-5.882,2.335H86.591c-2.636,0-4.701-0.764-6.198-2.291C78.896,60.813,78.148,58.762,78.148,56.186z"/>
	<path fill="#878787" d="M103.389,112.867c0-2.034,0.868-3.786,2.605-5.254c1.736-1.467,3.684-2.199,5.84-2.199
		c2.155,0,4.102,0.732,5.838,2.199c1.736,1.468,2.605,3.22,2.605,5.254c0,2.518-0.854,4.538-2.561,6.065s-3.668,2.29-5.883,2.29
		c-2.217,0-4.178-0.763-5.885-2.29S103.389,115.385,103.389,112.867z"/>
	<path fill="#878787" d="M118.122,141.165c0-2.215,0.764-4.178,2.29-5.884c1.529-1.707,3.551-2.561,6.065-2.561h17.874
		c2.518,0,4.538,0.84,6.065,2.515c1.525,1.679,2.29,3.654,2.29,5.93c0,2.635-0.734,4.702-2.202,6.198
		c-1.465,1.497-3.518,2.246-6.153,2.246h-17.874c-2.574,0-4.613-0.749-6.109-2.246C118.871,145.867,118.122,143.8,118.122,141.165z"
		/>
	<path fill="#878787" d="M126.477,112.867c0-2.034,0.869-3.786,2.605-5.254c1.734-1.467,3.68-2.199,5.838-2.199h29.375
		c2.093,0,3.832,0.718,5.21,2.155c1.377,1.437,2.064,3.204,2.064,5.298c0,2.576-0.672,4.614-2.019,6.109
		c-1.349,1.499-3.099,2.246-5.256,2.246H134.92c-2.217,0-4.176-0.763-5.885-2.29C127.331,117.406,126.477,115.385,126.477,112.867z"
		/>
	<path fill="#878787" d="M130.701,84.393c0-2.096,0.881-4.026,2.646-5.794c1.768-1.766,3.7-2.65,5.796-2.65h18.776
		c2.034,0,3.771,0.868,5.207,2.605c1.438,1.737,2.155,3.684,2.155,5.839c0,2.576-0.688,4.626-2.064,6.153
		c-1.378,1.527-3.146,2.29-5.298,2.29h-18.776c-2.217,0-4.176-0.777-5.884-2.335C131.553,88.946,130.701,86.908,130.701,84.393z"/>
	<path fill="#878787" d="M156.929,56.186c0-2.096,0.703-3.846,2.111-5.255c1.406-1.405,3.156-2.11,5.255-2.11
		c2.573,0,4.626,0.688,6.153,2.065c1.527,1.379,2.289,3.144,2.289,5.3c0,2.576-0.762,4.627-2.289,6.153
		c-1.527,1.527-3.58,2.291-6.153,2.291c-2.156,0-3.924-0.764-5.301-2.291C157.617,60.813,156.929,58.762,156.929,56.186z"/>
</g>
</svg>
