<?xml version="1.0" encoding="utf-8"?>
<!-- Generator: Adobe Illustrator 16.0.0, SVG Export Plug-In . SVG Version: 6.00 Build 0)  -->
<!DOCTYPE svg PUBLIC "-//W3C//DTD SVG 1.1//EN" "http://www.w3.org/Graphics/SVG/1.1/DTD/svg11.dtd">
<svg version="1.1" id="Icons" xmlns="http://www.w3.org/2000/svg" xmlns:xlink="http://www.w3.org/1999/xlink" x="0px" y="0px"
	 width="32px" height="32px" viewBox="0 0 198.425 198.43" enable-background="new 0 0 198.425 198.43"
	 xml:space="preserve">
<path fill="#B6BBBF" d="M140.481,49.513c-1.312,0-2.61,0.068-3.894,0.188c-9.119-10.279-22.418-16.766-37.237-16.766
	c-24.884,0-45.501,18.265-49.182,42.118c-1.52-0.248-3.078-0.381-4.667-0.381c-16.125,0-29.165,13.206-28.895,29.393
	c0.265,15.848,13.522,28.405,29.371,28.405h36.601c1.332,0,2.566-0.698,3.252-1.84l0,0c1.518-2.528-0.303-5.746-3.252-5.746H45.925
	c-11.925,0-21.938-9.758-21.735-21.682c0.197-11.584,9.681-20.945,21.311-20.945c1.137,0,2.297,0.095,3.451,0.282l7.547,1.226
	l1.166-7.557c1.518-9.84,6.528-18.868,14.104-25.424c7.651-6.619,17.447-10.266,27.579-10.266c12.048,0,23.552,5.181,31.562,14.213
	l2.553,2.875l3.826-0.355c1.121-0.104,2.166-0.155,3.191-0.155c18.863,0,34.18,15.491,33.891,34.421
	c-0.283,18.599-15.805,33.367-34.404,33.367h-20.52c-1.332,0-2.566,0.698-3.252,1.841l0,0c-1.52,2.527,0.303,5.744,3.252,5.744
	h20.416c22.797,0,41.799-18.134,42.094-40.929C182.257,68.382,163.574,49.513,140.481,49.513z"/>
<path fill="#FF9838" d="M115.192,150.771c-0.674-1.188-1.935-1.924-3.302-1.924H93.323l21.77-36.244
	c1.078-1.795,0.496-4.125-1.299-5.203c-1.795-1.079-4.125-0.498-5.205,1.299L83.37,150.686c-1.077,1.797-0.496,4.127,1.299,5.205
	c0.518,0.312,1.076,0.477,1.64,0.521c0.005,0,0.009,0,0.013,0.001c0.099,0.008,0.199,0.02,0.297,0.02
	c0.015,0,0.027-0.003,0.041-0.003c0.014,0,0.027,0.003,0.039,0.003h18.492l-21.769,36.242c-1.079,1.795-0.498,4.125,1.298,5.204
	c0.611,0.367,1.284,0.541,1.949,0.541c1.288,0,2.543-0.656,3.255-1.841l25.218-41.987
	C115.845,153.42,115.865,151.96,115.192,150.771z"/>
<path fill="#878787" d="M144.065,198.43c-2.925,0-5.403-0.476-7.373-1.414c-1.976-0.939-2.978-2.305-2.978-4.052
	c0-0.753,0.246-1.396,0.73-1.909c0.484-0.513,1.086-0.771,1.789-0.771c1.291,0,2.15,0.667,2.559,1.983
	c1.31,0.664,3.082,1.002,5.271,1.002c2.51,0,4.322-0.338,5.393-1.002c0.404-1.315,1.266-1.983,2.559-1.983
	c0.703,0,1.318,0.272,1.83,0.813c0.513,0.537,0.771,1.165,0.771,1.866c0,1.748-1.021,3.11-3.037,4.052
	C149.569,197.954,147.041,198.43,144.065,198.43z M143.015,188.623c-3.752,0-6.911-0.577-9.391-1.716
	c-2.484-1.144-3.744-2.743-3.744-4.761c0-1.641,0.816-3.017,2.431-4.092c0.444-0.283,0.907-0.419,1.396-0.419
	c0.174,0,0.354,0.019,0.545,0.056c0.678,0.134,1.244,0.502,1.678,1.096c0.326,0.465,0.467,1.033,0.428,1.706
	c-0.041,0.668-0.273,1.222-0.693,1.647c1.867,0.85,4.344,1.278,7.354,1.278c1.872,0,3.567-0.185,5.04-0.545
	c1.467-0.358,2.479-0.757,3.014-1.181c0.139-0.627,0.441-1.143,0.932-1.577c0.492-0.435,1.051-0.651,1.668-0.651
	c0.756,0,1.385,0.26,1.869,0.771c0.486,0.513,0.732,1.154,0.732,1.908c0,2.018-1.268,3.616-3.764,4.76
	C150.014,188.046,146.822,188.623,143.015,188.623z M147.697,178.494c-7.316,0-12.859-1.291-16.477-3.838
	c-1.98-1.338-2.995-2.989-2.995-4.897c0-2.17,1.325-4.045,3.94-5.571c-1.998-1.552-3.014-3.384-3.014-5.444
	c0-2.691,1.596-4.911,4.875-6.786c-0.891-1.191-1.322-2.471-1.322-3.908c0-2.423,1.303-4.525,3.98-6.431
	c2.641-1.876,6.139-3.263,10.398-4.119c3.961-0.856,8.447-1.292,13.319-1.292c10.341,0,18.302,1.807,23.66,5.37
	c2.778,1.909,4.123,4.022,4.123,6.472c0,3.78-3.177,6.826-9.438,9.051c0.156,0.588,0.236,1.143,0.236,1.646
	c0,2.067-1.102,3.928-3.273,5.522c-2.168,1.592-5.19,2.873-8.983,3.812c0.209,0.562,0.315,1.127,0.315,1.683
	c0,1.854-0.953,3.488-2.834,4.857c-1.873,1.365-4.332,2.386-7.311,3.029C154.082,178.21,150.99,178.494,147.697,178.494z
	 M133.429,169.756c0.24,0.42,0.812,0.834,1.703,1.229c1.174,0.605,2.902,1.129,5.203,1.582c2.312,0.453,4.787,0.685,7.359,0.685
	c2.574,0,5.043-0.229,7.342-0.685c2.332-0.463,4.008-0.978,5.119-1.572c1.117-0.594,1.553-1.062,1.723-1.354l-0.709-0.63
	c-2.11,0.294-4.498,0.442-7.098,0.442c-5.922,0-11.176-0.746-15.617-2.219l-0.315,0.156l-0.103,0.029
	c-0.932,0.266-1.785,0.58-2.539,0.939c-0.785,0.373-1.289,0.671-1.535,0.91C133.729,169.475,133.501,169.664,133.429,169.756z
	 M138.617,155.573c-1.912,0.771-3.222,1.579-3.892,2.399c-0.283,0.317-0.41,0.562-0.41,0.769c0,0.155,0,0.631,0.742,1.224
	c1.118,1.021,3.262,1.957,6.428,2.835c3.324,0.992,7.554,1.492,12.587,1.492c5.004,0,9.225-0.502,12.547-1.492
	c3.055-0.885,5.168-1.833,6.289-2.821c0.51-0.43,0.76-0.841,0.76-1.235v-0.222c-4.117,0.854-8.578,1.287-13.258,1.287
	C151.226,159.809,143.893,158.384,138.617,155.573z M160.41,141.367c-5.492,0-10.257,0.583-14.16,1.732
	c-3.666,1.069-6.147,2.194-7.377,3.346c-0.65,0.597-0.963,1.117-0.963,1.602c0,0.168,0,0.68,0.961,1.521
	c1.219,1.189,3.687,2.313,7.379,3.386c3.912,1.151,8.674,1.733,14.16,1.733c5.514,0,10.317-0.584,14.28-1.733
	c3.688-1.097,6.175-2.235,7.377-3.386c0.627-0.572,0.923-1.064,0.923-1.521c0-0.449-0.312-0.988-0.923-1.601
	c-1.194-1.146-3.687-2.274-7.377-3.347C170.731,141.951,165.925,141.367,160.41,141.367z"/>
<g>
	<g id="XMLID_1_">
		<g>
			<path fill="#B6BBBF" d="M174.375,90.987c0,18.69-15.199,33.9-33.89,33.9h-94.98c-11.75,0-21.32-9.569-21.32-21.319
				c0-11.75,9.57-21.311,21.32-21.311c1.13,0,2.3,0.09,3.45,0.28l7.55,1.22l1.16-7.55c1.52-9.84,6.53-18.87,14.11-25.43
				c7.65-6.62,17.44-10.26,27.58-10.26c12.04,0,23.55,5.18,31.56,14.21l2.551,2.88l3.829-0.36c1.12-0.1,2.16-0.15,3.19-0.15
				C159.176,57.097,174.375,72.297,174.375,90.987z"/>
		</g>
		<g>
		</g>
	</g>
</g>
</svg>
