<?xml version="1.0" encoding="UTF-8" standalone="no"?>
<!-- Generator: Adobe Illustrator 16.0.0, SVG Export Plug-In . SVG Version: 6.00 Build 0)  -->

<svg
   xmlns:dc="http://purl.org/dc/elements/1.1/"
   xmlns:cc="http://creativecommons.org/ns#"
   xmlns:rdf="http://www.w3.org/1999/02/22-rdf-syntax-ns#"
   xmlns:svg="http://www.w3.org/2000/svg"
   xmlns="http://www.w3.org/2000/svg"
   xmlns:sodipodi="http://sodipodi.sourceforge.net/DTD/sodipodi-0.dtd"
   xmlns:inkscape="http://www.inkscape.org/namespaces/inkscape"
   version="1.1"
   id="Icons"
   x="0px"
   y="0px"
   width="32px"
   height="32px"
   viewBox="0 0 198.425 198.43"
   enable-background="new 0 0 198.425 198.43"
   xml:space="preserve"
   inkscape:version="0.91 r13725"
   sodipodi:docname="17.svg"><metadata
     id="metadata5967"><rdf:RDF><cc:Work
         rdf:about=""><dc:format>image/svg+xml</dc:format><dc:type
           rdf:resource="http://purl.org/dc/dcmitype/StillImage" /></cc:Work></rdf:RDF></metadata><defs
     id="defs5965" /><sodipodi:namedview
     pagecolor="#ffffff"
     bordercolor="#666666"
     borderopacity="1"
     objecttolerance="10"
     gridtolerance="10"
     guidetolerance="10"
     inkscape:pageopacity="0"
     inkscape:pageshadow="2"
     inkscape:window-width="1600"
     inkscape:window-height="848"
     id="namedview5963"
     showgrid="false"
     inkscape:zoom="14.75"
     inkscape:cx="6.2502682"
     inkscape:cy="16.00111"
     inkscape:window-x="-8"
     inkscape:window-y="-8"
     inkscape:window-maximized="1"
     inkscape:current-layer="Icons" /><g
     id="g5936"><g
       id="XMLID_1_"><g
         id="g5939"><path
           d="m 140.482,49.505 c 22.91,0 41.48,18.58 41.48,41.48 0,22.91 -18.57,41.48 -41.48,41.48 l -94.98,0 c -15.96,0 -28.9,-12.93 -28.9,-28.89 0,-15.96 12.94,-28.9 28.9,-28.9 1.59,0 3.14,0.13 4.66,0.38 3.69,-23.85 24.3,-42.12 49.19,-42.12 14.82,0 28.12,6.49 37.23,16.76 1.291,-0.12 2.59,-0.19 3.9,-0.19 z"
           id="path5943"
           inkscape:connector-curvature="0"
           style="fill:#b6bbbf"
           sodipodi:nodetypes="sssssscscs" /></g><g
         id="g5945" /></g></g><g
     id="g5947"><path
       fill="#45A4F3"
       d="M113.212,181.838c-0.664,0-1.338-0.175-1.948-0.542c-1.796-1.078-2.378-3.408-1.3-5.204l15.26-25.406   c1.078-1.795,3.41-2.377,5.203-1.298c1.797,1.078,2.379,3.408,1.301,5.204l-15.26,25.406   C115.757,181.182,114.5,181.838,113.212,181.838z"
       id="path5949" /></g><g
     id="g5951"><path
       fill="#45A4F3"
       d="M78.449,198.42c-0.664,0-1.336-0.175-1.948-0.542c-1.796-1.078-2.377-3.408-1.3-5.204l25.22-41.988   c1.078-1.795,3.406-2.377,5.203-1.298c1.795,1.078,2.377,3.408,1.299,5.204l-25.22,41.988   C80.994,197.764,79.738,198.42,78.449,198.42z"
       id="path5953" /></g><g
     id="g5955"><path
       fill="#45A4F3"
       d="M63.606,181.838c-0.665,0-1.337-0.175-1.949-0.542c-1.796-1.078-2.377-3.408-1.299-5.204l15.258-25.406   c1.08-1.795,3.41-2.377,5.205-1.298c1.795,1.078,2.377,3.408,1.299,5.204l-15.259,25.406   C66.149,181.182,64.894,181.838,63.606,181.838z"
       id="path5957" /></g><g
     id="g5959"
     transform="matrix(1.6333372,0,0,1.6333372,-95.967913,-106.29438)"><path
       d="m 157.527,155.884 c 1.355,0 2.512,0.255 3.465,0.753 0.939,0.51 1.729,1.189 2.35,2.045 0.619,0.854 1.08,1.864 1.379,3.021 0.291,1.153 0.439,2.354 0.439,3.597 0,1.772 -0.262,3.608 -0.805,5.508 -0.529,1.896 -1.254,3.59 -2.172,5.104 -0.916,1.509 -1.994,2.752 -3.242,3.727 -1.24,0.979 -2.604,1.469 -4.084,1.469 -1.533,0 -2.924,-0.531 -4.174,-1.597 1.959,-1.243 3.244,-2.473 3.861,-3.688 0.623,-1.21 0.936,-2.292 0.936,-3.238 0,-0.829 -0.117,-1.478 -0.354,-1.951 -1.898,-0.06 -3.308,-0.709 -4.219,-1.95 -0.916,-1.246 -1.371,-2.697 -1.371,-4.351 0,-1.011 0.178,-2.015 0.526,-3.021 0.356,-1.006 0.858,-1.908 1.509,-2.709 0.651,-0.798 1.483,-1.449 2.489,-1.951 1.01,-0.513 2.168,-0.768 3.467,-0.768 z"
       id="path5961"
       inkscape:connector-curvature="0"
       style="fill:#2b7ec2" /></g></svg>