<?xml version="1.0" encoding="utf-8"?>
<!-- Generator: Adobe Illustrator 16.0.0, SVG Export Plug-In . SVG Version: 6.00 Build 0)  -->
<!DOCTYPE svg PUBLIC "-//W3C//DTD SVG 1.1//EN" "http://www.w3.org/Graphics/SVG/1.1/DTD/svg11.dtd">
<svg version="1.1" id="Icons" xmlns="http://www.w3.org/2000/svg" xmlns:xlink="http://www.w3.org/1999/xlink" x="0px" y="0px"
	 width="32px" height="32px" viewBox="0 0 198.425 198.43" enable-background="new 0 0 198.425 198.43"
	 xml:space="preserve">
<g>
	<g>
		<g>
			<path fill="#FF9838" d="M99.209,33.754c-2.095,0-3.793-1.698-3.793-3.792V3.793C95.416,1.699,97.114,0,99.209,0
				c2.093,0,3.792,1.699,3.792,3.793v26.169C103.001,32.057,101.302,33.754,99.209,33.754z"/>
		</g>
		<g>
			<path fill="#FF9838" d="M99.209,198.417c-2.095,0-3.793-1.697-3.793-3.792v-25.537c0-2.094,1.698-3.792,3.793-3.792
				c2.093,0,3.792,1.698,3.792,3.792v25.537C103.001,196.72,101.302,198.417,99.209,198.417z"/>
		</g>
	</g>
	<g>
		<g>
			<path fill="#FF9838" d="M50.243,54.036c-0.971,0-1.941-0.369-2.682-1.11L29.057,34.422c-1.481-1.481-1.481-3.883,0-5.363
				c1.481-1.48,3.883-1.481,5.364,0l18.503,18.504c1.481,1.481,1.481,3.883,0,5.363C52.184,53.666,51.214,54.036,50.243,54.036z"/>
		</g>
		<g>
			<path fill="#FF9838" d="M166.677,170.471c-0.971,0-1.939-0.37-2.682-1.11l-18.057-18.058c-1.48-1.481-1.48-3.883,0-5.363
				c1.479-1.48,3.883-1.48,5.361,0l18.059,18.059c1.48,1.479,1.48,3.882,0,5.362C168.619,170.101,167.648,170.471,166.677,170.471z"
				/>
		</g>
	</g>
	<g>
		<g>
			<path fill="#FF9838" d="M29.961,103.001H3.792c-2.094,0-3.792-1.697-3.792-3.792s1.699-3.793,3.792-3.793H29.96
				c2.094,0,3.793,1.698,3.793,3.793S32.056,103.001,29.961,103.001z"/>
		</g>
		<g>
			<path fill="#FF9838" d="M194.625,103.001h-25.537c-2.094,0-3.793-1.697-3.793-3.792s1.699-3.793,3.793-3.793h25.537
				c2.094,0,3.793,1.698,3.793,3.793S196.718,103.001,194.625,103.001z"/>
		</g>
	</g>
	<g>
		<g>
			<path fill="#FF9838" d="M31.739,170.471c-0.971,0-1.941-0.37-2.682-1.11c-1.481-1.48-1.481-3.883,0-5.362l18.504-18.505
				c1.481-1.48,3.882-1.48,5.363,0s1.481,3.883,0,5.362L34.42,169.361C33.681,170.101,32.71,170.471,31.739,170.471z"/>
		</g>
		<g>
			<path fill="#FF9838" d="M148.621,53.589c-0.971,0-1.941-0.37-2.682-1.11c-1.48-1.48-1.48-3.883,0-5.362l18.057-18.059
				c1.482-1.48,3.883-1.48,5.363,0c1.48,1.481,1.48,3.883,0,5.363l-18.057,18.057C150.562,53.219,149.591,53.589,148.621,53.589z"/>
		</g>
	</g>
	<g>
		<path fill="#FF9838" d="M99.388,49.438c27.645,0,50.135,22.49,50.135,50.136c0,27.645-22.49,50.135-50.135,50.135
			c-27.645,0-50.135-22.49-50.135-50.135C49.253,71.928,71.743,49.438,99.388,49.438 M99.388,41.853
			c-31.877,0-57.72,25.843-57.72,57.721s25.842,57.721,57.72,57.721c31.877,0,57.719-25.843,57.719-57.721
			C157.109,67.695,131.267,41.853,99.388,41.853L99.388,41.853z"/>
	</g>
</g>
</svg>
