<?xml version="1.0" encoding="utf-8"?>
<!-- Generator: Adobe Illustrator 16.0.0, SVG Export Plug-In . SVG Version: 6.00 Build 0)  -->
<!DOCTYPE svg PUBLIC "-//W3C//DTD SVG 1.1//EN" "http://www.w3.org/Graphics/SVG/1.1/DTD/svg11.dtd">
<svg version="1.1" id="Icons" xmlns="http://www.w3.org/2000/svg" xmlns:xlink="http://www.w3.org/1999/xlink" x="0px" y="0px"
	 width="32px" height="32px" viewBox="0 0 198.425 198.43" enable-background="new 0 0 198.425 198.43"
	 xml:space="preserve">
<g>
	<g>
		<path fill="#878787" d="M194.238,77.651H4.186c-2.094,0-3.792-1.698-3.792-3.795c0-2.095,1.698-3.792,3.792-3.792h190.052
			c2.094,0,3.793,1.697,3.793,3.792C198.031,75.952,196.333,77.651,194.238,77.651z"/>
	</g>
	<g>
		<path fill="#878787" d="M194.238,103.008H4.186c-2.094,0-3.792-1.697-3.792-3.792c0-2.095,1.698-3.793,3.792-3.793h190.052
			c2.094,0,3.793,1.698,3.793,3.793C198.031,101.311,196.333,103.008,194.238,103.008z"/>
	</g>
	<g>
		<path fill="#878787" d="M194.238,128.365H4.186c-2.094,0-3.792-1.697-3.792-3.793c0-2.094,1.698-3.793,3.792-3.793h190.052
			c2.094,0,3.793,1.699,3.793,3.793S196.333,128.365,194.238,128.365z"/>
	</g>
</g>
</svg>
