<?xml version="1.0" encoding="UTF-8" standalone="no"?>
<!-- Generator: Adobe Illustrator 16.0.0, SVG Export Plug-In . SVG Version: 6.00 Build 0)  -->

<svg
   xmlns:dc="http://purl.org/dc/elements/1.1/"
   xmlns:cc="http://creativecommons.org/ns#"
   xmlns:rdf="http://www.w3.org/1999/02/22-rdf-syntax-ns#"
   xmlns:svg="http://www.w3.org/2000/svg"
   xmlns="http://www.w3.org/2000/svg"
   xmlns:sodipodi="http://sodipodi.sourceforge.net/DTD/sodipodi-0.dtd"
   xmlns:inkscape="http://www.inkscape.org/namespaces/inkscape"
   version="1.1"
   id="Icons"
   x="0px"
   y="0px"
   width="32px"
   height="32px"
   viewBox="0 0 198.425 198.43"
   enable-background="new 0 0 198.425 198.43"
   xml:space="preserve"
   inkscape:version="0.91 r13725"
   sodipodi:docname="3.svg"><metadata
     id="metadata7145"><rdf:RDF><cc:Work
         rdf:about=""><dc:format>image/svg+xml</dc:format><dc:type
           rdf:resource="http://purl.org/dc/dcmitype/StillImage" /></cc:Work></rdf:RDF></metadata><defs
     id="defs7143" /><sodipodi:namedview
     pagecolor="#ffffff"
     bordercolor="#666666"
     borderopacity="1"
     objecttolerance="10"
     gridtolerance="10"
     guidetolerance="10"
     inkscape:pageopacity="0"
     inkscape:pageshadow="2"
     inkscape:window-width="1600"
     inkscape:window-height="848"
     id="namedview7141"
     showgrid="false"
     inkscape:zoom="29.5"
     inkscape:cx="21.995478"
     inkscape:cy="15.761"
     inkscape:window-x="-8"
     inkscape:window-y="-8"
     inkscape:window-maximized="1"
     inkscape:current-layer="Icons" /><g
     id="g7106"><g
       id="g7108"><path
         fill="#FF9838"
         d="M99.209,33.711c-2.095,0-3.793-1.698-3.793-3.792V3.75c0-2.094,1.698-3.793,3.793-3.793    c2.093,0,3.792,1.699,3.792,3.793v26.169C103.001,32.014,101.302,33.711,99.209,33.711z"
         id="path7110" /></g><g
       id="g7112"><path
         fill="#FF9838"
         d="M50.243,53.993c-0.971,0-1.941-0.37-2.682-1.11L29.057,34.379c-1.481-1.481-1.481-3.883,0-5.363    s3.883-1.48,5.364,0L52.925,47.52c1.481,1.481,1.481,3.883,0,5.363C52.185,53.623,51.214,53.993,50.243,53.993z"
         id="path7114" /></g><g
       id="g7116"><path
         fill="#FF9838"
         d="M29.961,102.958H3.792c-2.094,0-3.792-1.697-3.792-3.792c0-2.096,1.699-3.793,3.792-3.793H29.96    c2.094,0,3.793,1.697,3.793,3.793C33.753,101.261,32.056,102.958,29.961,102.958z"
         id="path7118" /></g><g
       id="g7120"><path
         fill="#FF9838"
         d="M31.739,170.428c-0.971,0-1.941-0.369-2.682-1.109c-1.481-1.48-1.481-3.883,0-5.362l18.504-18.505    c1.481-1.48,3.883-1.48,5.363,0c1.481,1.48,1.481,3.883,0,5.361L34.42,169.318C33.681,170.059,32.71,170.428,31.739,170.428z"
         id="path7122" /></g><g
       id="g7124"><path
         fill="#FF9838"
         d="M148.621,53.546c-0.971,0-1.94-0.37-2.682-1.11c-1.48-1.48-1.48-3.883,0-5.362l18.057-18.059    c1.48-1.48,3.883-1.48,5.363,0c1.48,1.481,1.48,3.883,0,5.363l-18.057,18.057C150.562,53.176,149.591,53.546,148.621,53.546z"
         id="path7126" /></g><path
       fill="#FF9838"
       d="M69.861,142.263c0-0.729,0.044-1.452,0.124-2.163c-12.55-9.119-20.732-23.903-20.732-40.569   c0-27.646,22.49-50.135,50.135-50.135c25.702,0,46.936,19.444,49.794,44.395c2.87,1.527,5.538,3.45,7.924,5.725   c-0.011-31.87-25.849-57.703-57.718-57.703c-31.877,0-57.721,25.843-57.721,57.721c0,21.771,12.055,40.725,29.854,50.556   C70.457,147.691,69.861,145.046,69.861,142.263z"
       id="path7128" /></g><g
     id="g7130"><g
       id="XMLID_1_"><g
         id="g7133"><path
           d="m 165.172,99.015 c 18.33,0 33.19,14.851 33.19,33.181 0,18.329 -14.86,33.189 -33.19,33.189 l -75.98,0 c -12.77,0 -23.12,-10.36 -23.12,-23.12 0,-12.77 10.35,-23.12 23.12,-23.12 1.27,0 2.51,0.11 3.73,0.301 2.94,-19.08 19.44,-33.69 39.34,-33.69 11.86,0 22.5,5.19 29.79,13.41 1.031,-0.101 2.071,-0.151 3.12,-0.151 z"
           id="path7137"
           inkscape:connector-curvature="0"
           style="fill:#b6bbbf"
           sodipodi:nodetypes="sssssscscs" /></g><g
         id="g7139" /></g></g></svg>