<?xml version="1.0" encoding="utf-8"?>
<!-- Generator: Adobe Illustrator 16.0.0, SVG Export Plug-In . SVG Version: 6.00 Build 0)  -->
<!DOCTYPE svg PUBLIC "-//W3C//DTD SVG 1.1//EN" "http://www.w3.org/Graphics/SVG/1.1/DTD/svg11.dtd">
<svg version="1.1" id="Icons" xmlns="http://www.w3.org/2000/svg" xmlns:xlink="http://www.w3.org/1999/xlink" x="0px" y="0px"
	 width="32px" height="32px" viewBox="0 0 198.425 198.43" enable-background="new 0 0 198.425 198.43"
	 xml:space="preserve">
<path fill="#878787" d="M18.798,91.211c-1.184,0-2.134-0.399-2.99-1.256c-0.97-0.906-1.395-1.795-1.395-2.855
	c0-1.223,0.406-2.19,1.276-3.045c0.883-0.867,1.87-1.271,3.108-1.271H165.43c2.711,0,5.034-0.935,6.906-2.778
	c1.882-1.852,2.837-4.173,2.837-6.897c0-2.708-0.946-5.042-2.812-6.939c-1.875-1.906-4.207-2.873-6.931-2.873
	c-2.677,0-4.946,0.984-6.748,2.925c-0.85,0.765-1.802,1.122-2.991,1.122c-1.257,0-2.232-0.37-3.07-1.163
	c-0.804-0.759-1.178-1.695-1.178-2.948c0-1.415,0.393-2.426,1.235-3.181l0.09-0.085c3.476-3.476,7.617-5.166,12.662-5.166
	c5.143,0,9.435,1.762,13.121,5.385c3.674,3.614,5.46,7.84,5.46,12.922c0,5.031-1.783,9.21-5.451,12.778
	c-3.687,3.583-7.981,5.325-13.13,5.325H18.798z"/>
<path fill="#878787" d="M126.269,143.334c-4.87,0-9.04-1.762-12.748-5.389c-0.961-0.867-1.376-1.791-1.376-2.975
	c0-1.119,0.401-2.029,1.263-2.861c0.883-0.852,1.876-1.248,3.122-1.248c1.103,0,1.97,0.379,2.729,1.195
	c1.907,1.912,4.246,2.852,7.011,2.852c2.748,0,5.09-0.92,6.961-2.73c1.892-1.832,2.851-4.146,2.851-6.877
	c0-2.76-0.961-5.121-2.857-7.02c-1.899-1.898-4.238-2.859-6.954-2.859H18.798c-1.211,0-2.127-0.406-2.881-1.275l-0.092-0.107
	l-0.104-0.094c-0.892-0.803-1.308-1.705-1.308-2.84c0-1.225,0.406-2.191,1.276-3.047c0.883-0.867,1.871-1.271,3.108-1.271h107.471
	c5.089,0,9.354,1.791,13.039,5.475c3.683,3.686,5.474,7.951,5.474,13.039c0,5.074-1.771,9.252-5.412,12.771
	C135.706,141.614,131.42,143.334,126.269,143.334z"/>
<path fill="#B6BBBF" d="M25.452,133.36c1.188-1.211,2.605-1.816,4.252-1.816c1.737,0,3.234,0.605,4.492,1.816
	c1.257,1.213,1.886,2.664,1.886,4.355c0,1.738-0.617,3.178-1.852,4.32c-1.234,1.145-2.743,1.715-4.526,1.715
	c-1.646,0-3.063-0.594-4.252-1.783c-1.189-1.098-1.783-2.514-1.783-4.252C23.668,136.024,24.262,134.573,25.452,133.36z"/>
<path fill="#B6BBBF" d="M32.378,60.73c1.188-1.211,2.606-1.817,4.252-1.817c1.737,0,3.224,0.606,4.458,1.817
	c1.234,1.212,1.852,2.664,1.852,4.355c0,1.738-0.606,3.178-1.817,4.321c-1.212,1.144-2.709,1.715-4.492,1.715
	c-1.646,0-3.063-0.594-4.252-1.783c-1.189-1.098-1.783-2.515-1.783-4.252C30.595,63.394,31.189,61.942,32.378,60.73z"/>
<path fill="#B6BBBF" d="M54.531,43.858c1.188-1.211,2.606-1.817,4.252-1.817c1.737,0,3.234,0.606,4.492,1.817
	c1.257,1.212,1.887,2.664,1.887,4.355c0,1.738-0.618,3.179-1.853,4.321c-1.234,1.144-2.743,1.715-4.526,1.715
	c-1.646,0-3.063-0.594-4.252-1.783c-1.189-1.097-1.783-2.514-1.783-4.252C52.748,46.522,53.341,45.07,54.531,43.858z"/>
<path fill="#B6BBBF" d="M59.468,126.879c1.737,0,3.234,0.605,4.493,1.816c1.257,1.213,1.886,2.664,1.886,4.355
	c0,1.738-0.617,3.18-1.852,4.32c-1.234,1.145-2.744,1.715-4.527,1.715c-1.601,0-2.995-0.594-4.183-1.783
	c-1.235-1.143-1.853-2.559-1.853-4.252c0-1.691,0.594-3.143,1.783-4.355C56.405,127.485,57.823,126.879,59.468,126.879z"/>
<path fill="#B6BBBF" d="M85.805,56.821c1.188-1.211,2.605-1.817,4.252-1.817c1.737,0,3.233,0.606,4.492,1.817
	c1.257,1.212,1.886,2.664,1.886,4.355c0,1.738-0.617,3.178-1.852,4.321c-1.234,1.144-2.743,1.715-4.526,1.715
	c-1.646,0-3.063-0.594-4.252-1.783c-1.189-1.098-1.783-2.514-1.783-4.252C84.022,59.485,84.616,58.032,85.805,56.821z"/>
<path fill="#B6BBBF" d="M92.389,135.383c1.736,0,3.233,0.607,4.491,1.818s1.887,2.664,1.887,4.354c0,1.738-0.617,3.18-1.853,4.322
	c-1.234,1.143-2.743,1.715-4.525,1.715c-1.602,0-2.995-0.596-4.184-1.783c-1.235-1.143-1.853-2.561-1.853-4.254
	c0-1.689,0.594-3.143,1.783-4.354C89.325,135.99,90.743,135.383,92.389,135.383z"/>
<path fill="#B6BBBF" d="M125.171,53.769c1.737,0,3.234,0.617,4.492,1.852c1.257,1.234,1.886,2.698,1.886,4.389
	c0,1.738-0.617,3.179-1.852,4.321c-1.234,1.144-2.743,1.715-4.526,1.715c-1.601,0-3.018-0.617-4.252-1.852
	c-1.189-1.097-1.783-2.491-1.783-4.184c0-1.691,0.605-3.155,1.817-4.389C122.165,54.386,123.571,53.769,125.171,53.769z"/>
<path fill="#B6BBBF" d="M158.16,107.299c1.188-1.211,2.606-1.818,4.252-1.818c1.737,0,3.224,0.607,4.458,1.818
	c1.235,1.211,1.853,2.664,1.853,4.354c0,1.738-0.606,3.18-1.817,4.322c-1.213,1.143-2.71,1.715-4.493,1.715
	c-1.646,0-3.063-0.594-4.252-1.783c-1.189-1.098-1.783-2.516-1.783-4.254C156.376,109.963,156.97,108.51,158.16,107.299z"/>
</svg>
