<?xml version="1.0" encoding="utf-8"?>
<!-- Generator: Adobe Illustrator 16.0.0, SVG Export Plug-In . SVG Version: 6.00 Build 0)  -->
<!DOCTYPE svg PUBLIC "-//W3C//DTD SVG 1.1//EN" "http://www.w3.org/Graphics/SVG/1.1/DTD/svg11.dtd">
<svg version="1.1" id="Icons" xmlns="http://www.w3.org/2000/svg" xmlns:xlink="http://www.w3.org/1999/xlink" x="0px" y="0px"
	 width="32px" height="32px" viewBox="0 0 198.425 198.43" enable-background="new 0 0 198.425 198.43"
	 xml:space="preserve">
<g>
	<path fill="#878787" d="M149.251,152.643c-2.094,0-3.791-1.698-3.791-3.793c0-11.587-9.428-21.015-21.016-21.015H3.792
		c-2.095,0-3.792-1.697-3.792-3.792s1.698-3.793,3.792-3.793h120.653c15.771,0,28.6,12.83,28.6,28.6
		C153.044,150.945,151.347,152.643,149.251,152.643z"/>
</g>
<g>
	<path fill="#878787" d="M95.422,78.233H3.792C1.698,78.233,0,76.535,0,74.44c0-2.094,1.698-3.793,3.792-3.793h91.63
		c11.587,0,21.015-9.427,21.015-21.015c0-11.587-9.428-21.015-21.015-21.015c-11.587,0-21.015,9.428-21.015,21.015
		c0,2.095-1.698,3.793-3.792,3.793c-2.094,0-3.792-1.698-3.792-3.793c0-15.771,12.831-28.6,28.6-28.6c15.77,0,28.6,12.829,28.6,28.6
		S111.193,78.233,95.422,78.233z"/>
</g>
<g>
	<path fill="#878787" d="M169.99,103.035H53.467c-2.094,0-3.792-1.698-3.792-3.793c0-2.096,1.698-3.792,3.792-3.792H169.99
		c11.586,0,21.014-9.429,21.014-21.016c0-11.588-9.428-21.015-21.014-21.015c-11.588,0-21.016,9.427-21.016,21.015
		c0,2.095-1.697,3.793-3.793,3.793s-3.793-1.698-3.793-3.793c0-15.771,12.83-28.6,28.602-28.6c15.77,0,28.6,12.829,28.6,28.6
		S185.759,103.035,169.99,103.035z"/>
</g>
<path fill="#45A4F3" d="M119.162,180.83l-12.488-7.185l12.465-7.223c1.812-1.051,2.432-3.371,1.381-5.185
	c-1.051-1.812-3.371-2.43-5.184-1.381l-12.467,7.226l-0.023-14.408c-0.002-2.094-1.699-3.787-3.792-3.787c-0.001,0-0.003,0-0.006,0
	c-2.095,0.004-3.79,1.705-3.786,3.801l0.023,14.406l-12.49-7.182c-1.814-1.043-4.135-0.42-5.18,1.396
	c-1.043,1.814-0.418,4.135,1.397,5.178l12.488,7.185l-12.466,7.225c-1.812,1.049-2.432,3.371-1.381,5.185
	c0.705,1.213,1.978,1.891,3.285,1.891c0.646,0,1.301-0.164,1.898-0.512l12.467-7.226l0.023,14.408
	c0.002,2.094,1.699,3.787,3.791,3.787c0.002,0,0.005,0,0.008,0c2.094-0.004,3.79-1.705,3.788-3.799l-0.023-14.408l12.488,7.185
	c0.596,0.342,1.246,0.506,1.887,0.506c1.314,0,2.592-0.685,3.293-1.904C121.603,184.196,120.978,181.875,119.162,180.83z"/>
<path fill="#45A4F3" d="M57.921,174.701l-8.92-5.148l8.92-5.15c1.814-1.047,2.436-3.366,1.388-5.182
	c-1.048-1.814-3.367-2.434-5.181-1.387l-8.92,5.147v-10.301c0-2.094-1.698-3.793-3.792-3.793c-2.094,0-3.792,1.699-3.792,3.793
	v10.301l-8.92-5.149c-1.813-1.047-4.133-0.426-5.181,1.389c-1.048,1.815-0.425,4.133,1.388,5.182l8.919,5.148l-8.919,5.15
	c-1.814,1.047-2.436,3.364-1.388,5.18c0.702,1.217,1.977,1.896,3.288,1.896c0.644,0,1.296-0.164,1.893-0.508l8.92-5.149v10.299
	c0,2.096,1.698,3.793,3.792,3.793c2.094,0,3.792-1.697,3.792-3.793v-10.299l8.92,5.149c0.597,0.344,1.25,0.508,1.893,0.508
	c1.311,0,2.585-0.68,3.288-1.896C60.357,178.069,59.735,175.748,57.921,174.701z"/>
<path fill="#45A4F3" d="M173.517,174.701l-8.92-5.148l8.92-5.15c1.814-1.047,2.436-3.366,1.389-5.182
	c-1.047-1.813-3.367-2.434-5.182-1.387l-8.92,5.147v-10.301c0-2.094-1.697-3.793-3.793-3.793c-2.094,0-3.791,1.699-3.791,3.793
	v10.301l-8.92-5.149c-1.812-1.047-4.133-0.426-5.182,1.389c-1.047,1.815-0.426,4.133,1.389,5.182l8.92,5.148l-8.92,5.15
	c-1.814,1.047-2.436,3.364-1.389,5.18c0.703,1.217,1.979,1.896,3.289,1.896c0.643,0,1.295-0.164,1.893-0.508l8.92-5.149v10.299
	c0,2.096,1.699,3.793,3.793,3.793c2.096,0,3.793-1.697,3.793-3.793v-10.299l8.918,5.149c0.6,0.344,1.25,0.508,1.895,0.508
	c1.311,0,2.586-0.68,3.289-1.896C175.953,178.069,175.332,175.748,173.517,174.701z"/>
</svg>
