<?xml version="1.0" encoding="utf-8"?>
<!-- Generator: Adobe Illustrator 16.0.0, SVG Export Plug-In . SVG Version: 6.00 Build 0)  -->
<!DOCTYPE svg PUBLIC "-//W3C//DTD SVG 1.1//EN" "http://www.w3.org/Graphics/SVG/1.1/DTD/svg11.dtd">
<svg version="1.1" id="Icons" xmlns="http://www.w3.org/2000/svg" xmlns:xlink="http://www.w3.org/1999/xlink" x="0px" y="0px"
	 width="32px" height="32px" viewBox="0 0 198.425 198.43" enable-background="new 0 0 198.425 198.43"
	 xml:space="preserve">
<g>
	<g>
		<path fill="#878787" d="M194.238,77.651H4.186c-2.094,0-3.792-1.698-3.792-3.795c0-2.095,1.698-3.792,3.792-3.792h190.052
			c2.094,0,3.793,1.697,3.793,3.792C198.031,75.952,196.333,77.651,194.238,77.651z"/>
	</g>
	<g>
		<path fill="#878787" d="M194.238,103.008H4.186c-2.094,0-3.792-1.697-3.792-3.792c0-2.095,1.698-3.793,3.792-3.793h190.052
			c2.094,0,3.793,1.698,3.793,3.793C198.031,101.311,196.333,103.008,194.238,103.008z"/>
	</g>
	<g>
		<path fill="#878787" d="M194.238,128.365H4.186c-2.094,0-3.792-1.697-3.792-3.793c0-2.094,1.698-3.793,3.792-3.793h190.052
			c2.094,0,3.793,1.699,3.793,3.793S196.333,128.365,194.238,128.365z"/>
	</g>
</g>
<g>
	<path fill="#2B7EC2" d="M98.17,161.023c-1.559,0-3.318-1.181-3.91-2.623L45.722,40.03c-0.591-1.441,0.2-2.622,1.759-2.622h3.949
		c1.559,0,3.313,1.182,3.898,2.627l42.815,105.753c0.585,1.444,1.541,1.443,2.124-0.001l42.6-105.75
		c0.582-1.446,2.334-2.629,3.895-2.629h4.183c1.56,0,2.351,1.18,1.761,2.622L104.166,158.4c-0.592,1.442-2.352,2.623-3.91,2.623
		H98.17z"/>
</g>
</svg>
