<?xml version="1.0" encoding="utf-8"?>
<!-- Generator: Adobe Illustrator 16.0.0, SVG Export Plug-In . SVG Version: 6.00 Build 0)  -->
<!DOCTYPE svg PUBLIC "-//W3C//DTD SVG 1.1//EN" "http://www.w3.org/Graphics/SVG/1.1/DTD/svg11.dtd">
<svg version="1.1" id="Icons" xmlns="http://www.w3.org/2000/svg" xmlns:xlink="http://www.w3.org/1999/xlink" x="0px" y="0px"
	 width="32px" height="32px" viewBox="0 0 198.425 198.43" enable-background="new 0 0 198.425 198.43"
	 xml:space="preserve">
<g>
	<g id="XMLID_1_">
		<g>
			<path fill="#B6BBBF" d="M140.482,57.105c18.69,0,33.891,15.2,33.891,33.89s-15.2,33.9-33.891,33.9H45.502
				c-11.75,0-21.32-9.569-21.32-21.319c0-11.75,9.57-21.311,21.32-21.311c1.13,0,2.3,0.09,3.45,0.28l7.55,1.22l1.16-7.55
				c1.52-9.84,6.53-18.87,14.11-25.43c7.65-6.62,17.44-10.26,27.58-10.26c12.04,0,23.55,5.18,31.56,14.21l2.55,2.88l3.83-0.36
				C138.413,57.155,139.453,57.105,140.482,57.105z"/>
			<path fill="#B6BBBF" d="M140.482,49.505c22.91,0,41.48,18.58,41.48,41.48c0,22.91-18.57,41.48-41.48,41.48H45.502
				c-15.96,0-28.9-12.93-28.9-28.89c0-15.96,12.94-28.9,28.9-28.9c1.59,0,3.14,0.13,4.66,0.38c3.69-23.85,24.3-42.12,49.19-42.12
				c14.82,0,28.12,6.49,37.23,16.76C137.873,49.575,139.172,49.505,140.482,49.505z M174.373,90.995
				c0-18.69-15.2-33.89-33.891-33.89c-1.029,0-2.069,0.05-3.189,0.15l-3.83,0.36l-2.55-2.88c-8.01-9.03-19.521-14.21-31.56-14.21
				c-10.14,0-19.93,3.64-27.58,10.26c-7.58,6.56-12.59,15.59-14.11,25.43l-1.16,7.55l-7.55-1.22c-1.15-0.19-2.32-0.28-3.45-0.28
				c-11.75,0-21.32,9.56-21.32,21.311c0,11.75,9.57,21.319,21.32,21.319h94.979C159.172,124.895,174.373,109.685,174.373,90.995z"/>
		</g>
		<g>
		</g>
	</g>
</g>
<g>
	<path fill="#45A4F3" d="M113.212,181.838c-0.664,0-1.338-0.175-1.948-0.542c-1.796-1.078-2.378-3.408-1.3-5.204l15.26-25.406
		c1.078-1.795,3.41-2.377,5.203-1.298c1.797,1.078,2.379,3.408,1.301,5.204l-15.26,25.406
		C115.757,181.182,114.5,181.838,113.212,181.838z"/>
</g>
<g>
	<path fill="#45A4F3" d="M78.449,198.42c-0.664,0-1.336-0.175-1.948-0.542c-1.796-1.078-2.377-3.408-1.3-5.204l25.22-41.988
		c1.078-1.795,3.406-2.377,5.203-1.298c1.795,1.078,2.377,3.408,1.299,5.204l-25.22,41.988
		C80.994,197.764,79.738,198.42,78.449,198.42z"/>
</g>
<g>
	<path fill="#45A4F3" d="M63.606,181.838c-0.665,0-1.337-0.175-1.949-0.542c-1.796-1.078-2.377-3.408-1.299-5.204l15.258-25.406
		c1.08-1.795,3.41-2.377,5.205-1.298c1.795,1.078,2.377,3.408,1.299,5.204l-15.259,25.406
		C66.149,181.182,64.894,181.838,63.606,181.838z"/>
</g>
<g>
	<path fill="#2B7EC2" d="M157.527,155.884c1.355,0,2.512,0.255,3.465,0.753c0.939,0.51,1.729,1.189,2.35,2.045
		c0.619,0.854,1.08,1.864,1.379,3.021c0.291,1.153,0.439,2.354,0.439,3.597c0,1.772-0.262,3.608-0.805,5.508
		c-0.529,1.896-1.254,3.59-2.172,5.104c-0.916,1.509-1.994,2.752-3.242,3.727c-1.24,0.979-2.604,1.469-4.084,1.469
		c-1.533,0-2.924-0.531-4.174-1.597c1.959-1.243,3.244-2.473,3.861-3.688c0.623-1.21,0.936-2.292,0.936-3.238
		c0-0.829-0.117-1.478-0.354-1.951c-1.898-0.06-3.308-0.709-4.219-1.95c-0.916-1.246-1.371-2.697-1.371-4.351
		c0-1.011,0.178-2.015,0.526-3.021c0.356-1.006,0.858-1.908,1.509-2.709c0.651-0.798,1.483-1.449,2.489-1.951
		C155.07,156.139,156.228,155.884,157.527,155.884z"/>
</g>
<g>
	<path fill="#2B7EC2" d="M157.313,149.578c-7.696,0-13.944,6.245-13.944,13.943h1.934c0-6.635,5.377-12.009,12.012-12.009
		s12.012,5.374,12.012,12.009h1.934C171.263,155.823,165.021,149.578,157.313,149.578z"/>
	<path fill="#2B7EC2" d="M183.272,177.47c-7.696,0-13.946-6.241-13.946-13.946h1.938c0,6.635,5.373,12.009,12.003,12.009
		c6.635,0,12.012-5.374,12.012-12.009h1.938C197.222,171.229,190.98,177.47,183.272,177.47z"/>
</g>
</svg>
