<?xml version="1.0" encoding="UTF-8" standalone="no"?>
<!-- Generator: Adobe Illustrator 16.0.0, SVG Export Plug-In . SVG Version: 6.00 Build 0)  -->

<svg
   xmlns:dc="http://purl.org/dc/elements/1.1/"
   xmlns:cc="http://creativecommons.org/ns#"
   xmlns:rdf="http://www.w3.org/1999/02/22-rdf-syntax-ns#"
   xmlns:svg="http://www.w3.org/2000/svg"
   xmlns="http://www.w3.org/2000/svg"
   xmlns:sodipodi="http://sodipodi.sourceforge.net/DTD/sodipodi-0.dtd"
   xmlns:inkscape="http://www.inkscape.org/namespaces/inkscape"
   version="1.1"
   id="Icons"
   x="0px"
   y="0px"
   width="32px"
   height="32px"
   viewBox="0 0 198.425 198.43"
   enable-background="new 0 0 198.425 198.43"
   xml:space="preserve"
   inkscape:version="0.91 r13725"
   sodipodi:docname="36.svg"><metadata
     id="metadata7725"><rdf:RDF><cc:Work
         rdf:about=""><dc:format>image/svg+xml</dc:format><dc:type
           rdf:resource="http://purl.org/dc/dcmitype/StillImage" /></cc:Work></rdf:RDF></metadata><defs
     id="defs7723" /><sodipodi:namedview
     pagecolor="#ffffff"
     bordercolor="#666666"
     borderopacity="1"
     objecttolerance="10"
     gridtolerance="10"
     guidetolerance="10"
     inkscape:pageopacity="0"
     inkscape:pageshadow="2"
     inkscape:window-width="1600"
     inkscape:window-height="848"
     id="namedview7721"
     showgrid="false"
     inkscape:zoom="14.75"
     inkscape:cx="13.325284"
     inkscape:cy="16.359048"
     inkscape:window-x="-8"
     inkscape:window-y="-8"
     inkscape:window-maximized="1"
     inkscape:current-layer="Icons" /><g
     id="g7688"><g
       id="XMLID_1_"><g
         id="g7691"><path
           d="m 140.482,49.515 c 22.91,0 41.48,18.57 41.48,41.48 0,22.9 -18.58,41.47 -41.48,41.47 l -94.98,0 c -15.96,0 -28.9,-12.93 -28.9,-28.89 0,-15.96 12.94,-28.9 28.9,-28.9 1.59,0 3.15,0.13 4.67,0.38 3.68,-23.85 24.29,-42.12 49.18,-42.12 14.82,0 28.12,6.49 37.23,16.76 1.291,-0.12 2.59,-0.18 3.9,-0.18 z"
           id="path7695"
           inkscape:connector-curvature="0"
           style="fill:#878787"
           sodipodi:nodetypes="sssssscscs" /></g><g
         id="g7697" /></g></g><g
     id="g7699"><g
       id="g7701"><path
         fill="#45A4F3"
         d="M103.253,198.43c-0.664,0-1.338-0.174-1.948-0.541c-1.795-1.078-2.376-3.408-1.298-5.203l25.22-41.988    c1.078-1.797,3.405-2.379,5.203-1.299c1.796,1.078,2.377,3.408,1.299,5.203l-25.22,41.988    C105.796,197.773,104.542,198.43,103.253,198.43z"
         id="path7703" /></g><g
       id="g7705"><path
         fill="#45A4F3"
         d="M53.647,198.43c-0.665,0-1.337-0.174-1.949-0.541c-1.796-1.078-2.377-3.408-1.298-5.203l25.219-41.988    c1.078-1.797,3.408-2.379,5.203-1.299c1.797,1.078,2.377,3.408,1.299,5.203L56.902,196.59    C56.19,197.773,54.936,198.43,53.647,198.43z"
         id="path7707" /></g><g
       id="g7709"><path
         fill="#45A4F3"
         d="M88.411,181.85c-0.664,0-1.338-0.176-1.949-0.543c-1.796-1.078-2.376-3.408-1.298-5.203l15.259-25.406    c1.078-1.797,3.408-2.379,5.205-1.299c1.795,1.078,2.377,3.408,1.299,5.203l-15.26,25.406    C90.954,181.191,89.698,181.85,88.411,181.85z"
         id="path7711" /></g><g
       id="g7713"><path
         fill="#45A4F3"
         d="M38.802,181.85c-0.665,0-1.338-0.176-1.949-0.543c-1.796-1.078-2.377-3.408-1.299-5.203l15.26-25.406    c1.079-1.797,3.407-2.379,5.204-1.299c1.796,1.078,2.377,3.408,1.298,5.203l-15.259,25.406    C41.346,181.191,40.091,181.85,38.802,181.85z"
         id="path7715" /></g><g
       id="g7717"><path
         fill="#45A4F3"
         d="M138.018,181.85c-0.664,0-1.338-0.176-1.949-0.543c-1.795-1.078-2.375-3.408-1.297-5.203l15.261-25.406    c1.077-1.797,3.405-2.379,5.202-1.299c1.798,1.078,2.378,3.408,1.3,5.203l-15.261,25.406    C140.561,181.191,139.304,181.85,138.018,181.85z"
         id="path7719" /></g></g></svg>