<?xml version="1.0" encoding="utf-8"?>
<!-- Generator: Adobe Illustrator 16.0.0, SVG Export Plug-In . SVG Version: 6.00 Build 0)  -->
<!DOCTYPE svg PUBLIC "-//W3C//DTD SVG 1.1//EN" "http://www.w3.org/Graphics/SVG/1.1/DTD/svg11.dtd">
<svg version="1.1" id="Icons" xmlns="http://www.w3.org/2000/svg" xmlns:xlink="http://www.w3.org/1999/xlink" x="0px" y="0px"
	 width="32px" height="32px" viewBox="0 0 198.425 198.43" enable-background="new 0 0 198.425 198.43"
	 xml:space="preserve">
<g>
	<g id="XMLID_1_">
		<g>
			<path fill="#494949" d="M140.482,57.105c18.69,0,33.891,15.2,33.891,33.89s-15.2,33.9-33.891,33.9H45.502
				c-11.75,0-21.32-9.569-21.32-21.319c0-11.75,9.57-21.311,21.32-21.311c1.14,0,2.3,0.1,3.45,0.28l7.55,1.23l1.16-7.56
				c1.52-9.84,6.53-18.87,14.11-25.42c7.65-6.63,17.44-10.27,27.58-10.27c12.04,0,23.55,5.18,31.56,14.21l2.55,2.88l3.83-0.36
				C138.413,57.155,139.453,57.105,140.482,57.105z"/>
			<path fill="#494949" d="M140.482,49.515c22.91,0,41.48,18.57,41.48,41.48c0,22.9-18.58,41.47-41.48,41.47H45.502
				c-15.96,0-28.9-12.93-28.9-28.89c0-15.96,12.94-28.9,28.9-28.9c1.59,0,3.15,0.13,4.67,0.38c3.68-23.85,24.29-42.12,49.18-42.12
				c14.82,0,28.12,6.49,37.23,16.76C137.873,49.575,139.172,49.515,140.482,49.515z M174.373,90.995
				c0-18.69-15.2-33.89-33.891-33.89c-1.029,0-2.069,0.05-3.189,0.15l-3.83,0.36l-2.55-2.88c-8.01-9.03-19.521-14.21-31.56-14.21
				c-10.14,0-19.93,3.64-27.58,10.27c-7.58,6.55-12.59,15.58-14.11,25.42l-1.16,7.56l-7.55-1.23c-1.15-0.18-2.31-0.28-3.45-0.28
				c-11.75,0-21.32,9.56-21.32,21.311c0,11.75,9.57,21.319,21.32,21.319h94.979C159.172,124.895,174.373,109.685,174.373,90.995z"/>
		</g>
		<g>
		</g>
	</g>
</g>
<g>
	<g>
		<path fill="#45A4F3" d="M103.253,198.43c-0.664,0-1.338-0.174-1.948-0.541c-1.795-1.078-2.376-3.408-1.298-5.203l25.22-41.988
			c1.078-1.797,3.405-2.379,5.203-1.299c1.796,1.078,2.377,3.408,1.299,5.203l-25.22,41.988
			C105.796,197.773,104.542,198.43,103.253,198.43z"/>
	</g>
	<g>
		<path fill="#45A4F3" d="M53.647,198.43c-0.665,0-1.337-0.174-1.949-0.541c-1.796-1.078-2.377-3.408-1.298-5.203l25.219-41.988
			c1.078-1.797,3.408-2.379,5.203-1.299c1.797,1.078,2.377,3.408,1.299,5.203L56.902,196.59
			C56.19,197.773,54.936,198.43,53.647,198.43z"/>
	</g>
	<g>
		<path fill="#45A4F3" d="M88.411,181.85c-0.664,0-1.338-0.176-1.949-0.543c-1.796-1.078-2.376-3.408-1.298-5.203l15.259-25.406
			c1.078-1.797,3.408-2.379,5.205-1.299c1.795,1.078,2.377,3.408,1.299,5.203l-15.26,25.406
			C90.954,181.191,89.698,181.85,88.411,181.85z"/>
	</g>
	<g>
		<path fill="#45A4F3" d="M38.802,181.85c-0.665,0-1.338-0.176-1.949-0.543c-1.796-1.078-2.377-3.408-1.299-5.203l15.26-25.406
			c1.079-1.797,3.407-2.379,5.204-1.299c1.796,1.078,2.377,3.408,1.298,5.203l-15.259,25.406
			C41.346,181.191,40.091,181.85,38.802,181.85z"/>
	</g>
	<g>
		<path fill="#45A4F3" d="M138.018,181.85c-0.664,0-1.338-0.176-1.949-0.543c-1.795-1.078-2.375-3.408-1.297-5.203l15.261-25.406
			c1.077-1.797,3.405-2.379,5.202-1.299c1.798,1.078,2.378,3.408,1.3,5.203l-15.261,25.406
			C140.561,181.191,139.304,181.85,138.018,181.85z"/>
	</g>
</g>
</svg>
