<?xml version="1.0" encoding="UTF-8" standalone="no"?>
<!-- Generator: Adobe Illustrator 16.0.0, SVG Export Plug-In . SVG Version: 6.00 Build 0)  -->

<svg
   xmlns:dc="http://purl.org/dc/elements/1.1/"
   xmlns:cc="http://creativecommons.org/ns#"
   xmlns:rdf="http://www.w3.org/1999/02/22-rdf-syntax-ns#"
   xmlns:svg="http://www.w3.org/2000/svg"
   xmlns="http://www.w3.org/2000/svg"
   xmlns:sodipodi="http://sodipodi.sourceforge.net/DTD/sodipodi-0.dtd"
   xmlns:inkscape="http://www.inkscape.org/namespaces/inkscape"
   version="1.1"
   id="Icons"
   x="0px"
   y="0px"
   width="32px"
   height="32px"
   viewBox="0 0 198.425 198.43"
   enable-background="new 0 0 198.425 198.43"
   xml:space="preserve"
   inkscape:version="0.91 r13725"
   sodipodi:docname="39.svg"><metadata
     id="metadata9445"><rdf:RDF><cc:Work
         rdf:about=""><dc:format>image/svg+xml</dc:format><dc:type
           rdf:resource="http://purl.org/dc/dcmitype/StillImage" /></cc:Work></rdf:RDF></metadata><defs
     id="defs9443" /><sodipodi:namedview
     pagecolor="#ffffff"
     bordercolor="#666666"
     borderopacity="1"
     objecttolerance="10"
     gridtolerance="10"
     guidetolerance="10"
     inkscape:pageopacity="0"
     inkscape:pageshadow="2"
     inkscape:window-width="1600"
     inkscape:window-height="848"
     id="namedview9441"
     showgrid="false"
     inkscape:zoom="20.85965"
     inkscape:cx="19.854729"
     inkscape:cy="13.599721"
     inkscape:window-x="-8"
     inkscape:window-y="-8"
     inkscape:window-maximized="1"
     inkscape:current-layer="Icons" /><g
     id="g9418"><g
       id="XMLID_1_"><g
         id="g9421"><path
           d="m 140.482,49.515 c 22.91,0 41.48,18.57 41.48,41.48 0,22.9 -18.57,41.47 -41.48,41.47 l -94.98,0 c -15.96,0 -28.9,-12.93 -28.9,-28.89 0,-15.96 12.94,-28.9 28.9,-28.9 1.59,0 3.14,0.13 4.66,0.38 3.69,-23.85 24.3,-42.12 49.19,-42.12 14.82,0 28.12,6.49 37.23,16.76 1.291,-0.12 2.59,-0.18 3.9,-0.18 z"
           id="path9425"
           inkscape:connector-curvature="0"
           style="fill:#b6bbbf"
           sodipodi:nodetypes="sssssscscs" /></g><g
         id="g9427" /></g></g><g
     id="g9429"><path
       fill="#45A4F3"
       d="M148.583,180.831l-12.49-7.185l12.467-7.225c1.812-1.051,2.432-3.371,1.381-5.186   c-1.051-1.812-3.369-2.43-5.184-1.379l-12.467,7.226l-0.021-14.408c-0.004-2.094-1.701-3.787-3.793-3.787c-0.002,0-0.006,0-0.008,0   c-2.094,0.005-3.789,1.704-3.785,3.8l0.023,14.409l-12.49-7.185c-1.814-1.044-4.135-0.419-5.18,1.396   c-1.043,1.814-0.418,4.133,1.396,5.178l12.488,7.186l-12.467,7.225c-1.812,1.051-2.43,3.371-1.381,5.185   c0.703,1.214,1.979,1.891,3.285,1.891c0.646,0,1.299-0.163,1.898-0.512l12.467-7.226l0.021,14.408   c0.004,2.094,1.701,3.786,3.793,3.786c0.002,0,0.006,0,0.008,0c2.094-0.004,3.789-1.704,3.785-3.8l-0.023-14.407l12.49,7.186   c0.596,0.343,1.246,0.506,1.887,0.506c1.312,0,2.59-0.685,3.291-1.903C151.025,184.195,150.4,181.876,148.583,180.831z"
       id="path9431" /><g
       id="g9433"><path
         fill="#45A4F3"
         d="M62.066,198.43c-0.665,0-1.337-0.174-1.949-0.541c-1.795-1.078-2.377-3.408-1.299-5.203l25.218-41.988    c1.078-1.795,3.41-2.377,5.203-1.299c1.797,1.078,2.377,3.408,1.3,5.203L65.32,196.589C64.61,197.773,63.354,198.43,62.066,198.43    z"
         id="path9435" /></g><g
       id="g9437"><path
         fill="#45A4F3"
         d="M46.69,181.855c-0.665,0-1.338-0.174-1.95-0.541c-1.795-1.08-2.376-3.409-1.298-5.205l15.26-25.404    c1.078-1.795,3.408-2.377,5.204-1.3c1.795,1.079,2.377,3.409,1.298,5.204l-15.26,25.406    C49.234,181.199,47.979,181.855,46.69,181.855z"
         id="path9439" /></g></g></svg>