<?xml version="1.0" encoding="UTF-8" standalone="no"?>
<!-- Generator: Adobe Illustrator 16.0.0, SVG Export Plug-In . SVG Version: 6.00 Build 0)  -->

<svg
   xmlns:dc="http://purl.org/dc/elements/1.1/"
   xmlns:cc="http://creativecommons.org/ns#"
   xmlns:rdf="http://www.w3.org/1999/02/22-rdf-syntax-ns#"
   xmlns:svg="http://www.w3.org/2000/svg"
   xmlns="http://www.w3.org/2000/svg"
   xmlns:sodipodi="http://sodipodi.sourceforge.net/DTD/sodipodi-0.dtd"
   xmlns:inkscape="http://www.inkscape.org/namespaces/inkscape"
   version="1.1"
   id="Icons"
   x="0px"
   y="0px"
   width="32px"
   height="32px"
   viewBox="0 0 198.425 198.43"
   enable-background="new 0 0 198.425 198.43"
   xml:space="preserve"
   inkscape:version="0.91 r13725"
   sodipodi:docname="4.svg"><metadata
     id="metadata24"><rdf:RDF><cc:Work
         rdf:about=""><dc:format>image/svg+xml</dc:format><dc:type
           rdf:resource="http://purl.org/dc/dcmitype/StillImage" /></cc:Work></rdf:RDF></metadata><defs
     id="defs22" /><sodipodi:namedview
     pagecolor="#ffffff"
     bordercolor="#666666"
     borderopacity="1"
     objecttolerance="10"
     gridtolerance="10"
     guidetolerance="10"
     inkscape:pageopacity="0"
     inkscape:pageshadow="2"
     inkscape:window-width="1600"
     inkscape:window-height="848"
     id="namedview20"
     showgrid="false"
     inkscape:zoom="20.85965"
     inkscape:cx="22.217732"
     inkscape:cy="18.603727"
     inkscape:window-x="-8"
     inkscape:window-y="-8"
     inkscape:window-maximized="1"
     inkscape:current-layer="Icons" /><g
     id="g3"><path
       fill="#FF9838"
       d="M23.118,114.206c0.901,0,1.817,0.077,2.729,0.207c-0.393-1.988-0.709-4.001-0.94-6.037   c-1.087-9.58-0.341-19.224,2.215-28.661c2.556-9.438,6.78-18.14,12.554-25.861c5.967-7.982,13.317-14.53,21.847-19.465   c3.975-2.3,8.123-4.221,12.402-5.747c-7.617,16.443-10.022,34.634-7.194,52.188c2.67,0.04,5.303,0.379,7.86,0.994   c-3.812-20.166,0.104-40.985,10.646-58.285c1.39-2.28-0.309-5.061-2.791-5.061c-0.237,0-0.481,0.025-0.729,0.079   c-8.225,1.764-16.315,4.824-23.99,9.264c-30.649,17.729-45.68,53.6-39.518,87.02C19.776,114.428,21.422,114.206,23.118,114.206z"
       id="path5" /><path
       fill="#FF9838"
       d="M157.712,148.925c-0.027,0-0.059,0.001-0.086,0.001c-0.647,0.016-1.299,0.023-1.946,0.023   c-11.603,0-23.075-2.453-33.632-7.146c-1.705,2.129-3.699,4.016-5.924,5.604c9.854,4.796,20.525,7.771,31.434,8.761   c-3.447,2.933-7.168,5.554-11.129,7.84c-11.379,6.57-24.295,10.043-37.35,10.043c-13,0-25.849-3.397-37.153-9.825   c-5.511-3.136-10.575-6.965-15.095-11.363H36.43c15.905,18.58,39.006,28.772,62.649,28.772c13.987,0,28.159-3.562,41.143-11.058   c7.656-4.422,14.332-9.889,19.957-16.109C162.123,152.318,160.583,148.925,157.712,148.925z"
       id="path7" /></g><g
     id="g9"><g
       id="XMLID_1_"><g
         id="g12"><path
           d="m 99.103,90.285 c 18.33,0 33.18,14.86 33.18,33.18 0,18.33 -14.851,33.19 -33.18,33.19 l -75.98,0 c -12.77,0 -23.12,-10.351 -23.12,-23.12 0,-12.771 10.35,-23.12 23.12,-23.12 1.27,0 2.51,0.109 3.73,0.3 2.94,-19.08 19.44,-33.69 39.34,-33.69 11.86,0 22.5,5.19 29.79,13.41 1.029,-0.1 2.069,-0.15 3.12,-0.15 z"
           id="path16"
           inkscape:connector-curvature="0"
           style="fill:#b6bbbf"
           sodipodi:nodetypes="sssssscscs" /></g><g
         id="g18" /></g></g></svg>