<?xml version="1.0" encoding="UTF-8" standalone="no"?>
<!-- Generator: Adobe Illustrator 16.0.0, SVG Export Plug-In . SVG Version: 6.00 Build 0)  -->

<svg
   xmlns:dc="http://purl.org/dc/elements/1.1/"
   xmlns:cc="http://creativecommons.org/ns#"
   xmlns:rdf="http://www.w3.org/1999/02/22-rdf-syntax-ns#"
   xmlns:svg="http://www.w3.org/2000/svg"
   xmlns="http://www.w3.org/2000/svg"
   xmlns:sodipodi="http://sodipodi.sourceforge.net/DTD/sodipodi-0.dtd"
   xmlns:inkscape="http://www.inkscape.org/namespaces/inkscape"
   version="1.1"
   id="Icons"
   x="0px"
   y="0px"
   width="32px"
   height="32px"
   viewBox="0 0 198.425 198.43"
   enable-background="new 0 0 198.425 198.43"
   xml:space="preserve"
   inkscape:version="0.91 r13725"
   sodipodi:docname="42.svg"><metadata
     id="metadata5966"><rdf:RDF><cc:Work
         rdf:about=""><dc:format>image/svg+xml</dc:format><dc:type
           rdf:resource="http://purl.org/dc/dcmitype/StillImage" /></cc:Work></rdf:RDF></metadata><defs
     id="defs5964" /><sodipodi:namedview
     pagecolor="#ffffff"
     bordercolor="#666666"
     borderopacity="1"
     objecttolerance="10"
     gridtolerance="10"
     guidetolerance="10"
     inkscape:pageopacity="0"
     inkscape:pageshadow="2"
     inkscape:window-width="1600"
     inkscape:window-height="848"
     id="namedview5962"
     showgrid="false"
     inkscape:zoom="20.85965"
     inkscape:cx="14.827417"
     inkscape:cy="14.379412"
     inkscape:window-x="-8"
     inkscape:window-y="-8"
     inkscape:window-maximized="1"
     inkscape:current-layer="Icons" /><g
     id="g5945"><g
       id="XMLID_1_"><g
         id="g5948"><path
           d="m 140.482,49.505 c 22.91,0 41.48,18.58 41.48,41.48 0,22.91 -18.58,41.48 -41.48,41.48 l -94.98,0 c -15.96,0 -28.9,-12.93 -28.9,-28.89 0,-15.96 12.94,-28.9 28.9,-28.9 1.59,0 3.14,0.13 4.66,0.38 3.69,-23.85 24.3,-42.12 49.19,-42.12 14.82,0 28.12,6.49 37.23,16.76 1.291,-0.12 2.59,-0.19 3.9,-0.19 z"
           id="path5952"
           inkscape:connector-curvature="0"
           style="fill:#878787"
           sodipodi:nodetypes="sssssscscs" /></g><g
         id="g5954" /></g></g><g
     id="g5956"><path
       fill="#45A4F3"
       d="M89.288,180.821l-12.489-7.185l12.466-7.224c1.812-1.052,2.431-3.371,1.38-5.185   c-1.05-1.812-3.371-2.432-5.184-1.381l-12.467,7.227l-0.022-14.408c-0.003-2.095-1.7-3.787-3.793-3.787c-0.001,0-0.003,0-0.006,0   c-2.094,0.004-3.791,1.704-3.787,3.8l0.023,14.407l-12.49-7.186c-1.815-1.043-4.134-0.42-5.179,1.397   c-1.044,1.813-0.419,4.136,1.396,5.179l12.49,7.186l-12.466,7.225c-1.812,1.051-2.431,3.371-1.38,5.184   c0.704,1.215,1.976,1.894,3.285,1.894c0.646,0,1.3-0.165,1.898-0.513l12.466-7.225l0.023,14.407c0.003,2.093,1.7,3.786,3.792,3.786   c0.002,0,0.004,0,0.006,0c2.094-0.003,3.79-1.704,3.787-3.799l-0.023-14.408l12.489,7.184c0.596,0.345,1.246,0.506,1.888,0.506   c1.313,0,2.591-0.683,3.292-1.9C91.728,184.186,91.103,181.865,89.288,180.821z"
       id="path5958" /><path
       fill="#45A4F3"
       d="M149.287,180.821l-12.488-7.185l12.467-7.224c1.812-1.052,2.432-3.371,1.38-5.185   c-1.05-1.812-3.371-2.432-5.185-1.381l-12.467,7.227l-0.021-14.408c-0.004-2.095-1.7-3.787-3.793-3.787c-0.002,0-0.004,0-0.006,0   c-2.096,0.004-3.791,1.704-3.787,3.8l0.023,14.407l-12.49-7.186c-1.813-1.043-4.135-0.42-5.18,1.397   c-1.043,1.813-0.418,4.136,1.396,5.179l12.49,7.186l-12.467,7.225c-1.812,1.051-2.433,3.371-1.382,5.184   c0.705,1.215,1.978,1.894,3.285,1.894c0.646,0,1.302-0.165,1.897-0.513l12.467-7.225l0.023,14.407   c0.004,2.093,1.699,3.786,3.791,3.786c0.004,0,0.006,0,0.008,0c2.094-0.003,3.789-1.704,3.785-3.799l-0.021-14.408l12.488,7.184   c0.597,0.345,1.246,0.506,1.889,0.506c1.312,0,2.591-0.683,3.292-1.9C151.728,184.186,151.103,181.865,149.287,180.821z"
       id="path5960" /></g></svg>