<?xml version="1.0" encoding="UTF-8" standalone="no"?>
<!-- Generator: Adobe Illustrator 16.0.0, SVG Export Plug-In . SVG Version: 6.00 Build 0)  -->

<svg
   xmlns:dc="http://purl.org/dc/elements/1.1/"
   xmlns:cc="http://creativecommons.org/ns#"
   xmlns:rdf="http://www.w3.org/1999/02/22-rdf-syntax-ns#"
   xmlns:svg="http://www.w3.org/2000/svg"
   xmlns="http://www.w3.org/2000/svg"
   xmlns:sodipodi="http://sodipodi.sourceforge.net/DTD/sodipodi-0.dtd"
   xmlns:inkscape="http://www.inkscape.org/namespaces/inkscape"
   version="1.1"
   id="Icons"
   x="0px"
   y="0px"
   width="32px"
   height="32px"
   viewBox="0 0 198.425 198.43"
   enable-background="new 0 0 198.425 198.43"
   xml:space="preserve"
   inkscape:version="0.91 r13725"
   sodipodi:docname="43.svg"><metadata
     id="metadata8854"><rdf:RDF><cc:Work
         rdf:about=""><dc:format>image/svg+xml</dc:format><dc:type
           rdf:resource="http://purl.org/dc/dcmitype/StillImage" /></cc:Work></rdf:RDF></metadata><defs
     id="defs8852" /><sodipodi:namedview
     pagecolor="#ffffff"
     bordercolor="#666666"
     borderopacity="1"
     objecttolerance="10"
     gridtolerance="10"
     guidetolerance="10"
     inkscape:pageopacity="0"
     inkscape:pageshadow="2"
     inkscape:window-width="1600"
     inkscape:window-height="848"
     id="namedview8850"
     showgrid="false"
     inkscape:zoom="20.85965"
     inkscape:cx="17.43552"
     inkscape:cy="18.185316"
     inkscape:window-x="-8"
     inkscape:window-y="-8"
     inkscape:window-maximized="1"
     inkscape:current-layer="Icons" /><g
     id="g8817"><g
       id="g8819"><path
         fill="#FF9838"
         d="M57.935,24.565c-2.094,0-3.792-1.698-3.792-3.793V3.575c0-2.095,1.698-3.792,3.792-3.792    s3.793,1.696,3.793,3.792V20.77C61.728,22.866,60.03,24.565,57.935,24.565z"
         id="path8821" /></g><g
       id="g8823"><path
         fill="#FF9838"
         d="M31.908,35.345c-0.971,0-1.941-0.369-2.682-1.11l-12.158-12.16c-1.481-1.481-1.481-3.884,0-5.364    s3.882-1.48,5.363,0L34.59,28.87c1.481,1.48,1.481,3.883,0,5.363C33.85,34.975,32.879,35.345,31.908,35.345z"
         id="path8825" /></g><g
       id="g8827"><path
         fill="#FF9838"
         d="M21.127,61.373H3.931c-2.095,0-3.792-1.699-3.792-3.793c0-2.095,1.698-3.793,3.792-3.793h17.196    c2.094,0,3.793,1.698,3.793,3.793C24.92,59.674,23.222,61.373,21.127,61.373z"
         id="path8829" /></g><path
       fill="#FF9838"
       d="M38.654,79.262c2.178-0.619,4.473-0.957,6.847-0.957c1.339,0,2.705,0.111,4.059,0.331l3.773,0.613   l0.105-0.687c-9.616-2.07-16.847-10.636-16.847-20.862c0-11.771,9.575-21.346,21.344-21.346c6.558,0,12.432,2.977,16.35,7.646   c2.168-1.409,4.445-2.624,6.805-3.646c-5.277-7.033-13.684-11.585-23.154-11.585c-15.977,0-28.929,12.953-28.929,28.931   C29.007,66.269,32.735,73.965,38.654,79.262z"
       id="path8831" /></g><g
     id="g8833"><g
       id="XMLID_1_"><g
         id="g8836"><path
           d="m 140.482,49.355 c 22.91,0 41.48,18.57 41.48,41.48 0,22.91 -18.57,41.47 -41.48,41.47 l -94.98,0 c -15.96,0 -28.9,-12.93 -28.9,-28.89 0,-15.96 12.94,-28.9 28.9,-28.9 1.59,0 3.15,0.13 4.67,0.38 3.68,-23.85 24.29,-42.12 49.18,-42.12 14.82,0 28.12,6.49 37.23,16.76 1.291,-0.12 2.59,-0.18 3.9,-0.18 z"
           id="path8840"
           inkscape:connector-curvature="0"
           style="fill:#b6bbbf"
           sodipodi:nodetypes="sssssscscs" /></g><g
         id="g8842" /></g></g><g
     id="g8844"><path
       fill="#45A4F3"
       d="M89.288,180.821l-12.489-7.185l12.466-7.224c1.812-1.052,2.431-3.371,1.38-5.185   c-1.05-1.812-3.371-2.432-5.184-1.381l-12.467,7.227l-0.022-14.408c-0.003-2.095-1.7-3.787-3.793-3.787c-0.001,0-0.003,0-0.006,0   c-2.094,0.004-3.791,1.704-3.787,3.8l0.023,14.407l-12.49-7.186c-1.815-1.043-4.134-0.42-5.179,1.397   c-1.044,1.813-0.419,4.136,1.396,5.179l12.49,7.186l-12.466,7.225c-1.812,1.051-2.431,3.371-1.38,5.184   c0.704,1.215,1.976,1.894,3.285,1.894c0.646,0,1.3-0.165,1.898-0.513l12.466-7.225l0.023,14.407c0.003,2.093,1.7,3.786,3.792,3.786   c0.002,0,0.004,0,0.006,0c2.094-0.003,3.79-1.704,3.787-3.799l-0.023-14.408l12.489,7.184c0.596,0.345,1.246,0.506,1.888,0.506   c1.313,0,2.591-0.683,3.292-1.9C91.729,184.186,91.104,181.865,89.288,180.821z"
       id="path8846" /><path
       fill="#45A4F3"
       d="M149.289,180.821l-12.488-7.185l12.466-7.224c1.812-1.052,2.431-3.371,1.38-5.185   c-1.051-1.812-3.371-2.432-5.184-1.381l-12.467,7.227l-0.022-14.408c-0.003-2.095-1.7-3.787-3.794-3.787c0,0-0.002,0-0.006,0   c-2.094,0.004-3.789,1.704-3.785,3.8l0.023,14.407l-12.49-7.186c-1.814-1.043-4.135-0.42-5.18,1.397   c-1.043,1.813-0.418,4.136,1.396,5.179l12.488,7.186l-12.467,7.225c-1.812,1.051-2.432,3.371-1.381,5.184   c0.705,1.215,1.979,1.894,3.285,1.894c0.646,0,1.301-0.165,1.898-0.513l12.467-7.225l0.023,14.407   c0.002,2.093,1.698,3.786,3.791,3.786c0.002,0,0.004,0,0.008,0c2.094-0.003,3.789-1.704,3.785-3.799l-0.022-14.408l12.489,7.184   c0.596,0.345,1.246,0.506,1.888,0.506c1.313,0,2.591-0.683,3.292-1.9C151.729,184.186,151.104,181.865,149.289,180.821z"
       id="path8848" /></g></svg>