<?xml version="1.0" encoding="UTF-8" standalone="no"?>
<!-- Generator: Adobe Illustrator 16.0.0, SVG Export Plug-In . SVG Version: 6.00 Build 0)  -->

<svg
   xmlns:dc="http://purl.org/dc/elements/1.1/"
   xmlns:cc="http://creativecommons.org/ns#"
   xmlns:rdf="http://www.w3.org/1999/02/22-rdf-syntax-ns#"
   xmlns:svg="http://www.w3.org/2000/svg"
   xmlns="http://www.w3.org/2000/svg"
   xmlns:sodipodi="http://sodipodi.sourceforge.net/DTD/sodipodi-0.dtd"
   xmlns:inkscape="http://www.inkscape.org/namespaces/inkscape"
   version="1.1"
   id="Icons"
   x="0px"
   y="0px"
   width="32px"
   height="32px"
   viewBox="0 0 198.425 198.43"
   enable-background="new 0 0 198.425 198.43"
   xml:space="preserve"
   inkscape:version="0.91 r13725"
   sodipodi:docname="45.svg"><metadata
     id="metadata10584"><rdf:RDF><cc:Work
         rdf:about=""><dc:format>image/svg+xml</dc:format><dc:type
           rdf:resource="http://purl.org/dc/dcmitype/StillImage" /></cc:Work></rdf:RDF></metadata><defs
     id="defs10582" /><sodipodi:namedview
     pagecolor="#ffffff"
     bordercolor="#666666"
     borderopacity="1"
     objecttolerance="10"
     gridtolerance="10"
     guidetolerance="10"
     inkscape:pageopacity="0"
     inkscape:pageshadow="2"
     inkscape:window-width="1600"
     inkscape:window-height="848"
     id="namedview10580"
     showgrid="false"
     inkscape:zoom="29.5"
     inkscape:cx="16.948451"
     inkscape:cy="8.765862"
     inkscape:window-x="-8"
     inkscape:window-y="-8"
     inkscape:window-maximized="1"
     inkscape:current-layer="Icons" /><g
     id="g10563"><g
       id="XMLID_1_"><g
         id="g10566"><path
           d="m 140.482,49.515 c 22.91,0 41.48,18.57 41.48,41.48 0,22.9 -18.57,41.47 -41.48,41.47 l -94.98,0 c -15.96,0 -28.9,-12.93 -28.9,-28.89 0,-15.96 12.94,-28.9 28.9,-28.9 1.59,0 3.14,0.13 4.66,0.38 3.69,-23.85 24.3,-42.12 49.19,-42.12 14.82,0 28.12,6.49 37.23,16.76 1.291,-0.12 2.59,-0.18 3.9,-0.18 z"
           id="path10570"
           inkscape:connector-curvature="0"
           style="fill:#b6bbbf"
           sodipodi:nodetypes="sssssscscs" /></g><g
         id="g10572" /></g></g><path
     fill="#45A4F3"
     d="M119.152,180.832l-12.49-7.186l12.469-7.225c1.812-1.051,2.43-3.371,1.379-5.185  c-1.049-1.812-3.369-2.431-5.184-1.38l-12.467,7.226l-0.021-14.408c-0.004-2.093-1.701-3.786-3.793-3.786c-0.002,0-0.004,0-0.007,0  c-2.094,0.004-3.789,1.703-3.786,3.799l0.022,14.407l-12.49-7.184c-1.814-1.043-4.133-0.419-5.178,1.396  c-1.043,1.815-0.418,4.135,1.397,5.18l12.489,7.185l-12.467,7.226c-1.812,1.05-2.43,3.371-1.379,5.184  c0.703,1.214,1.977,1.892,3.284,1.892c0.646,0,1.3-0.165,1.897-0.512l12.467-7.226l0.023,14.406  c0.004,2.094,1.699,3.787,3.791,3.787c0.002,0,0.004,0,0.006,0c2.095-0.004,3.791-1.703,3.787-3.8l-0.021-14.408l12.488,7.186  c0.596,0.344,1.246,0.507,1.889,0.507c1.312,0,2.59-0.684,3.291-1.902C121.591,184.196,120.966,181.876,119.152,180.832z"
     id="path10574" /><path
     fill="#45A4F3"
     d="M57.91,174.691l-8.919-5.148l8.919-5.148c1.814-1.047,2.436-3.367,1.388-5.182  c-1.046-1.812-3.366-2.436-5.181-1.388l-8.92,5.147v-10.3c0-2.094-1.698-3.792-3.792-3.792c-2.094,0-3.792,1.698-3.792,3.792v10.299  l-8.919-5.146c-1.814-1.048-4.133-0.427-5.181,1.388c-1.046,1.812-0.426,4.134,1.388,5.182l8.919,5.148l-8.919,5.148  c-1.814,1.048-2.436,3.367-1.388,5.182c0.703,1.217,1.979,1.896,3.289,1.896c0.643,0,1.295-0.164,1.892-0.51l8.919-5.148v10.3  c0,2.095,1.698,3.793,3.792,3.793c2.094,0,3.792-1.698,3.792-3.793v-10.302l8.92,5.15c0.597,0.344,1.25,0.51,1.892,0.51  c1.311,0,2.586-0.682,3.289-1.896C60.345,178.059,59.724,175.739,57.91,174.691z"
     id="path10576" /><path
     fill="#45A4F3"
     d="M173.505,174.691l-8.92-5.148l8.92-5.148c1.813-1.047,2.436-3.367,1.389-5.182  c-1.047-1.812-3.367-2.436-5.182-1.388l-8.918,5.147v-10.3c0-2.094-1.699-3.792-3.793-3.792s-3.793,1.698-3.793,3.792v10.3  l-8.92-5.147c-1.814-1.048-4.133-0.427-5.181,1.388c-1.047,1.814-0.428,4.135,1.388,5.182l8.92,5.148l-8.92,5.148  c-1.813,1.048-2.437,3.367-1.388,5.182c0.701,1.217,1.978,1.896,3.287,1.896c0.646,0,1.297-0.164,1.894-0.51l8.92-5.15v10.302  c0,2.095,1.699,3.793,3.793,3.793c2.095,0,3.793-1.698,3.793-3.793v-10.3l8.918,5.148c0.598,0.344,1.25,0.51,1.893,0.51  c1.312,0,2.586-0.682,3.289-1.896C175.941,178.059,175.32,175.739,173.505,174.691z"
     id="path10578" /></svg>