<?xml version="1.0" encoding="utf-8"?>
<!-- Generator: Adobe Illustrator 16.0.0, SVG Export Plug-In . SVG Version: 6.00 Build 0)  -->
<!DOCTYPE svg PUBLIC "-//W3C//DTD SVG 1.1//EN" "http://www.w3.org/Graphics/SVG/1.1/DTD/svg11.dtd">
<svg version="1.1" id="Icons" xmlns="http://www.w3.org/2000/svg" xmlns:xlink="http://www.w3.org/1999/xlink" x="0px" y="0px"
	 width="32px" height="32px" viewBox="0 0 198.425 198.43" enable-background="new 0 0 198.425 198.43"
	 xml:space="preserve">
<g>
	<g id="XMLID_1_">
		<g>
			<path fill="#B6BBBF" d="M140.413,57.105c18.689,0,33.89,15.2,33.89,33.89s-15.2,33.89-33.89,33.89h-94.98
				c-11.75,0-21.31-9.56-21.31-21.31c0-11.75,9.56-21.311,21.31-21.311c1.14,0,2.3,0.09,3.45,0.28l7.55,1.23l1.17-7.56
				c1.51-9.84,6.52-18.87,14.1-25.42c7.65-6.63,17.45-10.27,27.58-10.27c12.05,0,23.55,5.18,31.56,14.21l2.55,2.88l3.83-0.36
				C138.342,57.155,139.382,57.105,140.413,57.105z"/>
			<path fill="#B6BBBF" d="M140.413,49.515c22.91,0,41.479,18.57,41.479,41.48c0,22.9-18.569,41.47-41.479,41.47h-94.98
				c-15.96,0-28.9-12.93-28.9-28.89c0-15.96,12.94-28.9,28.9-28.9c1.59,0,3.15,0.13,4.67,0.38c3.68-23.85,24.3-42.12,49.18-42.12
				c14.82,0,28.121,6.49,37.23,16.76C137.802,49.575,139.102,49.515,140.413,49.515z M174.302,90.995
				c0-18.69-15.2-33.89-33.89-33.89c-1.03,0-2.07,0.05-3.19,0.15l-3.83,0.36l-2.55-2.88c-8.01-9.03-19.51-14.21-31.56-14.21
				c-10.13,0-19.93,3.64-27.58,10.27c-7.58,6.55-12.59,15.58-14.1,25.42l-1.17,7.56l-7.55-1.23c-1.15-0.19-2.31-0.28-3.45-0.28
				c-11.75,0-21.31,9.56-21.31,21.311c0,11.75,9.56,21.31,21.31,21.31h94.98C159.102,124.885,174.302,109.685,174.302,90.995z"/>
		</g>
		<g>
		</g>
	</g>
</g>
<g>
	<g>
		<g>
			<path fill="#45A4F3" d="M91.268,165.357c-0.665,0-1.337-0.176-1.949-0.543c-1.795-1.078-2.377-3.408-1.299-5.205l6.346-10.562
				c1.078-1.796,3.408-2.377,5.203-1.298c1.794,1.078,2.376,3.409,1.298,5.204l-6.345,10.562
				C93.812,164.699,92.556,165.357,91.268,165.357z"/>
		</g>
		<g>
			<circle fill="#45A4F3" cx="82.357" cy="176.406" r="3.949"/>
		</g>
	</g>
	<g>
		<g>
			<path fill="#45A4F3" d="M107.156,180.198c-0.666,0-1.338-0.177-1.949-0.543c-1.795-1.077-2.377-3.408-1.299-5.203l15.262-25.405
				c1.076-1.796,3.406-2.377,5.203-1.299c1.797,1.079,2.377,3.409,1.299,5.204l-15.262,25.405
				C109.699,179.542,108.445,180.198,107.156,180.198z"/>
		</g>
		<g>
			<circle fill="#45A4F3" cx="97.199" cy="192.842" r="3.949"/>
		</g>
	</g>
	<path fill="#45A4F3" d="M147.464,180.165c-0.396,0-0.791-0.071-1.16-0.208h-0.033l-0.209-0.102
		c-0.014-0.006-0.025-0.013-0.039-0.018l-0.207-0.107c-0.93-0.522-1.551-1.448-1.68-2.518l-2.072-17.095
		c-0.156-1.283,0.447-2.558,1.543-3.244l14.562-9.162c0.939-0.592,2.166-0.671,3.176-0.212l0.259,0.13
		c0.929,0.521,1.552,1.444,1.683,2.511l2.112,17.104c0.159,1.289-0.446,2.565-1.548,3.254l-14.604,9.153
		C148.71,179.988,148.095,180.165,147.464,180.165z M148.977,161.422l1.183,9.742l8.32-5.215l-1.205-9.747L148.977,161.422z"/>
	<path fill="#45A4F3" d="M59.634,166.895l-6.803-3.928l6.803-3.927c1.385-0.8,1.859-2.57,1.06-3.953
		c-0.798-1.383-2.568-1.856-3.953-1.06l-6.805,3.929V150.1c0-1.598-1.294-2.894-2.892-2.894c-1.597,0-2.893,1.296-2.893,2.894v7.855
		l-6.804-3.928c-1.383-0.799-3.153-0.324-3.953,1.06c-0.797,1.383-0.325,3.153,1.059,3.953l6.804,3.927l-6.804,3.928
		c-1.384,0.799-1.858,2.568-1.059,3.953c0.537,0.928,1.509,1.447,2.509,1.447c0.491,0,0.988-0.126,1.443-0.391l6.804-3.928v7.855
		c0,1.6,1.295,2.895,2.893,2.895s2.892-1.295,2.892-2.895v-7.857l6.805,3.93c0.456,0.265,0.954,0.391,1.443,0.391
		c1,0,1.973-0.521,2.509-1.447C61.492,169.463,61.019,167.693,59.634,166.895z"/>
</g>
</svg>
