<?xml version="1.0" encoding="utf-8"?>
<!-- Generator: Adobe Illustrator 16.0.0, SVG Export Plug-In . SVG Version: 6.00 Build 0)  -->
<!DOCTYPE svg PUBLIC "-//W3C//DTD SVG 1.1//EN" "http://www.w3.org/Graphics/SVG/1.1/DTD/svg11.dtd">
<svg version="1.1" id="Icons" xmlns="http://www.w3.org/2000/svg" xmlns:xlink="http://www.w3.org/1999/xlink" x="0px" y="0px"
	 width="32px" height="32px" viewBox="0 0 198.425 198.43" enable-background="new 0 0 198.425 198.43"
	 xml:space="preserve">
<path fill="#45A4F3" d="M134.884,173.579c-6.971,0-12.643-5.671-12.643-12.644c0-6.971,5.672-12.643,12.643-12.643
	s12.643,5.672,12.643,12.643C147.527,167.909,141.855,173.579,134.884,173.579z M134.884,155.881c-2.789,0-5.057,2.27-5.057,5.057
	c0,2.789,2.268,5.059,5.057,5.059s5.057-2.27,5.057-5.059C139.941,158.15,137.673,155.881,134.884,155.881z"/>
<path fill="#45A4F3" d="M60.711,198.43c-6.971,0-12.642-5.671-12.642-12.642c0-6.972,5.671-12.644,12.642-12.644
	c6.971,0,12.642,5.672,12.642,12.644C73.353,192.759,67.683,198.43,60.711,198.43z M60.711,180.732c-2.788,0-5.057,2.27-5.057,5.058
	s2.269,5.058,5.057,5.058c2.789,0,5.057-2.27,5.057-5.058S63.5,180.732,60.711,180.732z"/>
<path fill="#45A4F3" d="M97.798,186.1c-6.971,0-12.643-5.672-12.643-12.643c0-6.973,5.672-12.645,12.643-12.645
	c6.971,0,12.643,5.672,12.643,12.645C110.441,180.428,104.769,186.1,97.798,186.1z M97.798,168.4c-2.788,0-5.057,2.271-5.057,5.059
	s2.269,5.057,5.057,5.057c2.788,0,5.057-2.269,5.057-5.057S100.585,168.4,97.798,168.4z"/>
<g>
	<g id="XMLID_1_">
		<g>
			<path fill="#494949" d="M140.482,57.105c18.69,0,33.891,15.2,33.891,33.89s-15.2,33.9-33.891,33.9H45.502
				c-11.75,0-21.32-9.569-21.32-21.319c0-11.75,9.57-21.311,21.32-21.311c1.14,0,2.3,0.1,3.45,0.28l7.55,1.23l1.16-7.56
				c1.52-9.84,6.53-18.87,14.11-25.42c7.65-6.63,17.44-10.27,27.58-10.27c12.04,0,23.55,5.18,31.56,14.21l2.55,2.88l3.83-0.36
				C138.413,57.155,139.453,57.105,140.482,57.105z"/>
			<path fill="#494949" d="M140.482,49.505c22.91,0,41.48,18.58,41.48,41.48c0,22.91-18.58,41.48-41.48,41.48H45.502
				c-15.96,0-28.9-12.93-28.9-28.9c0-15.95,12.94-28.89,28.9-28.89c1.59,0,3.15,0.13,4.67,0.38c3.68-23.85,24.29-42.12,49.18-42.12
				c14.82,0,28.12,6.49,37.23,16.76C137.873,49.575,139.172,49.505,140.482,49.505z M174.373,90.995
				c0-18.69-15.2-33.89-33.891-33.89c-1.029,0-2.069,0.05-3.189,0.15l-3.83,0.36l-2.55-2.88c-8.01-9.03-19.521-14.21-31.56-14.21
				c-10.14,0-19.93,3.64-27.58,10.27c-7.58,6.55-12.59,15.58-14.11,25.42l-1.16,7.56l-7.55-1.23c-1.15-0.18-2.31-0.28-3.45-0.28
				c-11.75,0-21.32,9.56-21.32,21.311c0,11.75,9.57,21.319,21.32,21.319h94.979C159.172,124.895,174.373,109.685,174.373,90.995z"/>
		</g>
		<g>
		</g>
	</g>
</g>
</svg>
