<?xml version="1.0" encoding="utf-8"?>
<!-- Generator: Adobe Illustrator 16.0.0, SVG Export Plug-In . SVG Version: 6.00 Build 0)  -->
<!DOCTYPE svg PUBLIC "-//W3C//DTD SVG 1.1//EN" "http://www.w3.org/Graphics/SVG/1.1/DTD/svg11.dtd">
<svg version="1.1" id="Icons" xmlns="http://www.w3.org/2000/svg" xmlns:xlink="http://www.w3.org/1999/xlink" x="0px" y="0px"
	 width="32px" height="32px" viewBox="0 0 198.425 198.43" enable-background="new 0 0 198.425 198.43"
	 xml:space="preserve">
<g>
	<g>
		<path fill="#FF9838" d="M57.935,24.565c-2.094,0-3.792-1.697-3.792-3.793V3.575c0-2.096,1.698-3.792,3.792-3.792
			s3.793,1.696,3.793,3.792V20.77C61.728,22.866,60.03,24.565,57.935,24.565z"/>
	</g>
	<g>
		<path fill="#FF9838" d="M31.908,35.345c-0.971,0-1.941-0.37-2.682-1.11l-12.159-12.16c-1.481-1.481-1.481-3.885,0-5.364
			c1.481-1.48,3.883-1.48,5.363,0L34.589,28.87c1.481,1.479,1.481,3.883,0,5.362C33.85,34.975,32.879,35.345,31.908,35.345z"/>
	</g>
	<g>
		<path fill="#FF9838" d="M21.127,61.373H3.931c-2.094,0-3.792-1.698-3.792-3.793c0-2.096,1.699-3.793,3.792-3.793h17.196
			c2.094,0,3.793,1.697,3.793,3.793C24.92,59.674,23.221,61.373,21.127,61.373z"/>
	</g>
	<path fill="#FF9838" d="M38.654,79.262c2.178-0.618,4.473-0.957,6.847-0.957c1.339,0,2.705,0.111,4.06,0.331l3.773,0.613
		l0.105-0.688C43.823,76.492,36.592,67.926,36.592,57.7c0-11.771,9.574-21.347,21.344-21.347c6.558,0,12.431,2.978,16.351,7.646
		c2.166-1.409,4.443-2.624,6.803-3.646C75.812,33.321,67.406,28.77,57.937,28.77c-15.977,0-28.93,12.952-28.93,28.932
		C29.007,66.269,32.735,73.965,38.654,79.262z"/>
</g>
<g>
	<g id="XMLID_1_">
		<g>
			<path fill="#B6BBBF" d="M140.482,56.945c18.69,0,33.891,15.2,33.891,33.89c0,18.689-15.2,33.899-33.891,33.899H45.502
				c-11.75,0-21.32-9.56-21.32-21.31s9.57-21.32,21.32-21.32c1.13,0,2.29,0.1,3.45,0.28l7.55,1.23l1.16-7.56
				c1.52-9.84,6.53-18.86,14.11-25.42c7.65-6.63,17.44-10.27,27.58-10.27c12.04,0,23.55,5.18,31.56,14.21l2.55,2.88l3.83-0.36
				C138.413,56.995,139.453,56.945,140.482,56.945z"/>
			<path fill="#B6BBBF" d="M140.482,49.355c22.91,0,41.48,18.56,41.48,41.47s-18.57,41.48-41.48,41.48H45.502
				c-15.96,0-28.9-12.93-28.9-28.89s12.94-28.9,28.9-28.9c1.59,0,3.15,0.13,4.67,0.38c3.68-23.85,24.29-42.12,49.18-42.12
				c14.82,0,28.12,6.49,37.23,16.76C137.873,49.415,139.172,49.355,140.482,49.355z M174.373,90.835
				c0-18.69-15.2-33.89-33.891-33.89c-1.029,0-2.069,0.05-3.189,0.15l-3.83,0.36l-2.55-2.88c-8.01-9.03-19.521-14.21-31.56-14.21
				c-10.14,0-19.93,3.64-27.58,10.27c-7.58,6.56-12.59,15.58-14.11,25.42l-1.16,7.56l-7.55-1.23c-1.16-0.18-2.32-0.28-3.45-0.28
				c-11.75,0-21.32,9.57-21.32,21.32s9.57,21.31,21.32,21.31h94.979C159.172,124.734,174.373,109.524,174.373,90.835z"/>
		</g>
		<g>
		</g>
	</g>
</g>
<g>
	<path fill="#45A4F3" d="M97.176,181.839c-0.664,0-1.336-0.175-1.948-0.542c-1.795-1.078-2.377-3.409-1.298-5.203l15.259-25.406
		c1.079-1.797,3.406-2.379,5.205-1.3c1.795,1.079,2.377,3.409,1.299,5.204l-15.26,25.406
		C99.72,181.184,98.465,181.839,97.176,181.839z"/>
</g>
<g>
	<path fill="#45A4F3" d="M62.413,198.42c-0.664,0-1.336-0.175-1.948-0.542c-1.796-1.078-2.377-3.409-1.298-5.203l25.218-41.987
		c1.078-1.797,3.406-2.379,5.203-1.3c1.797,1.078,2.377,3.409,1.299,5.204L65.668,196.58
		C64.958,197.764,63.701,198.42,62.413,198.42z"/>
</g>
<g>
	<path fill="#45A4F3" d="M47.569,181.839c-0.665,0-1.338-0.175-1.949-0.542c-1.796-1.078-2.377-3.409-1.298-5.203l15.258-25.406
		c1.08-1.797,3.408-2.379,5.205-1.3c1.795,1.079,2.377,3.409,1.297,5.204l-15.258,25.406
		C50.113,181.184,48.857,181.839,47.569,181.839z"/>
</g>
<path fill="#2B7EC2" d="M136.688,181.804c-0.396,0-0.791-0.071-1.161-0.208h-0.033l-0.209-0.1c-0.013-0.007-0.025-0.014-0.039-0.018
	l-0.207-0.108c-0.93-0.522-1.551-1.449-1.68-2.517l-2.072-17.096c-0.156-1.283,0.448-2.557,1.543-3.244l14.562-9.162
	c0.94-0.592,2.166-0.67,3.177-0.211l0.258,0.129c0.928,0.521,1.551,1.444,1.682,2.512l2.113,17.103
	c0.16,1.289-0.447,2.566-1.547,3.254l-14.605,9.154C137.934,181.626,137.319,181.804,136.688,181.804z M138.201,163.061l1.182,9.742
	l8.32-5.215l-1.205-9.747L138.201,163.061z"/>
</svg>
