<?xml version="1.0" encoding="utf-8"?>
<!-- Generator: Adobe Illustrator 16.0.0, SVG Export Plug-In . SVG Version: 6.00 Build 0)  -->
<!DOCTYPE svg PUBLIC "-//W3C//DTD SVG 1.1//EN" "http://www.w3.org/Graphics/SVG/1.1/DTD/svg11.dtd">
<svg version="1.1" id="Icons" xmlns="http://www.w3.org/2000/svg" xmlns:xlink="http://www.w3.org/1999/xlink" x="0px" y="0px"
	 width="32px" height="32px" viewBox="0 0 198.425 198.43" enable-background="new 0 0 198.425 198.43"
	 xml:space="preserve">
<path fill="#B6BBBF" d="M165.173,90.169c14.12,0,25.6,11.479,25.6,25.6c0,14.109-11.479,25.602-25.6,25.602h-75.98
	c-8.57,0-15.54-6.971-15.54-15.541c0-8.561,6.97-15.529,15.54-15.529c0.82,0,1.67,0.07,2.51,0.209l7.55,1.221l1.17-7.561
	c1.159-7.509,4.979-14.41,10.77-19.419c5.851-5.061,13.33-7.84,21.07-7.84c9.21,0,18,3.949,24.12,10.85l2.55,2.88l3.83-0.35
	C163.613,90.209,164.404,90.169,165.173,90.169z"/>
<g>
	<g>
		<path fill="#FF9838" d="M86.868,30.308c-2.095,0-3.793-1.699-3.793-3.793V3.75c0-2.094,1.698-3.793,3.793-3.793
			c2.094,0,3.791,1.699,3.791,3.793v22.765C90.661,28.609,88.961,30.308,86.868,30.308z"/>
	</g>
	<g>
		<path fill="#FF9838" d="M44.271,47.95c-0.972,0-1.941-0.37-2.683-1.11L25.493,30.743c-1.48-1.481-1.48-3.884,0.001-5.364
			c1.481-1.48,3.883-1.479,5.363,0l16.097,16.098c1.481,1.481,1.481,3.883-0.001,5.363C46.212,47.58,45.242,47.95,44.271,47.95z"/>
	</g>
	<g>
		<path fill="#FF9838" d="M26.627,90.546H3.864c-2.095,0-3.793-1.697-3.793-3.792c0-2.095,1.699-3.793,3.793-3.793h22.764
			c2.095,0,3.793,1.698,3.793,3.793C30.421,88.849,28.723,90.546,26.627,90.546z"/>
	</g>
	<g>
		<path fill="#FF9838" d="M28.174,149.239c-0.97,0-1.94-0.369-2.681-1.109c-1.481-1.481-1.481-3.883,0-5.362l16.096-16.099
			c1.482-1.479,3.884-1.479,5.364,0c1.481,1.479,1.481,3.883,0,5.363L30.856,148.13C30.117,148.868,29.145,149.239,28.174,149.239z"
			/>
	</g>
	<g>
		<path fill="#FF9838" d="M129.851,47.562c-0.971,0-1.939-0.37-2.682-1.109c-1.481-1.481-1.481-3.884,0-5.363l15.707-15.709
			c1.48-1.48,3.885-1.48,5.363,0c1.48,1.48,1.48,3.883,0,5.364l-15.707,15.707C131.792,47.192,130.822,47.562,129.851,47.562z"/>
	</g>
	<path fill="#FF9838" d="M69.939,126.111c-15.021-6.601-25.541-21.609-25.541-39.042c0-23.504,19.122-42.626,42.626-42.626
		c18.746,0,34.69,12.169,40.386,29.02c1.625-0.226,3.27-0.341,4.93-0.341c0.99,0,1.978,0.054,2.957,0.135
		c-6.002-21.011-25.334-36.397-48.271-36.397c-27.731,0-50.211,22.48-50.211,50.211c0,22.604,14.938,41.715,35.479,48.012
		C70.829,132.408,69.985,129.355,69.939,126.111z"/>
</g>
<path fill="#B6BBBF" d="M165.173,82.589c-1.051,0-2.09,0.056-3.114,0.15c-7.294-8.224-17.935-13.411-29.789-13.411
	c-19.908,0-36.402,14.61-39.346,33.693c-1.217-0.196-2.463-0.306-3.734-0.306c-12.617,0-22.875,10.108-23.114,22.669
	c-0.249,12.961,10.608,23.569,23.571,23.569h24.72c1.33,0,2.562-0.697,3.25-1.84l0,0c1.52-2.527-0.305-5.745-3.25-5.745H89.543
	c-8.69,0-16.031-7.111-15.885-15.801c0.143-8.442,7.055-15.269,15.53-15.269c0.829,0,1.675,0.069,2.517,0.206l7.547,1.227
	l1.166-7.558c1.16-7.517,4.988-14.414,10.779-19.423c5.846-5.059,13.328-7.842,21.07-7.842c9.203,0,17.992,3.958,24.113,10.858
	l2.552,2.876l3.827-0.355c0.85-0.079,1.639-0.118,2.412-0.118c14.32,0,25.932,11.82,25.59,26.216
	c-0.33,13.977-12.092,24.98-26.07,24.98h-13.463c-1.33,0-2.564,0.697-3.251,1.84l0,0c-1.519,2.527,0.304,5.745,3.251,5.745h13.396
	c18.195,0,33.42-14.421,33.725-32.615C198.666,97.754,183.691,82.589,165.173,82.589z"/>
<path fill="#FF9838" d="M152.011,158.989c-0.674-1.188-1.936-1.925-3.301-1.925h-18.567l17.026-28.352
	c1.08-1.796,0.498-4.126-1.299-5.204c-1.795-1.079-4.125-0.497-5.203,1.298l-20.479,34.098c-1.078,1.797-0.496,4.126,1.299,5.203
	c0.518,0.312,1.077,0.478,1.641,0.521c0.004,0.001,0.01,0.001,0.014,0.001c0.1,0.008,0.197,0.021,0.297,0.021
	c0.014,0,0.027-0.004,0.041-0.004s0.025,0.002,0.039,0.002h18.49l-16.797,27.976c-1.078,1.796-0.498,4.126,1.299,5.204
	c0.611,0.365,1.283,0.542,1.949,0.542c1.287,0,2.543-0.656,3.254-1.843l20.248-33.719
	C152.667,161.637,152.685,160.178,152.011,158.989z"/>
</svg>
