<?xml version="1.0" encoding="utf-8"?>
<!-- Generator: Adobe Illustrator 16.0.0, SVG Export Plug-In . SVG Version: 6.00 Build 0)  -->
<!DOCTYPE svg PUBLIC "-//W3C//DTD SVG 1.1//EN" "http://www.w3.org/Graphics/SVG/1.1/DTD/svg11.dtd">
<svg version="1.1" id="Icons" xmlns="http://www.w3.org/2000/svg" xmlns:xlink="http://www.w3.org/1999/xlink" x="0px" y="0px"
	 width="32px" height="32px" viewBox="0 0 198.425 198.43" enable-background="new 0 0 198.425 198.43"
	 xml:space="preserve">
<path fill="#494949" d="M141.71,55.912c18.759,0,34.017,15.507,34.017,34.575c0,19.069-15.256,34.585-34.017,34.585H46.376
	c-11.794,0-21.399-9.762-21.399-21.749c0-11.989,9.605-21.743,21.399-21.743c1.144,0,2.308,0.103,3.463,0.286l7.578,1.255
	l1.165-7.713c1.525-10.039,6.554-19.251,14.162-25.934c7.679-6.764,17.505-10.478,27.684-10.478
	c12.084,0,23.637,5.285,31.677,14.497l2.561,2.938l3.844-0.368C139.634,55.963,140.677,55.912,141.71,55.912z"/>
<g>
	<g>
		<path fill="#FF9838" d="M59.185,24.565c-2.094,0-3.792-1.698-3.792-3.793V3.575c0-2.095,1.698-3.792,3.792-3.792
			s3.793,1.697,3.793,3.792V20.77C62.978,22.866,61.28,24.565,59.185,24.565z"/>
	</g>
	<g>
		<path fill="#FF9838" d="M33.158,35.345c-0.97,0-1.94-0.37-2.682-1.11l-12.158-12.16c-1.481-1.481-1.481-3.884,0-5.364
			c1.48-1.48,3.883-1.48,5.362,0L35.839,28.87c1.481,1.48,1.481,3.883,0,5.363C35.1,34.975,34.129,35.345,33.158,35.345z"/>
	</g>
	<g>
		<path fill="#FF9838" d="M22.378,61.373H5.181c-2.094,0-3.792-1.698-3.792-3.793c0-2.095,1.699-3.793,3.792-3.793h17.197
			c2.094,0,3.792,1.698,3.792,3.793C26.17,59.674,24.472,61.373,22.378,61.373z"/>
	</g>
	<path fill="#FF9838" d="M39.904,79.262c2.179-0.618,4.474-0.957,6.848-0.957c1.339,0,2.704,0.111,4.06,0.331l3.773,0.613
		l0.104-0.687c-9.617-2.07-16.847-10.636-16.847-20.862c0-11.771,9.574-21.346,21.344-21.346c6.558,0,12.432,2.977,16.352,7.646
		c2.166-1.409,4.443-2.624,6.803-3.646C77.063,33.321,68.656,28.77,59.186,28.77c-15.977,0-28.93,12.952-28.93,28.931
		C30.257,66.269,33.985,73.965,39.904,79.262z"/>
</g>
<path fill="#FF9838" d="M82.442,150.771c-0.674-1.188-1.936-1.924-3.302-1.924H60.573l21.77-36.244
	c1.078-1.795,0.496-4.125-1.299-5.203c-1.796-1.079-4.127-0.498-5.205,1.299L50.62,150.686c-1.077,1.797-0.496,4.127,1.3,5.205
	c0.517,0.312,1.075,0.477,1.638,0.521c0.006,0,0.01,0,0.014,0.001c0.1,0.008,0.199,0.02,0.297,0.02c0.014,0,0.027-0.003,0.041-0.003
	c0.014,0,0.027,0.003,0.039,0.003h18.49L50.67,192.674c-1.079,1.795-0.497,4.125,1.299,5.204c0.611,0.367,1.284,0.541,1.949,0.541
	c1.288,0,2.543-0.656,3.255-1.841l25.218-41.987C83.095,153.42,83.114,151.96,82.442,150.771z"/>
<g>
	<path fill="#45A4F3" d="M137.462,181.838c-0.664,0-1.338-0.175-1.947-0.542c-1.797-1.078-2.379-3.408-1.301-5.204l15.261-25.406
		c1.077-1.795,3.409-2.377,5.204-1.298c1.796,1.078,2.378,3.408,1.3,5.204l-15.261,25.406
		C140.007,181.182,138.75,181.838,137.462,181.838z"/>
</g>
<g>
	<path fill="#45A4F3" d="M102.701,198.42c-0.664,0-1.336-0.175-1.947-0.542c-1.796-1.078-2.377-3.408-1.301-5.204l25.221-41.988
		c1.078-1.795,3.406-2.377,5.203-1.298c1.795,1.078,2.377,3.408,1.299,5.204l-25.221,41.988
		C105.246,197.764,103.99,198.42,102.701,198.42z"/>
</g>
<g>
	<path fill="#45A4F3" d="M87.857,181.838c-0.665,0-1.337-0.175-1.949-0.542c-1.796-1.078-2.377-3.408-1.299-5.204l15.26-25.406
		c1.08-1.795,3.409-2.377,5.205-1.298c1.795,1.078,2.377,3.408,1.299,5.204l-15.26,25.406
		C90.4,181.182,89.145,181.838,87.857,181.838z"/>
</g>
<g id="XMLID_1_">
	<g>
		<path fill="#494949" d="M111.222,132.465h-24.52c-2.95,0-4.78-3.21-3.26-5.74c0.69-1.14,1.92-1.84,3.26-1.84h24.46
			c1.63-6.18,7.24-10.75,13.93-10.75c0.8,0,1.57,0.07,2.33,0.19c1.84-11.9,12.12-21.021,24.54-21.021c7.4,0,14.03,3.24,18.58,8.37
			c0.64-0.06,1.29-0.09,1.95-0.09c0.47,0,0.93,0.04,1.39,0.07c1.08-3.19,1.69-6.601,1.74-10.141
			c0.29-18.93-15.03-34.42-33.891-34.42c-1.029,0-2.069,0.05-3.189,0.16l-3.83,0.35l-2.55-2.87c-8.01-9.04-19.51-14.22-31.561-14.22
			c-10.13,0-19.93,3.65-27.58,10.27c-7.58,6.55-12.59,15.58-14.11,25.42l-1.16,7.56l-7.55-1.23c-1.15-0.18-2.31-0.28-3.45-0.28
			c-11.63,0-21.11,9.36-21.31,20.95c-0.2,11.92,9.81,21.68,21.73,21.68h2.66c2.94,0,4.77,3.22,3.25,5.75
			c-0.69,1.14-1.92,1.83-3.25,1.83h-2.61c-15.84,0-29.1-12.55-29.37-28.4c-0.27-16.189,12.77-29.39,28.9-29.39
			c1.59,0,3.14,0.13,4.67,0.38c3.68-23.85,24.29-42.12,49.18-42.12c14.82,0,28.12,6.49,37.23,16.77c1.29-0.12,2.59-0.19,3.899-0.19
			c23.091,0,41.78,18.87,41.48,42.03c-0.06,4.18-0.75,8.21-1.97,12c7.05,3.3,11.939,10.43,11.939,18.729
			c0,11.44-9.26,20.7-20.689,20.7h-47.4C118.482,142.975,112.932,138.524,111.222,132.465z"/>
	</g>
	<g>
	</g>
</g>
<path fill="#FFFFFF" d="M172.493,135.395h-47.4c-3.77,0-6.83-3.069-6.83-6.84c0-3.77,3.061-6.84,6.83-6.84
	c0.37,0,0.74,0.04,1.11,0.1l7.55,1.221l1.17-7.551c1.28-8.319,8.61-14.59,17.04-14.59c4.93,0,9.63,2.12,12.91,5.811l2.55,2.88
	l3.83-0.36c0.44-0.04,0.84-0.06,1.24-0.06c7.229,0,13.109,5.88,13.109,13.109C185.602,129.505,179.722,135.395,172.493,135.395z"/>
</svg>
