<?xml version="1.0" encoding="utf-8"?>
<!-- Generator: Adobe Illustrator 16.0.0, SVG Export Plug-In . SVG Version: 6.00 Build 0)  -->
<!DOCTYPE svg PUBLIC "-//W3C//DTD SVG 1.1//EN" "http://www.w3.org/Graphics/SVG/1.1/DTD/svg11.dtd">
<svg version="1.1" id="Icons" xmlns="http://www.w3.org/2000/svg" xmlns:xlink="http://www.w3.org/1999/xlink" x="0px" y="0px"
	 width="32px" height="32px" viewBox="0 0 198.425 198.43" enable-background="new 0 0 198.425 198.43"
	 xml:space="preserve">
<path fill="#494949" d="M141.71,55.912c18.758,0,34.017,15.507,34.017,34.575c0,19.069-15.257,34.585-34.017,34.585H46.376
	c-11.794,0-21.399-9.762-21.399-21.749c0-11.989,9.605-21.743,21.399-21.743c1.144,0,2.308,0.103,3.463,0.286l7.578,1.255
	l1.165-7.713c1.525-10.039,6.554-19.251,14.162-25.934c7.679-6.764,17.505-10.478,27.683-10.478
	c12.084,0,23.638,5.285,31.678,14.497l2.561,2.938l3.844-0.368C139.634,55.963,140.677,55.912,141.71,55.912z"/>
<g>
	<g>
		<path fill="#FF9838" d="M59.185,24.565c-2.094,0-3.792-1.697-3.792-3.793V3.575c0-2.096,1.698-3.792,3.792-3.792
			s3.793,1.696,3.793,3.792V20.77C62.978,22.866,61.28,24.565,59.185,24.565z"/>
	</g>
	<g>
		<path fill="#FF9838" d="M33.158,35.345c-0.97,0-1.94-0.37-2.682-1.11l-12.158-12.16c-1.481-1.481-1.481-3.885,0-5.364
			c1.48-1.48,3.883-1.48,5.362,0L35.839,28.87c1.481,1.479,1.481,3.883,0,5.362C35.1,34.975,34.129,35.345,33.158,35.345z"/>
	</g>
	<g>
		<path fill="#FF9838" d="M22.378,61.373H5.181c-2.094,0-3.792-1.698-3.792-3.793c0-2.096,1.699-3.793,3.792-3.793h17.197
			c2.094,0,3.792,1.697,3.792,3.793C26.17,59.674,24.472,61.373,22.378,61.373z"/>
	</g>
	<path fill="#FF9838" d="M39.904,79.262c2.179-0.618,4.474-0.957,6.848-0.957c1.339,0,2.704,0.111,4.06,0.331l3.773,0.613
		l0.104-0.688C45.072,76.492,37.842,67.926,37.842,57.7c0-11.771,9.574-21.347,21.344-21.347c6.558,0,12.432,2.978,16.352,7.646
		c2.166-1.409,4.443-2.624,6.803-3.646C77.063,33.321,68.656,28.77,59.186,28.77c-15.977,0-28.93,12.952-28.93,28.932
		C30.257,66.269,33.985,73.965,39.904,79.262z"/>
</g>
<path fill="#FF9838" d="M82.442,150.771c-0.674-1.188-1.936-1.924-3.302-1.924H60.573l21.77-36.244
	c1.078-1.795,0.496-4.125-1.299-5.203c-1.796-1.079-4.127-0.498-5.205,1.3L50.62,150.686c-1.077,1.797-0.496,4.127,1.3,5.205
	c0.517,0.312,1.075,0.478,1.638,0.521c0.006,0,0.01,0,0.014,0.001c0.1,0.008,0.199,0.02,0.297,0.02c0.014,0,0.027-0.003,0.041-0.003
	c0.014,0,0.027,0.003,0.039,0.003h18.49L50.67,192.674c-1.079,1.795-0.497,4.125,1.299,5.204c0.611,0.367,1.284,0.541,1.949,0.541
	c1.288,0,2.543-0.656,3.255-1.841l25.218-41.987C83.095,153.42,83.114,151.96,82.442,150.771z"/>
<path fill="#494949" d="M181.24,103.542c1.225-3.788,1.914-7.815,1.969-12.001c0.301-23.159-18.385-42.028-41.478-42.028
	c-1.312,0-2.61,0.068-3.894,0.188c-9.119-10.279-22.418-16.767-37.237-16.767c-24.884,0-45.501,18.266-49.182,42.118
	c-1.521-0.248-3.078-0.381-4.667-0.381c-16.125,0-29.166,13.206-28.896,29.394c0.265,15.848,13.523,28.404,29.371,28.404h2.603
	c1.33,0,2.564-0.697,3.25-1.84c1.519-2.527-0.303-5.746-3.25-5.746h-2.653c-11.925,0-21.938-9.758-21.735-21.682
	c0.197-11.584,9.681-20.945,21.312-20.945c1.137,0,2.297,0.095,3.45,0.282l7.548,1.226l1.166-7.557
	c1.518-9.84,6.527-18.868,14.104-25.424c7.651-6.619,17.447-10.267,27.579-10.267c12.048,0,23.552,5.182,31.563,14.213l2.551,2.875
	l3.826-0.354c1.121-0.104,2.166-0.155,3.189-0.155c18.863,0,34.182,15.491,33.893,34.421c-0.056,3.542-0.664,6.945-1.74,10.134l0,0
	c-0.461-0.03-0.922-0.069-1.393-0.069c-0.656,0-1.306,0.035-1.943,0.094c-4.551-5.131-11.188-8.367-18.582-8.367
	c-12.418,0-22.705,9.115-24.541,21.018c-0.758-0.123-1.534-0.189-2.328-0.189c-6.692,0-12.305,4.567-13.932,10.749H86.698
	c-1.332,0-2.566,0.698-3.252,1.841c-1.521,2.527,0.303,5.744,3.252,5.744h24.527c-0.003-0.011-0.005-0.021-0.009-0.033
	c1.697,6.078,7.261,10.541,13.879,10.541h47.395c11.43,0,20.697-9.268,20.697-20.698
	C193.187,113.979,188.291,106.841,181.24,103.542z M172.49,135.391h-47.395c-3.77,0-6.836-3.065-6.836-6.837
	c0-3.768,3.066-6.834,6.836-6.834c0.363,0,0.736,0.031,1.111,0.093l7.547,1.226l1.166-7.558c1.283-8.313,8.609-14.586,17.045-14.586
	c4.926,0,9.629,2.119,12.906,5.813l2.551,2.875l3.826-0.356c0.439-0.041,0.848-0.062,1.24-0.062c7.23,0,13.111,5.883,13.111,13.112
	C185.601,129.507,179.72,135.391,172.49,135.391z"/>
<path fill="#2B7EC2" d="M122.21,185.598c-0.396,0-0.791-0.072-1.162-0.209h-0.033l-0.209-0.1c-0.012-0.007-0.025-0.014-0.038-0.018
	l-0.208-0.108c-0.93-0.522-1.551-1.449-1.68-2.517l-2.072-17.096c-0.156-1.283,0.449-2.557,1.543-3.244l14.562-9.162
	c0.939-0.592,2.166-0.67,3.176-0.211l0.258,0.129c0.928,0.521,1.551,1.444,1.682,2.512l2.114,17.103
	c0.159,1.289-0.448,2.566-1.548,3.255l-14.605,9.153C123.457,185.419,122.841,185.598,122.21,185.598z M123.722,166.854l1.182,9.742
	l8.32-5.215l-1.205-9.747L123.722,166.854z"/>
<path fill="#FFFFFF" d="M172.494,135.395h-47.4c-3.77,0-6.83-3.068-6.83-6.84c0-3.77,3.061-6.84,6.83-6.84
	c0.369,0,0.74,0.04,1.109,0.1l7.551,1.222l1.17-7.552c1.279-8.318,8.609-14.59,17.039-14.59c4.931,0,9.631,2.121,12.91,5.812
	l2.551,2.88l3.83-0.359c0.439-0.041,0.84-0.061,1.24-0.061c7.229,0,13.108,5.88,13.108,13.109S179.722,135.395,172.494,135.395z"/>
</svg>
