<?xml version="1.0" encoding="utf-8"?>
<!-- Generator: Adobe Illustrator 16.0.0, SVG Export Plug-In . SVG Version: 6.00 Build 0)  -->
<!DOCTYPE svg PUBLIC "-//W3C//DTD SVG 1.1//EN" "http://www.w3.org/Graphics/SVG/1.1/DTD/svg11.dtd">
<svg version="1.1" id="Icons" xmlns="http://www.w3.org/2000/svg" xmlns:xlink="http://www.w3.org/1999/xlink" x="0px" y="0px"
	 width="32px" height="32px" viewBox="0 0 198.425 198.43" enable-background="new 0 0 198.425 198.43"
	 xml:space="preserve">
<path fill="#494949" d="M58.339,56.064l3.844,0.368l2.561-2.938c8.04-9.212,19.593-14.497,31.677-14.497
	c10.179,0,20.004,3.714,27.684,10.478c7.607,6.682,12.637,15.895,14.162,25.934l1.164,7.713l7.578-1.255
	c1.154-0.183,2.318-0.286,3.463-0.286c11.795,0,21.4,9.754,21.4,21.743c0,11.986-9.605,21.749-21.4,21.749H55.137
	c-18.761,0-34.017-15.517-34.017-34.585s15.258-34.575,34.017-34.575C56.17,55.912,57.213,55.963,58.339,56.064z"/>
<path fill="#FF9838" d="M192.843,65.985c-0.016,0-0.028,0-0.045,0.001c-0.328,0.008-0.658,0.012-0.987,0.012
	c-14.459,0-28.521-7.501-36.271-20.924c-7.926-13.729-7.186-30.077,0.52-42.723c0.705-1.157-0.157-2.567-1.417-2.567
	c-0.119,0-0.244,0.013-0.371,0.04c-4.174,0.895-8.278,2.448-12.174,4.701c-14.058,8.131-21.642,23.782-20.662,39.24
	c1.797,1.157,3.521,2.441,5.153,3.854c1.412,1.222,2.736,2.527,3.979,3.897c-4.569-14.171,0.724-30.518,13.188-39.075
	c-2.971,12.181-1.244,25.239,5.215,36.425c6.428,11.133,16.914,19.187,28.966,22.721c-4.634,2.239-9.72,3.413-14.853,3.413
	c-2.178,0-4.369-0.21-6.515-0.624c-0.786-0.151-1.606-0.226-2.506-0.226c-2.967,0-6.407,0.847-10.049,1.744
	c-0.606,0.149-1.248,0.307-1.896,0.462l0.426,2.755l3.772-0.613c1.353-0.22,2.72-0.331,4.06-0.331
	c5.252,0,10.129,1.623,14.164,4.391c6.623-0.231,13.285-2.041,19.424-5.586c3.886-2.243,7.273-5.017,10.129-8.176
	C195.082,67.706,194.3,65.985,192.843,65.985z"/>
<path fill="#FF9838" d="M146.507,150.771c-0.674-1.188-1.936-1.924-3.301-1.924h-18.567l21.771-36.244
	c1.078-1.795,0.496-4.125-1.3-5.203c-1.796-1.079-4.127-0.498-5.204,1.299l-25.22,41.986c-1.077,1.797-0.496,4.127,1.3,5.205
	c0.518,0.312,1.075,0.477,1.639,0.521c0.006,0,0.01,0,0.014,0.001c0.1,0.008,0.199,0.02,0.297,0.02c0.014,0,0.027-0.003,0.041-0.003
	s0.027,0.003,0.039,0.003h18.49l-21.768,36.242c-1.08,1.795-0.498,4.125,1.299,5.204c0.61,0.367,1.283,0.541,1.948,0.541
	c1.288,0,2.543-0.656,3.255-1.841l25.219-41.987C147.162,153.42,147.179,151.96,146.507,150.771z"/>
<path fill="#494949" d="M3.89,122.279c0,11.432,9.268,20.699,20.697,20.699h47.395c6.618,0,12.182-4.465,13.879-10.543
	c-0.004,0.013-0.006,0.023-0.009,0.034h24.526c2.949,0,4.771-3.217,3.252-5.745c-0.686-1.142-1.92-1.84-3.252-1.84H85.914
	c-1.626-6.182-7.238-10.749-13.932-10.749c-0.793,0-1.57,0.066-2.328,0.189c-1.836-11.902-12.123-21.017-24.541-21.017
	c-7.396,0-14.031,3.236-18.582,8.367c-0.639-0.059-1.287-0.094-1.943-0.094c-0.471,0-0.931,0.039-1.393,0.069l0,0
	c-1.075-3.188-1.686-6.59-1.739-10.133c-0.289-18.93,15.026-34.421,33.891-34.421c1.025,0,2.07,0.051,3.191,0.155l3.826,0.355
	l2.551-2.875C72.926,45.7,84.43,40.52,96.478,40.52c10.132,0,19.928,3.646,27.579,10.266c7.577,6.556,12.587,15.584,14.104,25.424
	l1.166,7.557l7.547-1.226c1.153-0.188,2.313-0.282,3.451-0.282c11.631,0,21.113,9.361,21.311,20.945
	c0.203,11.924-9.811,21.682-21.734,21.682h-2.652c-2.947,0-4.77,3.218-3.25,5.746c0.686,1.142,1.92,1.841,3.25,1.841h2.603
	c15.849,0,29.106-12.56,29.371-28.406c0.271-16.187-12.771-29.393-28.896-29.393c-1.59,0-3.146,0.133-4.668,0.381
	c-3.681-23.854-24.297-42.118-49.182-42.118c-14.82,0-28.119,6.486-37.237,16.766c-1.282-0.12-2.581-0.188-3.894-0.188
	c-23.092,0-41.777,18.869-41.477,42.028c0.054,4.186,0.744,8.213,1.968,12.001C8.787,106.841,3.89,113.979,3.89,122.279z
	 M11.476,122.279c0-7.23,5.881-13.113,13.111-13.113c0.395,0,0.801,0.02,1.242,0.061l3.826,0.357l2.551-2.875
	c3.277-3.695,7.98-5.814,12.906-5.814c8.434,0,15.762,6.271,17.045,14.586l1.166,7.558l7.547-1.226
	c0.375-0.061,0.748-0.092,1.111-0.092c3.77,0,6.836,3.066,6.836,6.834c0,3.771-3.066,6.836-6.836,6.836H24.587
	C17.357,135.391,11.476,129.507,11.476,122.279z"/>
<path fill="#2B7EC2" d="M56.21,185.598c-0.395,0-0.791-0.072-1.161-0.209h-0.034l-0.209-0.1c-0.012-0.007-0.025-0.014-0.038-0.018
	l-0.208-0.108c-0.929-0.522-1.55-1.449-1.679-2.517l-2.073-17.096c-0.156-1.283,0.449-2.557,1.543-3.244l14.562-9.162
	c0.94-0.592,2.166-0.67,3.177-0.211l0.257,0.129c0.928,0.521,1.551,1.444,1.682,2.512l2.114,17.103
	c0.159,1.289-0.448,2.566-1.548,3.255l-14.604,9.153C57.457,185.419,56.841,185.598,56.21,185.598z M57.722,166.854l1.182,9.742
	l8.32-5.215l-1.205-9.747L57.722,166.854z"/>
<path fill="#FFFFFF" d="M11.246,122.273c0-7.229,5.88-13.108,13.109-13.108c0.4,0,0.8,0.021,1.24,0.06l3.83,0.36l2.55-2.88
	c3.28-3.689,7.98-5.811,12.91-5.811c8.43,0,15.76,6.271,17.04,14.59l1.17,7.551l7.55-1.221c0.37-0.061,0.74-0.101,1.11-0.101
	c3.77,0,6.83,3.07,6.83,6.84c0,3.771-3.061,6.841-6.83,6.841h-47.4C17.125,135.395,11.246,129.505,11.246,122.273z"/>
</svg>
