<?xml version="1.0" encoding="utf-8"?>
<!-- Generator: Adobe Illustrator 16.0.0, SVG Export Plug-In . SVG Version: 6.00 Build 0)  -->
<!DOCTYPE svg PUBLIC "-//W3C//DTD SVG 1.1//EN" "http://www.w3.org/Graphics/SVG/1.1/DTD/svg11.dtd">
<svg version="1.1" id="Icons" xmlns="http://www.w3.org/2000/svg" xmlns:xlink="http://www.w3.org/1999/xlink" x="0px" y="0px"
	 width="32px" height="32px" viewBox="0 0 198.425 198.43" enable-background="new 0 0 198.425 198.43"
	 xml:space="preserve">
<path fill="#878787" d="M140.482,56.945c18.689,0,33.891,15.2,33.891,33.89c0,18.688-15.199,33.899-33.891,33.899h-94.98
	c-11.75,0-21.32-9.561-21.32-21.311s9.57-21.32,21.32-21.32c1.13,0,2.29,0.1,3.45,0.28l7.55,1.23l1.16-7.561
	c1.52-9.84,6.53-18.86,14.11-25.42c7.65-6.63,17.44-10.27,27.58-10.27c12.04,0,23.55,5.18,31.56,14.21l2.551,2.88l3.83-0.36
	C138.414,56.995,139.453,56.945,140.482,56.945z"/>
<g>
	<g>
		<path fill="#FF9838" d="M57.935,24.565c-2.094,0-3.792-1.698-3.792-3.793V3.575c0-2.095,1.698-3.792,3.792-3.792
			s3.793,1.697,3.793,3.792V20.77C61.728,22.866,60.03,24.565,57.935,24.565z"/>
	</g>
	<g>
		<path fill="#FF9838" d="M31.908,35.345c-0.97,0-1.941-0.37-2.682-1.11l-12.158-12.16c-1.482-1.481-1.482-3.884,0-5.364
			c1.48-1.48,3.883-1.48,5.362,0L34.589,28.87c1.482,1.48,1.482,3.883,0,5.363C33.85,34.975,32.879,35.345,31.908,35.345z"/>
	</g>
	<g>
		<path fill="#FF9838" d="M21.128,61.373H3.931c-2.094,0-3.792-1.698-3.792-3.793c0-2.095,1.699-3.793,3.792-3.793h17.197
			c2.094,0,3.792,1.698,3.792,3.793C24.92,59.674,23.222,61.373,21.128,61.373z"/>
	</g>
	<path fill="#FF9838" d="M38.654,79.262c2.178-0.618,4.473-0.957,6.847-0.957c1.339,0,2.704,0.111,4.06,0.331l3.773,0.613
		l0.105-0.687c-9.617-2.07-16.847-10.636-16.847-20.862c0-11.771,9.574-21.346,21.344-21.346c6.558,0,12.432,2.977,16.351,7.646
		c2.166-1.409,4.443-2.624,6.803-3.646C75.812,33.321,67.406,28.77,57.936,28.77c-15.977,0-28.93,12.952-28.93,28.931
		C29.007,66.269,32.735,73.965,38.654,79.262z"/>
</g>
<path fill="#FF9838" d="M105.192,150.771c-0.674-1.188-1.937-1.924-3.302-1.924H83.322l21.769-36.244
	c1.078-1.795,0.496-4.125-1.299-5.203c-1.795-1.079-4.126-0.498-5.206,1.299l-25.219,41.986c-1.077,1.797-0.496,4.127,1.3,5.205
	c0.517,0.312,1.075,0.477,1.638,0.521c0.006,0,0.01,0,0.014,0.001c0.1,0.008,0.199,0.02,0.297,0.02c0.014,0,0.027-0.003,0.041-0.003
	c0.014,0,0.027,0.003,0.039,0.003h18.49L73.42,192.674c-1.079,1.795-0.497,4.125,1.299,5.204c0.611,0.367,1.284,0.541,1.949,0.541
	c1.288,0,2.543-0.656,3.255-1.841l25.218-41.987C105.845,153.42,105.865,151.96,105.192,150.771z"/>
<path fill="#878787" d="M140.481,49.513c-1.312,0-2.61,0.068-3.894,0.188c-9.119-10.279-22.418-16.766-37.238-16.766
	c-24.884,0-45.501,18.265-49.182,42.118c-1.52-0.248-3.078-0.381-4.667-0.381c-16.125,0-29.166,13.206-28.896,29.393
	c0.265,15.848,13.523,28.405,29.371,28.405h26.603c1.33,0,2.564-0.698,3.25-1.84l0,0c1.519-2.528-0.303-5.746-3.25-5.746H45.925
	c-11.925,0-21.938-9.758-21.735-21.682c0.197-11.584,9.681-20.945,21.311-20.945c1.137,0,2.297,0.095,3.451,0.282l7.547,1.226
	l1.166-7.557c1.518-9.84,6.528-18.868,14.104-25.424c7.651-6.619,17.447-10.266,27.579-10.266c12.048,0,23.552,5.181,31.563,14.213
	l2.551,2.875l3.826-0.355c1.121-0.104,2.166-0.155,3.191-0.155c18.863,0,34.18,15.491,33.891,34.421
	c-0.283,18.599-15.805,33.367-34.404,33.367h-30.52c-1.332,0-2.566,0.698-3.252,1.841l0,0c-1.52,2.527,0.303,5.744,3.252,5.744
	h30.416c22.797,0,41.799-18.134,42.094-40.929C182.257,68.382,163.574,49.513,140.481,49.513z"/>
<path fill="#2B7EC2" d="M122.21,185.598c-0.395,0-0.791-0.072-1.16-0.209h-0.034l-0.209-0.1c-0.013-0.007-0.024-0.014-0.037-0.02
	l-0.209-0.106c-0.929-0.522-1.55-1.449-1.679-2.519l-2.073-17.095c-0.156-1.282,0.448-2.557,1.543-3.243l14.562-9.162
	c0.939-0.593,2.166-0.672,3.178-0.213l0.257,0.131c0.928,0.521,1.551,1.443,1.683,2.512l2.114,17.103
	c0.157,1.289-0.448,2.566-1.549,3.255l-14.604,9.153C123.458,185.419,122.841,185.598,122.21,185.598z M123.723,166.854l1.183,9.742
	l8.319-5.215l-1.205-9.747L123.723,166.854z"/>
</svg>
