<?xml version="1.0" encoding="utf-8"?>
<!-- Generator: Adobe Illustrator 16.0.0, SVG Export Plug-In . SVG Version: 6.00 Build 0)  -->
<!DOCTYPE svg PUBLIC "-//W3C//DTD SVG 1.1//EN" "http://www.w3.org/Graphics/SVG/1.1/DTD/svg11.dtd">
<svg version="1.1" id="Icons" xmlns="http://www.w3.org/2000/svg" xmlns:xlink="http://www.w3.org/1999/xlink" x="0px" y="0px"
	 width="32px" height="32px" viewBox="0 0 198.425 198.43" enable-background="new 0 0 198.425 198.43"
	 xml:space="preserve">
<path fill="#494949" d="M61.262,57.094l3.83,0.36l2.551-2.88c8.01-9.03,19.52-14.21,31.56-14.21c10.141,0,19.93,3.64,27.58,10.27
	c7.58,6.56,12.59,15.58,14.109,25.42l1.16,7.561l7.551-1.23c1.16-0.18,2.32-0.28,3.449-0.28c11.75,0,21.32,9.57,21.32,21.32
	s-9.57,21.311-21.32,21.311H58.073c-18.691,0-33.891-15.211-33.891-33.899c0-18.69,15.201-33.89,33.891-33.89
	C59.102,56.945,60.141,56.995,61.262,57.094z"/>
<path fill="#FF9838" d="M195.529,66.283c-0.016,0-0.027,0-0.045,0.001c-0.328,0.008-0.658,0.012-0.988,0.012
	c-14.459,0-28.521-7.501-36.27-20.924c-7.926-13.729-7.186-30.077,0.52-42.724c0.705-1.156-0.156-2.566-1.418-2.566
	c-0.117,0-0.242,0.013-0.371,0.04c-4.174,0.895-8.277,2.447-12.174,4.701c-14.057,8.131-21.641,23.781-20.662,39.239
	c1.799,1.157,3.521,2.441,5.154,3.854c1.412,1.222,2.734,2.526,3.979,3.896c-4.568-14.171,0.725-30.518,13.188-39.074
	c-2.972,12.181-1.243,25.238,5.216,36.425c6.428,11.133,16.914,19.187,28.965,22.721c-4.633,2.239-9.719,3.413-14.853,3.413
	c-2.179,0-4.369-0.21-6.515-0.624c-0.787-0.151-1.606-0.226-2.506-0.226c-2.969,0-6.408,0.847-10.051,1.743
	c-0.605,0.149-1.248,0.308-1.896,0.462l0.428,2.756l3.771-0.613c1.354-0.22,2.719-0.331,4.061-0.331
	c5.252,0,10.129,1.623,14.163,4.391c6.623-0.23,13.284-2.041,19.425-5.586c3.885-2.243,7.273-5.017,10.129-8.176
	C197.765,68.005,196.986,66.283,195.529,66.283z"/>
<path fill="#494949" d="M153.064,74.674c-1.59,0-3.146,0.133-4.668,0.38c-3.68-23.854-24.297-42.117-49.182-42.117
	c-14.82,0-28.12,6.485-37.237,16.765c-1.283-0.119-2.581-0.188-3.895-0.188c-23.091,0-41.775,18.869-41.476,42.029
	c0.296,22.795,19.298,40.93,42.094,40.93h33.877c1.332,0,2.566-0.699,3.252-1.841l0,0c1.519-2.526-0.303-5.745-3.252-5.745h-33.98
	c-18.6,0-34.12-14.77-34.404-33.367c-0.289-18.93,15.025-34.422,33.889-34.422c1.028,0,2.072,0.051,3.191,0.155l3.828,0.355
	l2.551-2.876c8.011-9.031,19.515-14.213,31.562-14.213c10.133,0,19.928,3.646,27.581,10.266
	c7.578,6.556,12.588,15.585,14.104,25.425l1.168,7.557l7.548-1.226c1.15-0.188,2.311-0.282,3.45-0.282
	c11.627,0,21.11,9.362,21.312,20.944c0.203,11.924-9.812,21.684-21.736,21.684h-23.189c-1.332,0-2.564,0.697-3.252,1.84l0,0
	c-1.519,2.527,0.303,5.745,3.252,5.745h23.141c15.849,0,29.104-12.56,29.371-28.405C182.228,87.879,169.187,74.674,153.064,74.674z"
	/>
<path fill="#FF9838" d="M125.193,150.771c-0.674-1.188-1.936-1.926-3.302-1.926h-18.567l21.77-36.242
	c1.078-1.795,0.498-4.125-1.299-5.203c-1.795-1.078-4.125-0.498-5.203,1.3l-25.22,41.987c-1.077,1.795-0.497,4.125,1.299,5.203
	c0.518,0.312,1.076,0.477,1.64,0.521c0.005,0.001,0.009,0.001,0.013,0.001c0.099,0.008,0.197,0.02,0.297,0.02
	c0.015,0,0.027-0.003,0.041-0.003c0.014,0,0.027,0.003,0.039,0.003h18.491l-21.768,36.242c-1.079,1.795-0.498,4.125,1.298,5.204
	c0.61,0.367,1.284,0.541,1.949,0.541c1.288,0,2.543-0.656,3.255-1.841l25.219-41.987C125.845,153.42,125.865,151.96,125.193,150.771
	z"/>
<path fill="#2B7EC2" d="M56.212,185.598c-0.395,0-0.791-0.072-1.161-0.209h-0.034l-0.209-0.1c-0.012-0.007-0.025-0.014-0.038-0.02
	l-0.208-0.106c-0.929-0.522-1.55-1.449-1.679-2.519L50.81,165.55c-0.156-1.282,0.449-2.557,1.543-3.243l14.562-9.162
	c0.94-0.593,2.166-0.672,3.177-0.213l0.257,0.131c0.928,0.521,1.551,1.443,1.682,2.512l2.115,17.103
	c0.158,1.289-0.449,2.566-1.549,3.255l-14.605,9.153C57.458,185.419,56.843,185.598,56.212,185.598z M57.724,166.854l1.182,9.742
	l8.32-5.215l-1.205-9.747L57.724,166.854z"/>
</svg>
