<?xml version="1.0" encoding="utf-8"?>
<!-- Generator: Adobe Illustrator 16.0.0, SVG Export Plug-In . SVG Version: 6.00 Build 0)  -->
<!DOCTYPE svg PUBLIC "-//W3C//DTD SVG 1.1//EN" "http://www.w3.org/Graphics/SVG/1.1/DTD/svg11.dtd">
<svg version="1.1" id="Icons" xmlns="http://www.w3.org/2000/svg" xmlns:xlink="http://www.w3.org/1999/xlink" x="0px" y="0px"
	 width="32px" height="32px" viewBox="0 0 198.425 198.43" enable-background="new 0 0 198.425 198.43"
	 xml:space="preserve">
<path fill="#B6BBBF" d="M99.103,81.794c14.12,0,25.6,11.479,25.6,25.601c0,14.109-11.479,25.602-25.6,25.602h-75.98
	c-8.57,0-15.54-6.971-15.54-15.541c0-8.561,6.97-15.529,15.54-15.529c0.82,0,1.67,0.07,2.51,0.209l7.55,1.221l1.17-7.561
	c1.16-7.51,4.98-14.41,10.77-19.42c5.85-5.061,13.33-7.84,21.07-7.84c9.21,0,18,3.949,24.12,10.85l2.55,2.88l3.83-0.35
	C97.542,81.834,98.333,81.794,99.103,81.794z"/>
<path fill="#FF9838" d="M49.51,68.846C53.083,44.598,67.129,22.01,89.486,9.077c7.673-4.439,15.766-7.5,23.989-9.265
	c0.25-0.054,0.493-0.078,0.729-0.078c2.482,0,4.182,2.779,2.791,5.061c-13.703,22.491-16.221,50.93-5.096,76.146
	c-2.854-1.387-5.968-2.317-9.242-2.715c-7.988-22.2-6.961-46.767,3.025-68.33c-4.279,1.525-8.426,3.446-12.401,5.746
	c-8.529,4.935-15.879,11.482-21.848,19.465c-5.773,7.724-9.997,16.425-12.554,25.861c-0.43,1.59-0.805,3.185-1.133,4.784
	C54.887,66.445,52.119,67.482,49.51,68.846z"/>
<path fill="#FF9838" d="M77.199,158.673c-0.672-1.19-1.935-1.925-3.301-1.925H55.332l17.027-28.354
	c1.08-1.795,0.498-4.125-1.297-5.203c-1.796-1.08-4.125-0.498-5.204,1.3l-20.479,34.098c-1.078,1.795-0.498,4.125,1.298,5.203
	c0.517,0.31,1.077,0.476,1.639,0.521c0.004,0.002,0.008,0.002,0.012,0.002c0.099,0.01,0.198,0.021,0.297,0.021
	c0.013,0,0.027-0.003,0.041-0.004c0.013,0.001,0.026,0.003,0.039,0.003h18.491l-17.028,28.352c-1.078,1.795-0.498,4.125,1.298,5.205
	c0.611,0.366,1.285,0.541,1.949,0.541c1.289,0,2.544-0.656,3.255-1.841l20.479-34.097C77.853,161.322,77.873,159.863,77.199,158.673
	z"/>
<path fill="#FF9838" d="M189.475,130.18c-0.028,0-0.06,0-0.089,0.002c-0.645,0.015-1.299,0.022-1.944,0.022
	c-21.905,0-43.343-8.747-59.024-24.81c0.045,0.662,0.076,1.326,0.076,1.998c0,2.625-0.353,5.168-0.998,7.59
	c4.752,4.237,9.948,7.979,15.524,11.129c11.161,6.304,23.571,10.154,36.299,11.31c-3.446,2.933-7.168,5.554-11.129,7.84
	c-11.379,6.57-24.293,10.043-37.349,10.043c-13.002,0-25.85-3.396-37.15-9.825c-3.979-2.264-7.729-4.886-11.209-7.824
	c-0.656-0.555-1.48-0.867-2.341-0.867h-0.584c-0.534,0-1.051,0.125-1.521,0.344v-0.479c0,0-4.365-1.383-4.76,0.119
	c-0.35,1.325,1.645,4.289,3.875,6.299c0.021,0.019,0.037,0.039,0.058,0.06c0.077,0.063,0.155,0.13,0.233,0.196
	c0.08,0.066,0.16,0.134,0.24,0.197c14.953,12.582,33.872,19.366,53.157,19.366c13.986,0,28.158-3.562,41.143-11.059
	c7.656-4.42,14.334-9.888,19.959-16.109C193.882,133.573,192.345,130.18,189.475,130.18z"/>
<g id="XMLID_1_">
	<g>
		<path fill="#B6BBBF" d="M99.103,74.215c18.52,0,33.49,15.16,33.18,33.74c-0.311,18.2-15.53,32.62-33.73,32.62h-21.55
			c-2.21,0-3.8-1.82-3.8-3.811c0-0.649,0.17-1.31,0.55-1.939c0.69-1.141,1.92-1.841,3.25-1.841h21.62
			c13.979,0,25.74-11,26.07-24.979c0.34-14.39-11.271-26.21-25.59-26.21c-0.78,0-1.56,0.04-2.41,0.12l-3.83,0.35l-2.55-2.87
			c-6.12-6.9-14.91-10.86-24.12-10.86c-7.74,0-15.22,2.78-21.07,7.84c-5.79,5.01-9.61,11.91-10.77,19.42l-1.17,7.56l-7.55-1.229
			c-0.84-0.13-1.69-0.2-2.51-0.2c-8.48,0-15.39,6.82-15.54,15.26c-0.14,8.7,7.2,15.811,15.89,15.811h21.6c2.22,0,3.8,1.819,3.8,3.79
			c0,0.649-0.17,1.319-0.55,1.949c-0.68,1.141-1.92,1.841-3.25,1.841h-21.5c-12.96,0-23.82-10.61-23.57-23.57
			c0.24-12.56,10.5-22.67,23.12-22.67c1.27,0,2.51,0.11,3.73,0.31c2.94-19.09,19.44-33.69,39.34-33.69
			c11.86,0,22.5,5.18,29.79,13.41C97.012,74.265,98.052,74.215,99.103,74.215z"/>
	</g>
	<g>
	</g>
</g>
</svg>
