<?xml version="1.0" encoding="utf-8"?>
<!-- Generator: Adobe Illustrator 16.0.0, SVG Export Plug-In . SVG Version: 6.00 Build 0)  -->
<!DOCTYPE svg PUBLIC "-//W3C//DTD SVG 1.1//EN" "http://www.w3.org/Graphics/SVG/1.1/DTD/svg11.dtd">
<svg version="1.1" id="Icons" xmlns="http://www.w3.org/2000/svg" xmlns:xlink="http://www.w3.org/1999/xlink" x="0px" y="0px"
	 width="32px" height="32px" viewBox="0 0 198.425 198.43" enable-background="new 0 0 198.425 198.43"
	 xml:space="preserve">
<path fill="#494949" d="M61.262,57.094l3.83,0.36l2.551-2.88c8.01-9.03,19.52-14.21,31.56-14.21c10.141,0,19.93,3.64,27.58,10.27
	c7.58,6.56,12.59,15.58,14.109,25.42l1.16,7.561l7.551-1.23c1.16-0.18,2.32-0.28,3.449-0.28c11.75,0,21.32,9.57,21.32,21.32
	s-9.57,21.311-21.32,21.311H58.073c-18.691,0-33.891-15.211-33.891-33.899c0-18.69,15.201-33.89,33.891-33.89
	C59.102,56.945,60.141,56.995,61.262,57.094z"/>
<path fill="#FF9838" d="M195.529,66.283c-0.016,0-0.027,0-0.045,0.001c-0.328,0.008-0.658,0.012-0.988,0.012
	c-14.459,0-28.521-7.501-36.27-20.924c-7.926-13.729-7.186-30.077,0.52-42.725c0.705-1.155-0.156-2.565-1.418-2.565
	c-0.117,0-0.242,0.013-0.371,0.04c-4.174,0.895-8.277,2.446-12.174,4.701c-14.057,8.131-21.641,23.78-20.662,39.238
	c1.799,1.157,3.521,2.441,5.154,3.854c1.412,1.222,2.734,2.525,3.979,3.896c-4.567-14.171,0.726-30.518,13.188-39.074
	c-2.972,12.182-1.243,25.238,5.216,36.426c6.428,11.133,16.914,19.187,28.965,22.721c-4.633,2.239-9.719,3.413-14.853,3.413
	c-2.179,0-4.369-0.21-6.515-0.624c-0.787-0.151-1.606-0.227-2.506-0.227c-2.969,0-6.408,0.848-10.051,1.743
	c-0.605,0.149-1.248,0.309-1.896,0.462l0.427,2.757L149,78.795c1.354-0.22,2.721-0.331,4.062-0.331
	c5.252,0,10.129,1.623,14.163,4.391c6.623-0.229,13.285-2.041,19.425-5.586c3.886-2.243,7.272-5.017,10.13-8.176
	C197.765,68.005,196.986,66.283,195.529,66.283z"/>
<path fill="#494949" d="M153.064,74.674c-1.59,0-3.146,0.133-4.668,0.38c-3.68-23.854-24.297-42.117-49.182-42.117
	c-14.82,0-28.12,6.485-37.237,16.766c-1.283-0.119-2.581-0.188-3.895-0.188c-23.091,0-41.775,18.869-41.476,42.029
	c0.296,22.795,19.298,40.929,42.094,40.929h53.879c1.33,0,2.563-0.697,3.25-1.84l0,0c1.521-2.527-0.304-5.744-3.25-5.744H58.597
	c-18.6,0-34.12-14.771-34.404-33.368c-0.289-18.93,15.025-34.422,33.889-34.422c1.028,0,2.072,0.051,3.191,0.155l3.828,0.354
	l2.551-2.876c8.011-9.03,19.515-14.213,31.562-14.213c10.133,0,19.928,3.646,27.581,10.267c7.578,6.556,12.588,15.585,14.104,25.425
	l1.168,7.557l7.548-1.226c1.15-0.188,2.311-0.282,3.45-0.282c11.627,0,21.11,9.362,21.312,20.944
	c0.203,11.924-9.812,21.685-21.735,21.685h-3.188c-1.332,0-2.564,0.696-3.252,1.838l0,0c-1.52,2.528,0.303,5.746,3.252,5.746h3.141
	c15.849,0,29.104-12.56,29.371-28.404C182.228,87.879,169.187,74.674,153.064,74.674z"/>
<path fill="#FF9838" d="M145.193,150.771c-0.674-1.188-1.936-1.926-3.302-1.926h-18.567l21.771-36.242
	c1.076-1.795,0.496-4.125-1.301-5.203c-1.795-1.078-4.125-0.498-5.203,1.301l-25.221,41.986c-1.076,1.795-0.496,4.125,1.301,5.203
	c0.518,0.312,1.074,0.478,1.64,0.521c0.005,0.001,0.009,0.001,0.013,0.001c0.102,0.008,0.199,0.02,0.301,0.02
	c0.014,0,0.025-0.003,0.041-0.003c0.014,0,0.023,0.003,0.039,0.003h18.488l-21.77,36.242c-1.078,1.795-0.498,4.125,1.3,5.204
	c0.608,0.367,1.282,0.541,1.946,0.541c1.289,0,2.545-0.656,3.256-1.841l25.22-41.987C145.845,153.42,145.865,151.96,145.193,150.771
	z"/>
<g>
	<path fill="#45A4F3" d="M83.177,181.839c-0.664,0-1.336-0.175-1.947-0.542c-1.795-1.078-2.377-3.409-1.299-5.203l15.26-25.406
		c1.08-1.797,3.407-2.379,5.206-1.3c1.795,1.079,2.377,3.409,1.3,5.204l-15.261,25.406
		C85.723,181.184,84.466,181.839,83.177,181.839z"/>
</g>
<g>
	<path fill="#45A4F3" d="M48.414,198.42c-0.664,0-1.337-0.175-1.948-0.542c-1.796-1.078-2.377-3.409-1.298-5.203l25.218-41.987
		c1.078-1.797,3.406-2.379,5.203-1.3c1.797,1.078,2.377,3.409,1.299,5.204L51.67,196.58C50.959,197.764,49.702,198.42,48.414,198.42
		z"/>
</g>
<g>
	<path fill="#45A4F3" d="M33.571,181.839c-0.665,0-1.338-0.175-1.949-0.542c-1.796-1.078-2.377-3.409-1.298-5.203l15.258-25.406
		c1.079-1.797,3.407-2.379,5.204-1.3c1.796,1.079,2.378,3.409,1.298,5.204l-15.259,25.406
		C36.114,181.184,34.859,181.839,33.571,181.839z"/>
</g>
</svg>
