<?xml version="1.0" encoding="utf-8"?>
<!-- Generator: Adobe Illustrator 16.0.0, SVG Export Plug-In . SVG Version: 6.00 Build 0)  -->
<!DOCTYPE svg PUBLIC "-//W3C//DTD SVG 1.1//EN" "http://www.w3.org/Graphics/SVG/1.1/DTD/svg11.dtd">
<svg version="1.1" id="Icons" xmlns="http://www.w3.org/2000/svg" xmlns:xlink="http://www.w3.org/1999/xlink" x="0px" y="0px"
	 width="32px" height="32px" viewBox="0 0 198.425 198.43" enable-background="new 0 0 198.425 198.43"
	 xml:space="preserve">
<path fill="#494949" d="M140.482,56.945c18.689,0,33.891,15.2,33.891,33.89c0,18.688-15.199,33.899-33.891,33.899h-94.98
	c-11.75,0-21.32-9.561-21.32-21.311s9.57-21.32,21.32-21.32c1.13,0,2.29,0.1,3.45,0.28l7.55,1.23l1.16-7.561
	c1.52-9.84,6.53-18.86,14.11-25.42c7.65-6.63,17.44-10.27,27.58-10.27c12.04,0,23.55,5.18,31.56,14.21l2.551,2.88l3.83-0.36
	C138.414,56.995,139.453,56.945,140.482,56.945z"/>
<g>
	<g>
		<path fill="#FF9838" d="M57.935,24.565c-2.094,0-3.792-1.697-3.792-3.793V3.575c0-2.096,1.698-3.792,3.792-3.792
			s3.793,1.696,3.793,3.792V20.77C61.728,22.866,60.03,24.565,57.935,24.565z"/>
	</g>
	<g>
		<path fill="#FF9838" d="M31.908,35.345c-0.97,0-1.941-0.37-2.682-1.11l-12.158-12.16c-1.482-1.481-1.482-3.885,0-5.364
			c1.48-1.48,3.883-1.48,5.362,0L34.589,28.87c1.482,1.479,1.482,3.883,0,5.362C33.85,34.975,32.879,35.345,31.908,35.345z"/>
	</g>
	<g>
		<path fill="#FF9838" d="M21.128,61.373H3.931c-2.094,0-3.792-1.698-3.792-3.793c0-2.096,1.699-3.793,3.792-3.793h17.197
			c2.094,0,3.792,1.697,3.792,3.793C24.92,59.674,23.222,61.373,21.128,61.373z"/>
	</g>
	<path fill="#FF9838" d="M38.654,79.262c2.178-0.618,4.473-0.957,6.847-0.957c1.339,0,2.704,0.111,4.06,0.331l3.773,0.613
		l0.105-0.688C43.822,76.492,36.592,67.926,36.592,57.7c0-11.771,9.574-21.347,21.344-21.347c6.558,0,12.432,2.978,16.351,7.646
		c2.166-1.409,4.443-2.624,6.803-3.646C75.812,33.321,67.406,28.77,57.936,28.77c-15.977,0-28.93,12.952-28.93,28.932
		C29.007,66.269,32.735,73.965,38.654,79.262z"/>
</g>
<path fill="#FF9838" d="M105.192,150.771c-0.674-1.188-1.937-1.924-3.302-1.924H83.322l21.769-36.244
	c1.078-1.795,0.496-4.125-1.299-5.203c-1.795-1.079-4.125-0.498-5.206,1.3l-25.219,41.985c-1.077,1.797-0.496,4.127,1.3,5.205
	c0.517,0.312,1.075,0.478,1.638,0.521c0.006,0,0.01,0,0.014,0.001c0.1,0.008,0.199,0.02,0.297,0.02c0.014,0,0.027-0.003,0.041-0.003
	c0.014,0,0.027,0.003,0.039,0.003h18.49L73.42,192.674c-1.079,1.795-0.497,4.125,1.299,5.204c0.611,0.367,1.284,0.541,1.949,0.541
	c1.288,0,2.543-0.656,3.255-1.841l25.218-41.987C105.845,153.42,105.865,151.96,105.192,150.771z"/>
<path fill="#494949" d="M140.481,49.513c-1.312,0-2.61,0.068-3.894,0.188c-9.119-10.279-22.418-16.767-37.238-16.767
	c-24.884,0-45.501,18.266-49.182,42.118c-1.52-0.248-3.078-0.381-4.667-0.381c-16.125,0-29.166,13.206-28.896,29.394
	c0.265,15.848,13.523,28.404,29.371,28.404h26.603c1.33,0,2.564-0.697,3.25-1.84l0,0c1.519-2.527-0.303-5.746-3.25-5.746H45.925
	c-11.925,0-21.938-9.758-21.735-21.682c0.197-11.584,9.681-20.945,21.311-20.945c1.137,0,2.297,0.095,3.451,0.282l7.547,1.226
	l1.166-7.557c1.518-9.84,6.528-18.868,14.104-25.424c7.651-6.619,17.447-10.267,27.579-10.267c12.048,0,23.552,5.182,31.563,14.213
	l2.551,2.875l3.826-0.354c1.121-0.104,2.166-0.155,3.19-0.155c18.864,0,34.181,15.491,33.892,34.421
	c-0.283,18.6-15.806,33.367-34.404,33.367h-30.52c-1.332,0-2.566,0.698-3.253,1.84l0,0c-1.521,2.528,0.304,5.745,3.253,5.745h30.416
	c22.797,0,41.799-18.134,42.094-40.929C182.257,68.382,163.574,49.513,140.481,49.513z"/>
<path fill="#878787" d="M144.065,198.43c-2.925,0-5.403-0.476-7.373-1.414c-1.976-0.938-2.978-2.305-2.978-4.052
	c0-0.753,0.246-1.396,0.729-1.909c0.483-0.513,1.087-0.771,1.789-0.771c1.291,0,2.151,0.667,2.56,1.981
	c1.31,0.666,3.082,1.002,5.271,1.002c2.511,0,4.323-0.336,5.394-1.002c0.403-1.313,1.266-1.981,2.559-1.981
	c0.703,0,1.318,0.271,1.83,0.812c0.513,0.538,0.771,1.166,0.771,1.867c0,1.748-1.021,3.11-3.037,4.053
	C149.569,197.954,147.041,198.43,144.065,198.43z M143.015,188.623c-3.752,0-6.911-0.577-9.391-1.716
	c-2.484-1.145-3.744-2.743-3.744-4.763c0-1.64,0.816-3.016,2.431-4.091c0.444-0.282,0.907-0.419,1.396-0.419
	c0.174,0,0.354,0.018,0.545,0.057c0.678,0.134,1.244,0.502,1.678,1.096c0.326,0.465,0.468,1.031,0.429,1.706
	c-0.041,0.668-0.272,1.222-0.692,1.646c1.867,0.852,4.344,1.279,7.354,1.279c1.872,0,3.566-0.186,5.04-0.545
	c1.467-0.359,2.479-0.757,3.015-1.182c0.139-0.627,0.439-1.143,0.932-1.576c0.492-0.437,1.052-0.651,1.668-0.651
	c0.756,0,1.385,0.261,1.869,0.771c0.485,0.515,0.731,1.154,0.731,1.908c0,2.02-1.269,3.617-3.765,4.76
	C150.014,188.046,146.822,188.623,143.015,188.623z M147.697,178.494c-7.316,0-12.859-1.291-16.477-3.838
	c-1.98-1.34-2.995-2.989-2.995-4.897c0-2.17,1.325-4.045,3.94-5.571c-1.998-1.552-3.015-3.384-3.015-5.443
	c0-2.691,1.597-4.911,4.875-6.786c-0.892-1.19-1.321-2.472-1.321-3.908c0-2.423,1.303-4.526,3.979-6.431
	c2.642-1.876,6.14-3.264,10.397-4.119c3.961-0.855,8.446-1.292,13.319-1.292c10.341,0,18.302,1.808,23.66,5.37
	c2.778,1.908,4.123,4.021,4.123,6.472c0,3.78-3.177,6.826-9.438,9.052c0.156,0.588,0.236,1.143,0.236,1.646
	c0,2.067-1.102,3.928-3.273,5.521c-2.168,1.592-5.189,2.875-8.982,3.812c0.209,0.562,0.314,1.127,0.314,1.683
	c0,1.854-0.953,3.488-2.834,4.857c-1.873,1.364-4.332,2.386-7.311,3.028C154.082,178.21,150.99,178.494,147.697,178.494z
	 M133.429,169.756c0.24,0.42,0.812,0.834,1.703,1.229c1.174,0.605,2.902,1.129,5.203,1.582c2.312,0.453,4.787,0.686,7.358,0.686
	c2.574,0,5.044-0.23,7.343-0.686c2.332-0.463,4.008-0.978,5.119-1.571c1.116-0.595,1.553-1.062,1.723-1.354l-0.709-0.629
	c-2.11,0.295-4.498,0.442-7.098,0.442c-5.923,0-11.177-0.746-15.617-2.22l-0.315,0.156l-0.103,0.029
	c-0.933,0.266-1.785,0.58-2.539,0.938c-0.785,0.373-1.289,0.672-1.535,0.91C133.729,169.475,133.501,169.664,133.429,169.756z
	 M138.617,155.573c-1.912,0.771-3.222,1.577-3.892,2.397c-0.283,0.318-0.41,0.562-0.41,0.771c0,0.153,0,0.631,0.742,1.224
	c1.118,1.021,3.262,1.957,6.428,2.835c3.324,0.992,7.554,1.492,12.587,1.492c5.004,0,9.225-0.502,12.547-1.492
	c3.055-0.885,5.168-1.833,6.289-2.821c0.51-0.43,0.76-0.841,0.76-1.234v-0.223c-4.117,0.854-8.578,1.287-13.258,1.287
	C151.226,159.809,143.893,158.384,138.617,155.573z M160.41,141.367c-5.492,0-10.257,0.583-14.16,1.732
	c-3.666,1.068-6.146,2.193-7.377,3.344c-0.649,0.599-0.963,1.117-0.963,1.604c0,0.168,0,0.68,0.961,1.521
	c1.219,1.189,3.688,2.313,7.379,3.387c3.912,1.15,8.674,1.732,14.16,1.732c5.514,0,10.317-0.584,14.28-1.732
	c3.688-1.098,6.175-2.235,7.377-3.387c0.627-0.571,0.923-1.063,0.923-1.521c0-0.449-0.312-0.988-0.923-1.602
	c-1.194-1.146-3.687-2.273-7.377-3.346C170.731,141.951,165.925,141.367,160.41,141.367z"/>
</svg>
