<?xml version="1.0" encoding="utf-8"?>
<!-- Generator: Adobe Illustrator 16.0.0, SVG Export Plug-In . SVG Version: 6.00 Build 0)  -->
<!DOCTYPE svg PUBLIC "-//W3C//DTD SVG 1.1//EN" "http://www.w3.org/Graphics/SVG/1.1/DTD/svg11.dtd">
<svg version="1.1" id="Icons" xmlns="http://www.w3.org/2000/svg" xmlns:xlink="http://www.w3.org/1999/xlink" x="0px" y="0px"
	 width="32px" height="32px" viewBox="0 0 198.425 198.43" enable-background="new 0 0 198.425 198.43"
	 xml:space="preserve">
<path fill="#494949" d="M61.262,57.094l3.83,0.36l2.551-2.88c8.01-9.03,19.52-14.21,31.56-14.21c10.141,0,19.93,3.64,27.58,10.27
	c7.58,6.56,12.59,15.58,14.109,25.42l1.16,7.561l7.551-1.23c1.16-0.18,2.32-0.28,3.449-0.28c11.75,0,21.32,9.57,21.32,21.32
	s-9.57,21.311-21.32,21.311H58.073c-18.691,0-33.891-15.211-33.891-33.899c0-18.69,15.201-33.89,33.891-33.89
	C59.102,56.945,60.141,56.995,61.262,57.094z"/>
<path fill="#FF9838" d="M195.529,66.283c-0.016,0-0.027,0-0.045,0.001c-0.328,0.008-0.658,0.012-0.988,0.012
	c-14.459,0-28.521-7.501-36.27-20.924c-7.926-13.729-7.186-30.077,0.52-42.725c0.705-1.155-0.156-2.565-1.418-2.565
	c-0.117,0-0.242,0.013-0.371,0.04c-4.174,0.895-8.277,2.446-12.174,4.701c-14.057,8.131-21.641,23.78-20.662,39.238
	c1.799,1.157,3.521,2.441,5.154,3.854c1.412,1.222,2.734,2.525,3.979,3.896c-4.567-14.171,0.726-30.518,13.188-39.074
	c-2.972,12.182-1.243,25.238,5.216,36.426c6.428,11.133,16.914,19.187,28.965,22.721c-4.633,2.239-9.719,3.413-14.853,3.413
	c-2.179,0-4.369-0.21-6.515-0.624c-0.787-0.151-1.606-0.227-2.506-0.227c-2.969,0-6.408,0.848-10.051,1.743
	c-0.605,0.149-1.248,0.309-1.896,0.462l0.427,2.757L149,78.795c1.354-0.22,2.721-0.331,4.062-0.331
	c5.252,0,10.129,1.623,14.163,4.391c6.623-0.229,13.285-2.041,19.425-5.586c3.886-2.243,7.272-5.017,10.13-8.176
	C197.765,68.005,196.986,66.283,195.529,66.283z"/>
<path fill="#494949" d="M153.064,74.674c-1.59,0-3.146,0.133-4.668,0.38c-3.68-23.854-24.297-42.117-49.182-42.117
	c-14.82,0-28.12,6.485-37.237,16.766c-1.283-0.119-2.581-0.188-3.895-0.188c-23.091,0-41.775,18.869-41.476,42.029
	c0.296,22.795,19.298,40.929,42.094,40.929h33.877c1.332,0,2.566-0.697,3.252-1.84l0,0c1.519-2.527-0.303-5.744-3.252-5.744h-33.98
	c-18.6,0-34.12-14.771-34.404-33.368c-0.289-18.93,15.025-34.422,33.889-34.422c1.028,0,2.072,0.051,3.191,0.155l3.828,0.354
	l2.551-2.876c8.011-9.03,19.515-14.213,31.562-14.213c10.133,0,19.928,3.646,27.581,10.267c7.578,6.556,12.588,15.585,14.104,25.425
	l1.168,7.557l7.548-1.226c1.15-0.188,2.311-0.282,3.45-0.282c11.627,0,21.11,9.362,21.312,20.944
	c0.203,11.924-9.812,21.685-21.735,21.685h-23.188c-1.332,0-2.564,0.696-3.252,1.838l0,0c-1.52,2.528,0.303,5.746,3.252,5.746
	h23.141c15.849,0,29.104-12.56,29.371-28.404C182.228,87.879,169.187,74.674,153.064,74.674z"/>
<path fill="#FF9838" d="M125.193,150.771c-0.674-1.188-1.936-1.926-3.302-1.926h-18.567l21.771-36.242
	c1.076-1.795,0.496-4.125-1.301-5.203c-1.795-1.078-4.125-0.498-5.203,1.301l-25.219,41.986c-1.077,1.795-0.497,4.125,1.299,5.203
	c0.518,0.312,1.076,0.478,1.64,0.521c0.005,0.001,0.009,0.001,0.013,0.001c0.099,0.008,0.197,0.02,0.297,0.02
	c0.015,0,0.027-0.003,0.041-0.003c0.014,0,0.027,0.003,0.039,0.003h18.491l-21.768,36.242c-1.079,1.795-0.498,4.125,1.298,5.204
	c0.61,0.367,1.284,0.541,1.949,0.541c1.288,0,2.543-0.656,3.254-1.841l25.22-41.987C125.845,153.42,125.865,151.96,125.193,150.771z
	"/>
<path fill="#878787" d="M35.065,198.43c-2.925,0-5.403-0.476-7.373-1.414c-1.976-0.938-2.978-2.305-2.978-4.052
	c0-0.753,0.246-1.396,0.73-1.909c0.484-0.513,1.086-0.771,1.789-0.771c1.291,0,2.151,0.667,2.559,1.981
	c1.31,0.666,3.082,1.002,5.271,1.002c2.51,0,4.323-0.336,5.393-1.002c0.404-1.313,1.266-1.981,2.559-1.981
	c0.703,0,1.318,0.271,1.831,0.812c0.512,0.538,0.771,1.166,0.771,1.867c0,1.748-1.021,3.11-3.037,4.053
	C40.569,197.954,38.041,198.43,35.065,198.43z M34.015,188.623c-3.752,0-6.911-0.577-9.391-1.716
	c-2.484-1.145-3.744-2.743-3.744-4.763c0-1.64,0.816-3.016,2.431-4.091c0.444-0.282,0.907-0.419,1.396-0.419
	c0.174,0,0.354,0.018,0.545,0.057c0.678,0.134,1.244,0.502,1.678,1.096c0.326,0.465,0.467,1.031,0.428,1.706
	c-0.041,0.668-0.273,1.222-0.693,1.646c1.867,0.852,4.344,1.279,7.354,1.279c1.872,0,3.567-0.186,5.04-0.545
	c1.467-0.359,2.479-0.757,3.014-1.182c0.139-0.627,0.441-1.143,0.932-1.576c0.492-0.437,1.052-0.651,1.668-0.651
	c0.756,0,1.385,0.261,1.869,0.771c0.486,0.515,0.732,1.154,0.732,1.908c0,2.02-1.268,3.617-3.764,4.76
	C41.014,188.046,37.821,188.623,34.015,188.623z M38.696,178.494c-7.315,0-12.858-1.291-16.477-3.838
	c-1.98-1.34-2.995-2.989-2.995-4.897c0-2.17,1.325-4.045,3.94-5.571c-1.998-1.552-3.014-3.384-3.014-5.443
	c0-2.691,1.596-4.911,4.875-6.786c-0.891-1.19-1.322-2.472-1.322-3.908c0-2.423,1.303-4.526,3.98-6.431
	c2.641-1.876,6.139-3.264,10.398-4.119c3.961-0.855,8.446-1.292,13.319-1.292c10.341,0,18.302,1.808,23.66,5.37
	c2.778,1.908,4.123,4.021,4.123,6.472c0,3.78-3.176,6.826-9.438,9.052c0.156,0.588,0.236,1.143,0.236,1.646
	c0,2.067-1.102,3.928-3.273,5.521c-2.168,1.592-5.19,2.875-8.983,3.812c0.209,0.562,0.315,1.127,0.315,1.683
	c0,1.854-0.953,3.488-2.834,4.857c-1.873,1.364-4.332,2.386-7.311,3.028C45.082,178.21,41.989,178.494,38.696,178.494z
	 M24.429,169.756c0.24,0.42,0.812,0.834,1.703,1.229c1.174,0.605,2.902,1.129,5.203,1.582c2.312,0.453,4.787,0.686,7.359,0.686
	c2.574,0,5.043-0.23,7.342-0.686c2.332-0.463,4.008-0.978,5.119-1.571c1.117-0.595,1.553-1.062,1.723-1.354l-0.709-0.629
	c-2.11,0.295-4.498,0.442-7.098,0.442c-5.922,0-11.176-0.746-15.617-2.22l-0.315,0.156l-0.103,0.029
	c-0.932,0.266-1.785,0.58-2.539,0.938c-0.785,0.373-1.289,0.672-1.535,0.91C24.729,169.475,24.501,169.664,24.429,169.756z
	 M29.617,155.573c-1.912,0.771-3.222,1.577-3.892,2.397c-0.283,0.318-0.41,0.562-0.41,0.771c0,0.153,0,0.631,0.742,1.224
	c1.118,1.021,3.262,1.957,6.428,2.835c3.324,0.992,7.554,1.492,12.586,1.492c5.005,0,9.226-0.502,12.548-1.492
	c3.055-0.885,5.168-1.833,6.288-2.821c0.511-0.43,0.761-0.841,0.761-1.234v-0.223c-4.117,0.854-8.578,1.287-13.258,1.287
	C42.226,159.809,34.893,158.384,29.617,155.573z M51.41,141.367c-5.492,0-10.257,0.583-14.16,1.732
	c-3.666,1.068-6.147,2.193-7.377,3.344c-0.65,0.599-0.963,1.117-0.963,1.604c0,0.168,0,0.68,0.961,1.521
	c1.219,1.189,3.687,2.313,7.379,3.387c3.912,1.15,8.674,1.732,14.16,1.732c5.514,0,10.317-0.584,14.28-1.732
	c3.688-1.098,6.174-2.235,7.377-3.387c0.627-0.571,0.922-1.063,0.922-1.521c0-0.449-0.312-0.988-0.922-1.602
	c-1.194-1.146-3.687-2.273-7.377-3.346C61.731,141.951,56.925,141.367,51.41,141.367z"/>
</svg>
