<?xml version="1.0" encoding="utf-8"?>
<!-- Generator: Adobe Illustrator 16.0.0, SVG Export Plug-In . SVG Version: 6.00 Build 0)  -->
<!DOCTYPE svg PUBLIC "-//W3C//DTD SVG 1.1//EN" "http://www.w3.org/Graphics/SVG/1.1/DTD/svg11.dtd">
<svg version="1.1" id="Icons" xmlns="http://www.w3.org/2000/svg" xmlns:xlink="http://www.w3.org/1999/xlink" x="0px" y="0px"
	 width="32px" height="32px" viewBox="0 0 198.425 198.43" enable-background="new 0 0 198.425 198.43"
	 xml:space="preserve">
<path fill="#878787" d="M18.798,91.211c-1.184,0-2.134-0.399-2.99-1.256c-0.97-0.906-1.395-1.795-1.395-2.855
	c0-1.223,0.406-2.189,1.276-3.045c0.883-0.867,1.87-1.271,3.108-1.271H165.43c2.711,0,5.034-0.936,6.905-2.778
	c1.883-1.853,2.838-4.173,2.838-6.897c0-2.708-0.946-5.042-2.812-6.938c-1.875-1.906-4.207-2.873-6.931-2.873
	c-2.677,0-4.946,0.984-6.748,2.925c-0.851,0.765-1.802,1.122-2.991,1.122c-1.257,0-2.232-0.37-3.07-1.163
	c-0.804-0.759-1.178-1.695-1.178-2.948c0-1.415,0.393-2.426,1.235-3.181l0.09-0.085c3.476-3.476,7.617-5.166,12.662-5.166
	c5.144,0,9.435,1.762,13.12,5.385c3.675,3.614,5.461,7.84,5.461,12.922c0,5.031-1.783,9.21-5.451,12.778
	c-3.688,3.583-7.98,5.325-13.13,5.325H18.798z"/>
<path fill="#878787" d="M126.269,143.334c-4.87,0-9.04-1.762-12.748-5.39c-0.961-0.866-1.376-1.791-1.376-2.975
	c0-1.119,0.401-2.029,1.263-2.861c0.883-0.852,1.877-1.248,3.122-1.248c1.103,0,1.97,0.38,2.729,1.195
	c1.906,1.912,4.246,2.853,7.011,2.853c2.748,0,5.09-0.92,6.961-2.73c1.892-1.832,2.851-4.146,2.851-6.877
	c0-2.76-0.961-5.121-2.856-7.02c-1.899-1.898-4.238-2.859-6.954-2.859H18.798c-1.211,0-2.127-0.406-2.881-1.275l-0.092-0.106
	l-0.104-0.095c-0.892-0.803-1.308-1.704-1.308-2.84c0-1.225,0.406-2.19,1.276-3.047c0.883-0.867,1.871-1.271,3.108-1.271h107.471
	c5.089,0,9.354,1.791,13.039,5.475c3.683,3.687,5.474,7.951,5.474,13.039c0,5.074-1.771,9.252-5.412,12.771
	C135.707,141.615,131.419,143.334,126.269,143.334z"/>
<path fill="#B6BBBF" d="M158.16,107.299c1.188-1.211,2.606-1.818,4.252-1.818c1.737,0,3.225,0.607,4.459,1.818
	s1.853,2.664,1.853,4.354c0,1.738-0.606,3.181-1.817,4.322c-1.213,1.144-2.71,1.715-4.492,1.715c-1.646,0-3.063-0.594-4.252-1.782
	c-1.189-1.099-1.783-2.517-1.783-4.255C156.376,109.963,156.97,108.51,158.16,107.299z"/>
<path fill="#B6BBBF" d="M34.768,135.043c0-1.584,0.667-3.043,2.003-4.379c1.334-1.334,2.793-2.002,4.379-2.002
	c1.855,0,3.36,0.645,4.514,1.935s1.731,2.772,1.731,4.446c0,1.992-0.554,3.554-1.663,4.684c-1.11,1.133-2.638,1.697-4.583,1.697
	c-1.675,0-3.157-0.588-4.447-1.764C35.413,138.484,34.768,136.945,34.768,135.043z"/>
<path fill="#B6BBBF" d="M59.66,43.803c0-1.538,0.656-2.861,1.968-3.971s2.784-1.663,4.414-1.663c1.629,0,3.1,0.554,4.412,1.663
	c1.312,1.108,1.969,2.433,1.969,3.971c0,1.901-0.646,3.429-1.936,4.583c-1.289,1.154-2.771,1.731-4.445,1.731
	c-1.676,0-3.157-0.577-4.447-1.731S59.66,45.704,59.66,43.803z"/>
<path fill="#B6BBBF" d="M55.436,134.703c0-1.538,0.656-2.861,1.97-3.972c1.311-1.108,2.781-1.664,4.412-1.664h22.198
	c1.583,0,2.897,0.543,3.938,1.63c1.041,1.086,1.56,2.422,1.56,4.006c0,1.946-0.508,3.485-1.525,4.616
	c-1.02,1.132-2.342,1.696-3.973,1.696H61.818c-1.676,0-3.157-0.577-4.448-1.73C56.081,138.131,55.436,136.604,55.436,134.703z"/>
<path fill="#B6BBBF" d="M19.572,43.736c0-1.629,0.565-2.963,1.697-4.005c1.13-1.041,2.67-1.561,4.616-1.561h21.453
	c1.945,0,3.496,0.521,4.65,1.561c1.154,1.042,1.731,2.376,1.731,4.005c0,1.947-0.577,3.497-1.731,4.65
	c-1.154,1.154-2.705,1.731-4.65,1.731H25.886c-1.946,0-3.486-0.565-4.616-1.697C20.138,47.289,19.572,45.728,19.572,43.736z"/>
<path fill="#B6BBBF" d="M37.02,65.053c0-1.674,0.531-3.157,1.595-4.447c1.063-1.29,2.364-1.935,3.904-1.935
	c1.9,0,3.439,0.645,4.616,1.935c1.177,1.29,1.766,2.772,1.766,4.447c0,1.992-0.566,3.554-1.697,4.684
	c-1.132,1.133-2.693,1.697-4.684,1.697c-1.629,0-2.953-0.577-3.971-1.73C37.529,68.549,37.02,66.999,37.02,65.053z"/>
<path fill="#B6BBBF" d="M53.72,65.053c0-1.584,0.667-3.043,2.003-4.379c1.334-1.334,2.793-2.003,4.379-2.003h27.766
	c1.901,0,3.428,0.645,4.583,1.935c1.154,1.29,1.731,2.772,1.731,4.447c0,1.992-0.566,3.554-1.698,4.684
	c-1.132,1.133-2.671,1.697-4.616,1.697H60.102c-1.675,0-3.157-0.587-4.447-1.765C54.365,68.493,53.72,66.954,53.72,65.053z"/>
<path fill="#B6BBBF" d="M98.934,65.053c0-1.584,0.667-3.043,2.001-4.379c1.336-1.334,2.796-2.003,4.381-2.003h14.188
	c1.539,0,2.852,0.656,3.938,1.969c1.086,1.313,1.629,2.784,1.629,4.413c0,1.946-0.52,3.496-1.561,4.65
	c-1.041,1.153-2.377,1.73-4.006,1.73h-14.188c-1.676,0-3.156-0.587-4.447-1.765C99.579,68.493,98.934,66.954,98.934,65.053z"/>
<path fill="#B6BBBF" d="M79.597,44.144c0-1.584,0.667-3.043,2.001-4.379c1.336-1.334,2.796-2.003,4.381-2.003h14.188
	c1.539,0,2.852,0.656,3.938,1.969c1.086,1.313,1.629,2.784,1.629,4.413c0,1.946-0.52,3.496-1.561,4.65
	c-1.041,1.153-2.377,1.73-4.006,1.73H85.979c-1.676,0-3.156-0.587-4.447-1.765C80.242,47.584,79.597,46.045,79.597,44.144z"/>
<path fill="#B6BBBF" d="M115.064,43.735c0-1.583,0.53-2.906,1.596-3.971c1.062-1.062,2.386-1.595,3.971-1.595
	c1.945,0,3.497,0.521,4.65,1.561c1.154,1.042,1.73,2.376,1.73,4.005c0,1.947-0.576,3.497-1.73,4.65
	c-1.153,1.154-2.705,1.731-4.65,1.731c-1.628,0-2.964-0.577-4.005-1.731C115.583,47.231,115.064,45.681,115.064,43.735z"/>
</svg>
