<?xml version="1.0" encoding="utf-8"?>
<!-- Generator: Adobe Illustrator 16.0.0, SVG Export Plug-In . SVG Version: 6.00 Build 0)  -->
<!DOCTYPE svg PUBLIC "-//W3C//DTD SVG 1.1//EN" "http://www.w3.org/Graphics/SVG/1.1/DTD/svg11.dtd">
<svg version="1.1" id="Icons" xmlns="http://www.w3.org/2000/svg" xmlns:xlink="http://www.w3.org/1999/xlink" x="0px" y="0px"
	 width="32px" height="32px" viewBox="0 0 198.425 198.43" enable-background="new 0 0 198.425 198.43"
	 xml:space="preserve">
<g>
	<g>
		<polygon fill="#878787" points="163.707,141.717 154.304,132.309 151.22,135.388 159.356,143.52 159.356,186.523 151.22,194.655 
			154.3,197.734 163.648,188.391 163.71,188.391 163.71,141.717 		"/>
	</g>
	<polygon fill="#878787" points="182.357,194.682 174.22,186.55 174.22,143.553 182.353,135.421 179.271,132.341 169.867,141.744 
		169.863,141.744 169.863,188.418 169.921,188.418 179.271,197.768 	"/>
</g>
<g>
	<g id="XMLID_1_">
		<g>
			<path fill="#878787" d="M140.482,56.945c18.69,0,33.891,15.2,33.891,33.89c0,18.689-15.2,33.899-33.891,33.899H45.502
				c-11.75,0-21.32-9.56-21.32-21.31c0-11.76,9.57-21.32,21.32-21.32c1.13,0,2.3,0.1,3.45,0.28l7.55,1.23l1.16-7.56
				c1.52-9.84,6.53-18.86,14.11-25.42c7.65-6.63,17.44-10.27,27.58-10.27c12.04,0,23.55,5.18,31.56,14.21l2.55,2.88l3.83-0.36
				C138.413,56.995,139.453,56.945,140.482,56.945z"/>
			<path fill="#878787" d="M140.482,49.355c22.91,0,41.48,18.57,41.48,41.47c0,22.92-18.57,41.48-41.48,41.48H45.502
				c-15.96,0-28.9-12.93-28.9-28.89s12.94-28.9,28.9-28.9c1.59,0,3.15,0.13,4.67,0.38c3.68-23.85,24.29-42.12,49.18-42.12
				c14.82,0,28.12,6.49,37.23,16.76C137.873,49.415,139.172,49.355,140.482,49.355z M174.373,90.835
				c0-18.69-15.2-33.89-33.891-33.89c-1.029,0-2.069,0.05-3.189,0.15l-3.83,0.36l-2.55-2.88c-8.01-9.03-19.521-14.21-31.56-14.21
				c-10.14,0-19.93,3.64-27.58,10.27c-7.58,6.56-12.59,15.58-14.11,25.42l-1.16,7.56l-7.55-1.23c-1.15-0.18-2.32-0.28-3.45-0.28
				c-11.75,0-21.32,9.56-21.32,21.32c0,11.75,9.57,21.31,21.32,21.31h94.979C159.172,124.734,174.373,109.524,174.373,90.835z"/>
		</g>
		<g>
		</g>
	</g>
</g>
</svg>
