<?xml version="1.0" encoding="UTF-8" standalone="no"?>
<!-- Generator: Adobe Illustrator 16.0.0, SVG Export Plug-In . SVG Version: 6.00 Build 0)  -->

<svg
   xmlns:dc="http://purl.org/dc/elements/1.1/"
   xmlns:cc="http://creativecommons.org/ns#"
   xmlns:rdf="http://www.w3.org/1999/02/22-rdf-syntax-ns#"
   xmlns:svg="http://www.w3.org/2000/svg"
   xmlns="http://www.w3.org/2000/svg"
   xmlns:sodipodi="http://sodipodi.sourceforge.net/DTD/sodipodi-0.dtd"
   xmlns:inkscape="http://www.inkscape.org/namespaces/inkscape"
   version="1.1"
   id="Icons"
   x="0px"
   y="0px"
   width="32px"
   height="32px"
   viewBox="0 0 198.425 198.43"
   enable-background="new 0 0 198.425 198.43"
   xml:space="preserve"
   inkscape:version="0.91 r13725"
   sodipodi:docname="81.svg"><metadata
     id="metadata10183"><rdf:RDF><cc:Work
         rdf:about=""><dc:format>image/svg+xml</dc:format><dc:type
           rdf:resource="http://purl.org/dc/dcmitype/StillImage" /></cc:Work></rdf:RDF></metadata><defs
     id="defs10181" /><sodipodi:namedview
     pagecolor="#ffffff"
     bordercolor="#666666"
     borderopacity="1"
     objecttolerance="10"
     gridtolerance="10"
     guidetolerance="10"
     inkscape:pageopacity="0"
     inkscape:pageshadow="2"
     inkscape:window-width="1600"
     inkscape:window-height="848"
     id="namedview10179"
     showgrid="false"
     inkscape:zoom="20.85965"
     inkscape:cx="21.961443"
     inkscape:cy="14.844293"
     inkscape:window-x="-8"
     inkscape:window-y="-8"
     inkscape:window-maximized="1"
     inkscape:current-layer="Icons" /><path
     fill="#FF9838"
     d="M195.528,66.283c-0.017,0-0.028,0-0.045,0.001c-0.327,0.008-0.657,0.012-0.987,0.012  c-14.459,0-28.521-7.501-36.271-20.924c-7.927-13.729-7.187-30.077,0.521-42.725c0.705-1.155-0.158-2.565-1.418-2.565  c-0.119,0-0.244,0.013-0.371,0.04c-4.174,0.895-8.277,2.446-12.174,4.701c-14.058,8.131-21.642,23.78-20.662,39.238  c1.797,1.157,3.521,2.441,5.153,3.854c1.412,1.223,2.735,2.525,3.979,3.896c-4.568-14.171,0.724-30.518,13.188-39.074  c-2.973,12.182-1.242,25.238,5.215,36.426c6.428,11.133,16.914,19.187,28.965,22.721c-4.633,2.239-9.719,3.413-14.852,3.413  c-2.18,0-4.369-0.21-6.516-0.624c-0.787-0.151-1.605-0.227-2.506-0.227c-2.969,0-6.406,0.848-10.051,1.743  c-0.605,0.149-1.246,0.309-1.896,0.462l0.426,2.757L149,78.795c1.354-0.22,2.719-0.331,4.062-0.331  c5.25,0,10.129,1.623,14.163,4.391c6.622-0.229,13.284-2.041,19.425-5.586c3.887-2.243,7.271-5.017,10.129-8.176  C197.764,68.005,196.983,66.283,195.528,66.283z"
     id="path10152" /><g
     id="g10154"><g
       id="XMLID_1_"><g
         id="g10157"><path
           d="m 153.062,74.675 c 15.96,0 28.9,12.94 28.9,28.9 0,15.96 -12.94,28.899 -28.9,28.899 l -94.979,0 c -22.91,0 -41.48,-18.58 -41.48,-41.48 0,-22.91 18.57,-41.48 41.48,-41.48 1.31,0 2.61,0.07 3.89,0.19 9.12,-10.28 22.42,-16.77 37.24,-16.77 24.89,0 45.5,18.26 49.18,42.12 1.52,-0.239 3.079,-0.379 4.669,-0.379 z"
           id="path10161"
           inkscape:connector-curvature="0"
           style="fill:#b6bbbf"
           sodipodi:nodetypes="sssssscscs" /></g><g
         id="g10163" /></g></g><g
     id="g10165"><path
       fill="#45A4F3"
       d="M97.176,181.839c-0.664,0-1.336-0.175-1.948-0.542c-1.795-1.078-2.377-3.409-1.298-5.203l15.259-25.406   c1.079-1.797,3.406-2.379,5.205-1.3c1.795,1.079,2.377,3.409,1.299,5.204l-15.26,25.406   C99.72,181.184,98.465,181.839,97.176,181.839z"
       id="path10167" /></g><g
     id="g10169"><path
       fill="#45A4F3"
       d="M62.413,198.42c-0.664,0-1.336-0.175-1.948-0.542c-1.796-1.078-2.377-3.409-1.298-5.203l25.218-41.987   c1.078-1.797,3.406-2.379,5.203-1.3c1.797,1.078,2.377,3.409,1.299,5.204L65.668,196.58   C64.958,197.764,63.701,198.42,62.413,198.42z"
       id="path10171" /></g><g
     id="g10173"><path
       fill="#45A4F3"
       d="M47.569,181.839c-0.665,0-1.338-0.175-1.949-0.542c-1.796-1.078-2.377-3.409-1.298-5.203l15.258-25.406   c1.08-1.797,3.408-2.379,5.205-1.3c1.795,1.079,2.377,3.409,1.297,5.204l-15.258,25.406   C50.113,181.184,48.857,181.839,47.569,181.839z"
       id="path10175" /></g><path
     fill="#2B7EC2"
     d="M136.688,181.804c-0.396,0-0.791-0.071-1.161-0.208h-0.033l-0.209-0.1c-0.013-0.007-0.025-0.014-0.039-0.018  l-0.207-0.108c-0.93-0.522-1.551-1.449-1.68-2.517l-2.072-17.096c-0.156-1.283,0.448-2.557,1.543-3.244l14.562-9.162  c0.94-0.592,2.166-0.67,3.177-0.211l0.258,0.129c0.928,0.521,1.551,1.444,1.682,2.512l2.113,17.103  c0.16,1.289-0.447,2.566-1.547,3.254l-14.605,9.154C137.934,181.626,137.319,181.804,136.688,181.804z M138.201,163.061l1.182,9.742  l8.32-5.215l-1.205-9.747L138.201,163.061z"
     id="path10177" /></svg>