<?xml version="1.0" encoding="utf-8"?>
<!-- Generator: Adobe Illustrator 16.0.0, SVG Export Plug-In . SVG Version: 6.00 Build 0)  -->
<!DOCTYPE svg PUBLIC "-//W3C//DTD SVG 1.1//EN" "http://www.w3.org/Graphics/SVG/1.1/DTD/svg11.dtd">
<svg version="1.1" id="Icons" xmlns="http://www.w3.org/2000/svg" xmlns:xlink="http://www.w3.org/1999/xlink" x="0px" y="0px"
	 width="32px" height="32px" viewBox="0 0 198.425 198.43" enable-background="new 0 0 198.425 198.43"
	 xml:space="preserve">
<path fill="#878787" d="M140.482,56.945c18.689,0,33.891,15.2,33.891,33.89c0,18.688-15.199,33.899-33.891,33.899h-94.98
	c-11.75,0-21.32-9.562-21.32-21.312s9.57-21.32,21.32-21.32c1.13,0,2.29,0.1,3.45,0.28l7.55,1.23l1.16-7.562
	c1.52-9.84,6.53-18.86,14.11-25.42c7.65-6.63,17.44-10.27,27.58-10.27c12.04,0,23.55,5.18,31.56,14.21l2.551,2.88l3.83-0.36
	C138.414,56.995,139.453,56.945,140.482,56.945z"/>
<path fill="#878787" d="M140.481,49.513c-1.312,0-2.61,0.068-3.894,0.188c-9.119-10.279-22.418-16.766-37.237-16.766
	c-24.884,0-45.501,18.265-49.182,42.118c-1.52-0.248-3.078-0.381-4.667-0.381c-16.125,0-29.165,13.206-28.895,29.393
	c0.265,15.848,13.522,28.405,29.371,28.405h36.601c1.332,0,2.566-0.698,3.252-1.84l0,0c1.518-2.528-0.303-5.746-3.252-5.746H45.925
	c-11.925,0-21.938-9.758-21.735-21.682c0.197-11.584,9.681-20.945,21.311-20.945c1.137,0,2.297,0.095,3.451,0.282l7.547,1.226
	l1.166-7.557c1.518-9.84,6.528-18.868,14.104-25.424c7.651-6.619,17.447-10.266,27.579-10.266c12.048,0,23.552,5.181,31.562,14.213
	l2.553,2.875l3.826-0.355c1.121-0.104,2.166-0.155,3.191-0.155c18.863,0,34.18,15.491,33.891,34.421
	c-0.283,18.599-15.805,33.367-34.404,33.367h-20.52c-1.332,0-2.566,0.698-3.252,1.841l0,0c-1.52,2.527,0.303,5.744,3.252,5.744
	h20.416c22.797,0,41.799-18.134,42.094-40.929C182.257,68.382,163.574,49.513,140.481,49.513z"/>
<path fill="#FF9838" d="M115.192,150.771c-0.674-1.188-1.935-1.924-3.302-1.924H93.323l21.77-36.244
	c1.078-1.795,0.496-4.125-1.299-5.203c-1.795-1.079-4.125-0.498-5.205,1.299L83.37,150.686c-1.077,1.797-0.496,4.127,1.299,5.205
	c0.518,0.312,1.076,0.477,1.64,0.521c0.005,0,0.009,0,0.013,0.001c0.099,0.008,0.199,0.02,0.297,0.02
	c0.015,0,0.027-0.003,0.041-0.003c0.014,0,0.027,0.003,0.039,0.003h18.492l-21.769,36.242c-1.079,1.795-0.498,4.125,1.298,5.204
	c0.611,0.367,1.284,0.541,1.949,0.541c1.288,0,2.543-0.656,3.255-1.841l25.218-41.987
	C115.845,153.42,115.865,151.96,115.192,150.771z"/>
</svg>
