<?xml version="1.0" encoding="UTF-8" standalone="no"?>
<!-- Generator: Adobe Illustrator 16.0.0, SVG Export Plug-In . SVG Version: 6.00 Build 0)  -->

<svg
   xmlns:dc="http://purl.org/dc/elements/1.1/"
   xmlns:cc="http://creativecommons.org/ns#"
   xmlns:rdf="http://www.w3.org/1999/02/22-rdf-syntax-ns#"
   xmlns:svg="http://www.w3.org/2000/svg"
   xmlns="http://www.w3.org/2000/svg"
   xmlns:sodipodi="http://sodipodi.sourceforge.net/DTD/sodipodi-0.dtd"
   xmlns:inkscape="http://www.inkscape.org/namespaces/inkscape"
   version="1.1"
   id="Icons"
   x="0px"
   y="0px"
   width="32px"
   height="32px"
   viewBox="0 0 198.425 198.43"
   enable-background="new 0 0 198.425 198.43"
   xml:space="preserve"
   inkscape:version="0.91 r13725"
   sodipodi:docname="87.svg"><metadata
     id="metadata4238"><rdf:RDF><cc:Work
         rdf:about=""><dc:format>image/svg+xml</dc:format><dc:type
           rdf:resource="http://purl.org/dc/dcmitype/StillImage" /><dc:title></dc:title></cc:Work></rdf:RDF></metadata><defs
     id="defs4236" /><sodipodi:namedview
     pagecolor="#ffffff"
     bordercolor="#666666"
     borderopacity="1"
     objecttolerance="10"
     gridtolerance="10"
     guidetolerance="10"
     inkscape:pageopacity="0"
     inkscape:pageshadow="2"
     inkscape:window-width="1600"
     inkscape:window-height="848"
     id="namedview4234"
     showgrid="true"
     inkscape:zoom="14.75"
     inkscape:cx="5.1219521"
     inkscape:cy="19.411072"
     inkscape:window-x="-8"
     inkscape:window-y="-8"
     inkscape:window-maximized="1"
     inkscape:current-layer="Icons"><inkscape:grid
       type="xygrid"
       id="grid4860" /></sodipodi:namedview><g
     id="g4193"><g
       id="g4195"><path
         fill="#FF9838"
         d="M57.935,24.565c-2.094,0-3.792-1.698-3.792-3.793V3.575c0-2.095,1.698-3.792,3.792-3.792    s3.793,1.697,3.793,3.792V20.77C61.728,22.866,60.03,24.565,57.935,24.565z"
         id="path4197" /></g><g
       id="g4199"><path
         fill="#FF9838"
         d="M31.908,35.345c-0.971,0-1.941-0.37-2.682-1.11l-12.159-12.16c-1.481-1.481-1.481-3.884,0-5.364    s3.883-1.48,5.363,0L34.589,28.87c1.481,1.48,1.481,3.883,0,5.363C33.85,34.975,32.879,35.345,31.908,35.345z"
         id="path4201" /></g><g
       id="g4203"><path
         fill="#FF9838"
         d="M21.127,61.373H3.931c-2.094,0-3.792-1.698-3.792-3.793c0-2.095,1.699-3.793,3.792-3.793h17.196    c2.094,0,3.793,1.698,3.793,3.793C24.92,59.674,23.221,61.373,21.127,61.373z"
         id="path4205" /></g><path
       fill="#FF9838"
       d="M38.654,79.262c2.178-0.618,4.473-0.957,6.847-0.957c1.339,0,2.705,0.111,4.06,0.331l3.773,0.613   l0.105-0.687c-9.616-2.07-16.847-10.636-16.847-20.862c0-11.771,9.574-21.346,21.344-21.346c6.558,0,12.431,2.977,16.351,7.646   c2.166-1.409,4.443-2.624,6.803-3.646C75.812,33.321,67.406,28.77,57.937,28.77c-15.977,0-28.93,12.952-28.93,28.931   C29.007,66.269,32.735,73.965,38.654,79.262z"
       id="path4207" /></g><g
     id="g4209"><g
       id="XMLID_1_"><g
         id="g4212"><path
           d="m 140.482,49.355 c 22.91,0 41.48,18.56 41.48,41.47 0,22.91 -18.57,41.48 -41.48,41.48 l -94.98,0 c -15.96,0 -28.9,-12.93 -28.9,-28.89 0,-15.96 12.94,-28.9 28.9,-28.9 1.59,0 3.15,0.13 4.67,0.38 3.68,-23.85 24.29,-42.12 49.18,-42.12 14.82,0 28.12,6.49 37.23,16.76 1.291,-0.12 2.59,-0.18 3.9,-0.18 z"
           id="path4216"
           inkscape:connector-curvature="0"
           style="fill:#878787"
           sodipodi:nodetypes="sssssscscs" /></g><g
         id="g4218" /></g></g><path
     style="fill:none;fill-rule:evenodd;stroke:#878787;stroke-width:6.20093727;stroke-linecap:round;stroke-linejoin:miter;stroke-miterlimit:4;stroke-dasharray:none;stroke-opacity:1"
     d="m 32.494237,149.24627 115.861643,0"
     id="path4816"
     inkscape:connector-curvature="0" /><path
     style="fill:none;fill-rule:evenodd;stroke:#878787;stroke-width:6.20093727;stroke-linecap:round;stroke-linejoin:miter;stroke-miterlimit:4;stroke-dasharray:none;stroke-opacity:1"
     d="m 32.494237,168.0778 115.861643,0"
     id="path4816-1"
     inkscape:connector-curvature="0" /><path
     style="fill:none;fill-rule:evenodd;stroke:#878787;stroke-width:6.20093727;stroke-linecap:round;stroke-linejoin:miter;stroke-miterlimit:4;stroke-dasharray:none;stroke-opacity:1"
     d="m 32.494237,186.71318 115.861643,0"
     id="path4816-2"
     inkscape:connector-curvature="0" /><g
     id="g5959"
     transform="matrix(1.6333372,0,0,1.6333372,-86.193555,-106.92498)"><path
       d="m 157.527,155.884 c 1.355,0 2.512,0.255 3.465,0.753 0.939,0.51 1.729,1.189 2.35,2.045 0.619,0.854 1.08,1.864 1.379,3.021 0.291,1.153 0.439,2.354 0.439,3.597 0,1.772 -0.262,3.608 -0.805,5.508 -0.529,1.896 -1.254,3.59 -2.172,5.104 -0.916,1.509 -1.994,2.752 -3.242,3.727 -1.24,0.979 -2.604,1.469 -4.084,1.469 -1.533,0 -2.924,-0.531 -4.174,-1.597 1.959,-1.243 3.244,-2.473 3.861,-3.688 0.623,-1.21 0.936,-2.292 0.936,-3.238 0,-0.829 -0.117,-1.478 -0.354,-1.951 -1.898,-0.06 -3.308,-0.709 -4.219,-1.95 -0.916,-1.246 -1.371,-2.697 -1.371,-4.351 0,-1.011 0.178,-2.015 0.526,-3.021 0.356,-1.006 0.858,-1.908 1.509,-2.709 0.651,-0.798 1.483,-1.449 2.489,-1.951 1.01,-0.513 2.168,-0.768 3.467,-0.768 z"
       id="path5961"
       inkscape:connector-curvature="0"
       style="fill:#2b7ec2" /></g></svg>