<?xml version="1.0" encoding="utf-8"?>
<!-- Generator: Adobe Illustrator 16.0.0, SVG Export Plug-In . SVG Version: 6.00 Build 0)  -->
<!DOCTYPE svg PUBLIC "-//W3C//DTD SVG 1.1//EN" "http://www.w3.org/Graphics/SVG/1.1/DTD/svg11.dtd">
<svg version="1.1" id="Icons" xmlns="http://www.w3.org/2000/svg" xmlns:xlink="http://www.w3.org/1999/xlink" x="0px" y="0px"
	 width="32px" height="32px" viewBox="0 0 198.425 198.43" enable-background="new 0 0 198.425 198.43"
	 xml:space="preserve">
<g>
	<g>
		<path fill="#FF9838" d="M57.935,24.565c-2.094,0-3.792-1.698-3.792-3.793V3.575c0-2.095,1.698-3.792,3.792-3.792
			s3.793,1.697,3.793,3.792V20.77C61.728,22.866,60.03,24.565,57.935,24.565z"/>
	</g>
	<g>
		<path fill="#FF9838" d="M31.908,35.345c-0.971,0-1.941-0.37-2.682-1.11l-12.159-12.16c-1.481-1.481-1.481-3.884,0-5.364
			s3.883-1.48,5.363,0L34.589,28.87c1.481,1.48,1.481,3.883,0,5.363C33.85,34.975,32.879,35.345,31.908,35.345z"/>
	</g>
	<g>
		<path fill="#FF9838" d="M21.127,61.373H3.931c-2.094,0-3.792-1.698-3.792-3.793c0-2.095,1.699-3.793,3.792-3.793h17.196
			c2.094,0,3.793,1.698,3.793,3.793C24.92,59.674,23.221,61.373,21.127,61.373z"/>
	</g>
	<path fill="#FF9838" d="M38.654,79.262c2.178-0.618,4.473-0.957,6.847-0.957c1.339,0,2.705,0.111,4.06,0.331l3.773,0.613
		l0.105-0.687c-9.616-2.07-16.847-10.636-16.847-20.862c0-11.771,9.574-21.346,21.344-21.346c6.558,0,12.431,2.977,16.351,7.646
		c2.166-1.409,4.443-2.624,6.803-3.646C75.812,33.321,67.406,28.77,57.937,28.77c-15.977,0-28.93,12.952-28.93,28.931
		C29.007,66.269,32.735,73.965,38.654,79.262z"/>
</g>
<g>
	<g id="XMLID_1_">
		<g>
			<path fill="#878787" d="M140.482,56.945c18.69,0,33.891,15.2,33.891,33.89c0,18.689-15.2,33.899-33.891,33.899H45.502
				c-11.75,0-21.32-9.569-21.32-21.319s9.57-21.31,21.32-21.31c1.13,0,2.3,0.09,3.45,0.28l7.55,1.23l1.16-7.56
				c1.52-9.84,6.53-18.87,14.11-25.42c7.65-6.63,17.44-10.27,27.58-10.27c12.04,0,23.55,5.18,31.56,14.21l2.55,2.88l3.83-0.36
				C138.413,56.995,139.453,56.945,140.482,56.945z"/>
			<path fill="#878787" d="M140.482,49.355c22.91,0,41.48,18.56,41.48,41.47s-18.57,41.48-41.48,41.48H45.502
				c-15.96,0-28.9-12.93-28.9-28.89s12.94-28.9,28.9-28.9c1.59,0,3.15,0.13,4.67,0.38c3.68-23.85,24.29-42.12,49.18-42.12
				c14.82,0,28.12,6.49,37.23,16.76C137.873,49.415,139.172,49.355,140.482,49.355z M174.373,90.835
				c0-18.69-15.2-33.89-33.891-33.89c-1.029,0-2.069,0.05-3.189,0.15l-3.83,0.36l-2.55-2.88c-8.01-9.03-19.521-14.21-31.56-14.21
				c-10.14,0-19.93,3.64-27.58,10.27c-7.58,6.55-12.59,15.58-14.11,25.42l-1.16,7.56l-7.55-1.23c-1.15-0.19-2.32-0.28-3.45-0.28
				c-11.75,0-21.32,9.56-21.32,21.31s9.57,21.319,21.32,21.319h94.979C159.172,124.734,174.373,109.524,174.373,90.835z"/>
		</g>
		<g>
		</g>
	</g>
</g>
<g>
	<path fill="#45A4F3" d="M113.212,181.839c-0.664,0-1.336-0.175-1.948-0.542c-1.796-1.078-2.378-3.409-1.298-5.203l15.259-25.406
		c1.079-1.797,3.407-2.379,5.205-1.3c1.795,1.079,2.377,3.409,1.299,5.204l-15.261,25.406
		C115.757,181.184,114.501,181.839,113.212,181.839z"/>
</g>
<g>
	<path fill="#45A4F3" d="M78.449,198.42c-0.664,0-1.336-0.175-1.948-0.542c-1.796-1.078-2.377-3.409-1.298-5.203l25.218-41.987
		c1.078-1.797,3.406-2.379,5.203-1.3c1.797,1.078,2.377,3.409,1.299,5.204L81.705,196.58
		C80.994,197.764,79.738,198.42,78.449,198.42z"/>
</g>
<g>
	<path fill="#45A4F3" d="M63.606,181.839c-0.665,0-1.338-0.175-1.949-0.542c-1.796-1.078-2.377-3.409-1.298-5.203l15.258-25.406
		c1.08-1.797,3.408-2.379,5.205-1.3c1.795,1.079,2.377,3.409,1.297,5.204l-15.258,25.406
		C66.15,181.184,64.894,181.839,63.606,181.839z"/>
</g>
</svg>
