<?xml version="1.0" encoding="utf-8"?>
<!-- Generator: Adobe Illustrator 16.0.0, SVG Export Plug-In . SVG Version: 6.00 Build 0)  -->
<!DOCTYPE svg PUBLIC "-//W3C//DTD SVG 1.1//EN" "http://www.w3.org/Graphics/SVG/1.1/DTD/svg11.dtd">
<svg version="1.1" id="Icons" xmlns="http://www.w3.org/2000/svg" xmlns:xlink="http://www.w3.org/1999/xlink" x="0px" y="0px"
	 width="32px" height="32px" viewBox="0 0 198.425 198.43" enable-background="new 0 0 198.425 198.43"
	 xml:space="preserve">
<path fill="#FF9838" d="M195.528,66.283c-0.017,0-0.028,0-0.045,0.001c-0.327,0.008-0.657,0.012-0.987,0.012
	c-14.459,0-28.521-7.501-36.271-20.924c-7.927-13.729-7.187-30.077,0.521-42.724c0.705-1.156-0.158-2.566-1.418-2.566
	c-0.119,0-0.244,0.013-0.371,0.04c-4.174,0.895-8.279,2.447-12.174,4.701c-14.058,8.131-21.642,23.781-20.662,39.239
	c1.797,1.157,3.521,2.441,5.153,3.854c1.412,1.223,2.735,2.526,3.979,3.896c-4.568-14.171,0.724-30.518,13.188-39.074
	c-2.973,12.181-1.242,25.238,5.215,36.425c6.428,11.133,16.914,19.187,28.965,22.721c-4.633,2.239-9.719,3.413-14.852,3.413
	c-2.18,0-4.369-0.21-6.516-0.624c-0.787-0.151-1.605-0.226-2.506-0.226c-2.967,0-6.406,0.847-10.049,1.743
	c-0.607,0.149-1.248,0.308-1.896,0.462l0.425,2.756L149,78.795c1.354-0.22,2.719-0.331,4.062-0.331
	c5.25,0,10.129,1.623,14.163,4.391c6.621-0.23,13.285-2.041,19.425-5.586c3.886-2.243,7.272-5.017,10.129-8.176
	C197.764,68.005,196.983,66.283,195.528,66.283z"/>
<g>
	<g id="XMLID_1_">
		<g>
			<path fill="#878787" d="M153.062,82.265c11.75,0,21.311,9.56,21.311,21.311c0,11.75-9.561,21.31-21.311,21.31H58.083
				c-18.69,0-33.89-15.2-33.89-33.89s15.2-33.9,33.89-33.9c1.03,0,2.07,0.05,3.19,0.16l3.83,0.35l2.55-2.87
				c8.01-9.03,19.51-14.21,31.56-14.21c10.13,0,19.93,3.64,27.58,10.26c7.58,6.56,12.59,15.59,14.1,25.43l1.17,7.55l7.551-1.22
				C150.762,82.355,151.922,82.265,153.062,82.265z"/>
			<path fill="#878787" d="M153.062,74.675c15.96,0,28.9,12.94,28.9,28.9c0,15.96-12.94,28.899-28.9,28.899H58.083
				c-22.91,0-41.48-18.58-41.48-41.48c0-22.91,18.57-41.48,41.48-41.48c1.31,0,2.61,0.07,3.89,0.19
				c9.12-10.28,22.42-16.77,37.24-16.77c24.89,0,45.5,18.26,49.18,42.12C149.913,74.805,151.472,74.675,153.062,74.675z
				 M174.373,103.575c0-11.75-9.561-21.311-21.311-21.311c-1.14,0-2.3,0.09-3.449,0.28l-7.551,1.22l-1.17-7.55
				c-1.51-9.84-6.52-18.87-14.1-25.43c-7.65-6.62-17.45-10.26-27.58-10.26c-12.05,0-23.55,5.18-31.56,14.21l-2.55,2.87l-3.83-0.35
				c-1.12-0.11-2.16-0.16-3.19-0.16c-18.69,0-33.89,15.21-33.89,33.9s15.2,33.89,33.89,33.89h94.979
				C164.812,124.885,174.373,115.325,174.373,103.575z"/>
		</g>
		<g>
		</g>
	</g>
</g>
<g>
	<path fill="#45A4F3" d="M113.212,181.839c-0.664,0-1.336-0.175-1.948-0.542c-1.796-1.078-2.378-3.409-1.298-5.203l15.259-25.406
		c1.079-1.797,3.407-2.379,5.205-1.3c1.795,1.079,2.377,3.409,1.299,5.204l-15.261,25.406
		C115.757,181.184,114.501,181.839,113.212,181.839z"/>
</g>
<g>
	<path fill="#45A4F3" d="M78.45,198.42c-0.664,0-1.336-0.175-1.948-0.542c-1.796-1.078-2.377-3.409-1.298-5.203l25.219-41.987
		c1.078-1.797,3.406-2.379,5.203-1.3c1.797,1.078,2.377,3.409,1.299,5.204L81.706,196.58C80.995,197.764,79.739,198.42,78.45,198.42
		z"/>
</g>
<g>
	<path fill="#45A4F3" d="M63.606,181.839c-0.665,0-1.338-0.175-1.949-0.542c-1.796-1.078-2.377-3.409-1.298-5.203l15.258-25.406
		c1.08-1.797,3.408-2.379,5.205-1.3c1.795,1.079,2.377,3.409,1.297,5.204l-15.258,25.406
		C66.15,181.184,64.895,181.839,63.606,181.839z"/>
</g>
</svg>
