<?xml version="1.0" encoding="UTF-8" standalone="no"?>
<!-- Generator: Adobe Illustrator 16.0.0, SVG Export Plug-In . SVG Version: 6.00 Build 0)  -->

<svg
   xmlns:dc="http://purl.org/dc/elements/1.1/"
   xmlns:cc="http://creativecommons.org/ns#"
   xmlns:rdf="http://www.w3.org/1999/02/22-rdf-syntax-ns#"
   xmlns:svg="http://www.w3.org/2000/svg"
   xmlns="http://www.w3.org/2000/svg"
   xmlns:sodipodi="http://sodipodi.sourceforge.net/DTD/sodipodi-0.dtd"
   xmlns:inkscape="http://www.inkscape.org/namespaces/inkscape"
   version="1.1"
   id="Icons"
   x="0px"
   y="0px"
   width="32px"
   height="32px"
   viewBox="0 0 198.425 198.43"
   enable-background="new 0 0 198.425 198.43"
   xml:space="preserve"
   inkscape:version="0.91 r13725"
   sodipodi:docname="92.svg"><metadata
     id="metadata9591"><rdf:RDF><cc:Work
         rdf:about=""><dc:format>image/svg+xml</dc:format><dc:type
           rdf:resource="http://purl.org/dc/dcmitype/StillImage" /><dc:title></dc:title></cc:Work></rdf:RDF></metadata><defs
     id="defs9589" /><sodipodi:namedview
     pagecolor="#ffffff"
     bordercolor="#666666"
     borderopacity="1"
     objecttolerance="10"
     gridtolerance="10"
     guidetolerance="10"
     inkscape:pageopacity="0"
     inkscape:pageshadow="2"
     inkscape:window-width="1600"
     inkscape:window-height="848"
     id="namedview9587"
     showgrid="false"
     inkscape:zoom="14.75"
     inkscape:cx="24.006897"
     inkscape:cy="15.975366"
     inkscape:window-x="-8"
     inkscape:window-y="-8"
     inkscape:window-maximized="1"
     inkscape:current-layer="Icons" /><path
     fill="#FF9838"
     d="M195.528,66.283c-0.017,0-0.028,0-0.045,0.001c-0.327,0.008-0.657,0.012-0.987,0.012  c-14.459,0-28.521-7.501-36.271-20.924c-7.927-13.729-7.187-30.077,0.521-42.724c0.705-1.156-0.158-2.566-1.418-2.566  c-0.119,0-0.244,0.013-0.371,0.04c-4.174,0.895-8.279,2.447-12.174,4.701c-14.058,8.131-21.642,23.781-20.662,39.239  c1.797,1.157,3.521,2.441,5.153,3.854c1.412,1.222,2.735,2.526,3.979,3.896c-4.569-14.171,0.726-30.518,13.188-39.074  c-2.973,12.181-1.244,25.238,5.215,36.425c6.428,11.133,16.914,19.187,28.965,22.721c-4.633,2.239-9.719,3.413-14.852,3.413  c-2.178,0-4.369-0.21-6.516-0.624c-0.787-0.151-1.605-0.226-2.506-0.226c-2.967,0-6.406,0.847-10.049,1.743  c-0.607,0.149-1.248,0.308-1.896,0.462l0.427,2.756l3.772-0.613c1.353-0.22,2.719-0.331,4.06-0.331  c5.252,0,10.129,1.623,14.163,4.391c6.623-0.23,13.285-2.041,19.425-5.586c3.886-2.243,7.272-5.017,10.129-8.176  C197.764,68.005,196.985,66.283,195.528,66.283z"
     id="path9568" /><g
     id="g9570"><g
       id="XMLID_1_"><g
         id="g9573"><path
           d="m 153.062,74.675 c 15.96,0 28.9,12.94 28.9,28.9 0,15.96 -12.94,28.899 -28.9,28.899 l -94.979,0 c -22.91,0 -41.48,-18.58 -41.48,-41.48 0,-22.91 18.57,-41.48 41.48,-41.48 1.31,0 2.61,0.07 3.89,0.19 9.12,-10.28 22.42,-16.77 37.24,-16.77 24.89,0 45.5,18.26 49.18,42.12 1.52,-0.249 3.079,-0.379 4.669,-0.379 z"
           id="path9577"
           inkscape:connector-curvature="0"
           style="fill:#b6bbbf"
           sodipodi:nodetypes="sssssscscs" /></g><g
         id="g9579" /></g></g><g
     id="g8340"
     transform="translate(36.074881,12.558838)"><path
       d="m 97.176,181.839 c -0.664,0 -1.336,-0.175 -1.948,-0.542 -1.795,-1.078 -2.377,-3.409 -1.298,-5.203 l 15.259,-25.406 c 1.079,-1.797 3.406,-2.379 5.205,-1.3 1.795,1.079 2.377,3.409 1.299,5.204 l -15.26,25.406 c -0.713,1.186 -1.968,1.841 -3.257,1.841 z"
       id="path8342"
       inkscape:connector-curvature="0"
       style="fill:#45a4f3" /></g><g
     id="g8348"
     transform="translate(-4.6510434,14.639729)"><path
       d="m 47.569,181.839 c -0.665,0 -1.338,-0.175 -1.949,-0.542 -1.796,-1.078 -2.377,-3.409 -1.298,-5.203 L 59.58,150.688 c 1.08,-1.797 3.408,-2.379 5.205,-1.3 1.795,1.079 2.377,3.409 1.297,5.204 l -15.258,25.406 c -0.711,1.186 -1.967,1.841 -3.255,1.841 z"
       id="path8350"
       inkscape:connector-curvature="0"
       style="fill:#45a4f3" /></g><path
     d="m 158.86547,141.73606 -10.37017,-5.96638 10.35273,-5.99875 c 1.50446,-0.87263 2.01758,-2.79887 1.14496,-4.30499 -0.87096,-1.50447 -2.79721,-2.01841 -4.30417,-1.14579 l -10.35107,5.99959 -0.0174,-11.96264 c -0.003,-1.73777 -1.4123,-3.14343 -3.14924,-3.14343 -0.002,0 -0.003,0 -0.006,0 -1.73859,0.003 -3.14592,1.41396 -3.14343,3.15422 l 0.0186,11.96181 -10.37015,-5.96471 c -1.50613,-0.86598 -3.43154,-0.34789 -4.29918,1.15907 -0.86598,1.50695 -0.34706,3.43319 1.1599,4.30083 l 10.36933,5.96555 -10.35107,5.99958 c -1.50446,0.8718 -2.01757,2.79887 -1.14495,4.30416 0.58369,1.00796 1.64146,1.57089 2.72663,1.57089 0.53638,0 1.07936,-0.13699 1.57504,-0.42509 l 10.35107,-5.99959 0.0192,11.96098 c 0.003,1.7386 1.41065,3.14426 3.14759,3.14426 0.002,0 0.003,0 0.005,0 1.73944,-0.003 3.14759,-1.41396 3.14427,-3.15506 l -0.0174,-11.96263 10.36851,5.96637 c 0.49483,0.28562 1.03453,0.42095 1.56839,0.42095 1.08933,0 2.15042,-0.56791 2.73245,-1.57919 0.866,-1.50695 0.34707,-3.43319 -1.15905,-4.3 z"
     id="path6528"
     inkscape:connector-curvature="0"
     style="fill:#45a4f3" /><path
     d="m 67.009201,141.14153 -10.37017,-5.96638 10.35273,-5.99875 c 1.50447,-0.87263 2.01758,-2.79887 1.14496,-4.30499 -0.87096,-1.50447 -2.79721,-2.01841 -4.30416,-1.14579 l -10.35107,5.99959 -0.0174,-11.96264 c -0.003,-1.73777 -1.4123,-3.14343 -3.14924,-3.14343 -0.002,0 -0.003,0 -0.006,0 -1.7386,0.003 -3.14592,1.41396 -3.14343,3.15422 l 0.0183,11.96181 -10.37016,-5.96471 c -1.50613,-0.86598 -3.43154,-0.34789 -4.29918,1.15907 -0.86598,1.50695 -0.34706,3.43319 1.1599,4.30083 l 10.36933,5.96555 -10.35107,5.99958 c -1.50446,0.8718 -2.01757,2.79887 -1.14495,4.30416 0.58369,1.00796 1.64146,1.57089 2.72663,1.57089 0.53636,0 1.07936,-0.13699 1.57504,-0.42509 l 10.35107,-5.9996 0.0191,11.96098 c 0.003,1.7386 1.41065,3.14426 3.14759,3.14426 0.002,0 0.003,0 0.005,0 1.73943,-0.003 3.14758,-1.41396 3.14426,-3.15506 l -0.0174,-11.96263 10.36851,5.96637 c 0.49484,0.28563 1.03453,0.42096 1.56839,0.42096 1.08933,0 2.15042,-0.56792 2.73245,-1.57919 0.86601,-1.50696 0.34708,-3.4332 -1.15904,-4.30001 z"
     id="path6528-6"
     inkscape:connector-curvature="0"
     style="fill:#45a4f3" /><path
     d="m 113.68049,166.40944 -10.37017,-5.96638 10.35273,-5.99875 c 1.50447,-0.87263 2.01758,-2.79887 1.14496,-4.30499 -0.87096,-1.50447 -2.79721,-2.01841 -4.30416,-1.14579 l -10.35107,5.99959 -0.0174,-11.96264 c -0.003,-1.73777 -1.412299,-3.14343 -3.149229,-3.14343 -0.002,0 -0.003,0 -0.006,0 -1.73864,0.003 -3.14596,1.41396 -3.14347,3.15422 l 0.0183,11.96181 -10.37016,-5.96471 c -1.50613,-0.86598 -3.43154,-0.34789 -4.29918,1.15907 -0.86598,1.50695 -0.34706,3.43319 1.1599,4.30083 l 10.36933,5.96555 -10.35107,5.99958 c -1.50446,0.8718 -2.01757,2.79887 -1.14495,4.30416 0.58369,1.00796 1.64146,1.57089 2.72663,1.57089 0.53636,0 1.07936,-0.13699 1.57504,-0.42509 l 10.35107,-5.99959 0.0191,11.96098 c 0.003,1.7386 1.41065,3.14426 3.14759,3.14426 0.002,0 0.003,0 0.005,0 1.73944,-0.003 3.147589,-1.41397 3.144269,-3.15506 l -0.0174,-11.96263 10.36851,5.96637 c 0.49483,0.28562 1.03453,0.42095 1.56839,0.42095 1.08933,0 2.15042,-0.56792 2.73245,-1.57919 0.86602,-1.50695 0.34707,-3.43319 -1.15903,-4.3 z"
     id="path6528-8"
     inkscape:connector-curvature="0"
     style="fill:#45a4f3" /></svg>