<?xml version="1.0" encoding="UTF-8" standalone="no"?>
<!-- Generator: Adobe Illustrator 16.0.0, SVG Export Plug-In . SVG Version: 6.00 Build 0)  -->

<svg
   xmlns:dc="http://purl.org/dc/elements/1.1/"
   xmlns:cc="http://creativecommons.org/ns#"
   xmlns:rdf="http://www.w3.org/1999/02/22-rdf-syntax-ns#"
   xmlns:svg="http://www.w3.org/2000/svg"
   xmlns="http://www.w3.org/2000/svg"
   xmlns:sodipodi="http://sodipodi.sourceforge.net/DTD/sodipodi-0.dtd"
   xmlns:inkscape="http://www.inkscape.org/namespaces/inkscape"
   version="1.1"
   id="Icons"
   x="0px"
   y="0px"
   width="32px"
   height="32px"
   viewBox="0 0 198.425 198.43"
   enable-background="new 0 0 198.425 198.43"
   xml:space="preserve"
   inkscape:version="0.91 r13725"
   sodipodi:docname="93.svg"><metadata
     id="metadata10183"><rdf:RDF><cc:Work
         rdf:about=""><dc:format>image/svg+xml</dc:format><dc:type
           rdf:resource="http://purl.org/dc/dcmitype/StillImage" /><dc:title></dc:title></cc:Work></rdf:RDF></metadata><defs
     id="defs10181" /><sodipodi:namedview
     pagecolor="#ffffff"
     bordercolor="#666666"
     borderopacity="1"
     objecttolerance="10"
     gridtolerance="10"
     guidetolerance="10"
     inkscape:pageopacity="0"
     inkscape:pageshadow="2"
     inkscape:window-width="1600"
     inkscape:window-height="848"
     id="namedview10179"
     showgrid="false"
     inkscape:zoom="20.85965"
     inkscape:cx="21.961443"
     inkscape:cy="14.844293"
     inkscape:window-x="-8"
     inkscape:window-y="-8"
     inkscape:window-maximized="1"
     inkscape:current-layer="Icons" /><g
     id="g10154"><g
       id="XMLID_1_"><g
         id="g10157"><path
           d="m 153.062,74.675 c 15.96,0 28.9,12.94 28.9,28.9 0,15.96 -12.94,28.899 -28.9,28.899 l -94.979,0 c -22.91,0 -41.48,-18.58 -41.48,-41.48 0,-22.91 18.57,-41.48 41.48,-41.48 1.31,0 2.61,0.07 3.89,0.19 9.12,-10.28 22.42,-16.77 37.24,-16.77 24.89,0 45.5,18.26 49.18,42.12 1.52,-0.239 3.079,-0.379 4.669,-0.379 z"
           id="path10161"
           inkscape:connector-curvature="0"
           style="fill:#b6bbbf"
           sodipodi:nodetypes="sssssscscs" /></g><g
         id="g10163" /></g></g><g
     id="g10165"><path
       fill="#45A4F3"
       d="M97.176,181.839c-0.664,0-1.336-0.175-1.948-0.542c-1.795-1.078-2.377-3.409-1.298-5.203l15.259-25.406   c1.079-1.797,3.406-2.379,5.205-1.3c1.795,1.079,2.377,3.409,1.299,5.204l-15.26,25.406   C99.72,181.184,98.465,181.839,97.176,181.839z"
       id="path10167" /></g><g
     id="g10169"><path
       fill="#45A4F3"
       d="M62.413,198.42c-0.664,0-1.336-0.175-1.948-0.542c-1.796-1.078-2.377-3.409-1.298-5.203l25.218-41.987   c1.078-1.797,3.406-2.379,5.203-1.3c1.797,1.078,2.377,3.409,1.299,5.204L65.668,196.58   C64.958,197.764,63.701,198.42,62.413,198.42z"
       id="path10171" /></g><g
     id="g10173"><path
       fill="#45A4F3"
       d="M47.569,181.839c-0.665,0-1.338-0.175-1.949-0.542c-1.796-1.078-2.377-3.409-1.298-5.203l15.258-25.406   c1.08-1.797,3.408-2.379,5.205-1.3c1.795,1.079,2.377,3.409,1.297,5.204l-15.258,25.406   C50.113,181.184,48.857,181.839,47.569,181.839z"
       id="path10175" /></g><path
     inkscape:connector-curvature="0"
     style="fill:#ff9838"
     d="m 171.99966,149.29678 c -0.674,-1.188 -1.936,-1.92399 -3.302,-1.92399 l -18.566,0 21.769,-36.24401 c 1.078,-1.795 0.496,-4.125 -1.299,-5.20299 -1.796,-1.079 -4.127,-0.498 -5.205,1.29899 l -25.218,41.987 c -1.078,1.797 -0.497,4.127 1.299,5.205 0.516,0.312 1.076,0.47701 1.638,0.52101 0.005,0 0.01,0 0.014,0.001 0.099,0.008 0.198,0.02 0.297,0.02 0.013,0 0.027,-0.003 0.041,-0.003 0.013,0 0.026,0.003 0.039,0.003 l 18.49,0 -21.768,36.241 c -1.079,1.795 -0.497,4.125 1.299,5.204 0.611,0.36703 1.284,0.54103 1.949,0.54103 1.288,0 2.543,-0.656 3.255,-1.841 l 25.218,-41.98706 c 0.704,-1.171 0.722,-2.631 0.05,-3.82 z"
     id="path10744" /></svg>